SplineFontDB: 3.0
FontName: tengtelcb
FullName: Tengwar Telcontar Bold
FamilyName: Tengwar Telcontar
Weight: Bold
Copyright: Copyright (c) 2005-2009 by Johan Winge
UComments: "2009-12-17: Created." 
Version: 0.08
ItalicAngle: 0
UnderlinePosition: -204.8
UnderlineWidth: 102.4
Ascent: 1638
Descent: 410
LayerCount: 2
Layer: 0 0 "Back"  1
Layer: 1 0 "Fore"  0
NeedsXUIDChange: 1
XUID: [1021 51 2077175461 1275257]
OS2Version: 0
OS2_WeightWidthSlopeOnly: 0
OS2_UseTypoMetrics: 1
CreationTime: 1261076145
ModificationTime: 1261087290
OS2TypoAscent: 0
OS2TypoAOffset: 1
OS2TypoDescent: 0
OS2TypoDOffset: 1
OS2TypoLinegap: 0
OS2WinAscent: 0
OS2WinAOffset: 1
OS2WinDescent: 0
OS2WinDOffset: 1
HheadAscent: 0
HheadAOffset: 1
HheadDescent: 0
HheadDOffset: 1
OS2Vendor: 'PfEd'
DEI: 91125
LangName: 1033 "" "" "" "FontForge: Tengwar Telcontar Bold 0.08" "" "" "" "" "" "Johan Winge" "" "http://freetengwar.sourceforge.net/" "http://freetengwar.sourceforge.net/" "Tengwar Telcontar is distributed under the terms of the GNU General Public License." "http://www.gnu.org/copyleft/gpl.html" 
Encoding: UnicodeBmp
Compacted: 1
UnicodeInterp: none
NameList: Adobe Glyph List
DisplaySize: 3000
AntiAlias: 1
FitToEm: 1
WinInfo: 392 28 12
BeginChars: 65946 702

StartChar: section
Encoding: 167 167 0
Width: 1470
VWidth: 0
Flags: HW
LayerCount: 2
Fore
SplineSet
1021 1367 m 0
 1006 1367 875 1495 671 1495 c 0
 620 1495 564 1487 504 1467 c 1
 473 1419 463 1381 463 1324 c 0
 463 816 1407 881 1407 353 c 0
 1407 194 1319 71 1159 -44 c 1
 1196 -94 1241 -165 1241 -279 c 0
 1241 -351 1221 -485 982 -641 c 0
 837 -736 706 -768 595 -768 c 0
 370 -768 229 -637 229 -632 c 0
 229 -590 396 -471 450 -471 c 0
 466 -471 591 -599 796 -599 c 0
 848 -599 904 -591 966 -570 c 1
 997 -522 1007 -484 1007 -427 c 0
 1007 81 62 16 62 544 c 0
 62 703 150 825 310 940 c 1
 258 1011 228 1090 228 1170 c 0
 228 1229 244 1288 279 1343 c 0
 359 1468 612 1664 868 1664 c 0
 1104 1664 1240 1535 1240 1528 c 0
 1240 1486 1073 1367 1021 1367 c 0
1112 9 m 0
 1120 9 1173 87 1173 202 c 0
 1173 565 694 642 424 835 c 0
 369 875 362 888 357 888 c 0
 349 888 296 806 296 696 c 0
 296 302 846 247 1100 18 c 0
 1108 10 1110 9 1112 9 c 0
EndSplineSet
EndChar

StartChar: uni00B5
Encoding: 181 181 1
Width: 1152
VWidth: 0
Flags: HW
LayerCount: 2
Fore
SplineSet
1077 981 m 0
 1089 981 1092 981 1092 882 c 0
 1092 780 1089 574 1089 156 c 1
 1058 93 916 1 869 1 c 0
 857 1 855 2 855 33 c 0
 855 55 856 91 856 151 c 1
 767 80 649 0 512 0 c 0
 383 0 310 60 297 70 c 1
 296 -696 l 1
 263 -763 119 -852 75 -852 c 2
 71 -852 l 2
 63 -852 61 -849 61 -796 c 0
 61 -762 62 -707 62 -621 c 0
 62 -407 63 9 63 825 c 1
 94 890 238 981 282 981 c 0
 299 981 296 972 296 952 c 0
 296 676 361 170 720 170 c 0
 732 170 744 171 757 172 c 1
 859 357 854 666 856 825 c 1
 889 892 1033 981 1077 981 c 0
EndSplineSet
EndChar

StartChar: multiply
Encoding: 215 215 2
Width: 1390
VWidth: 0
Flags: HW
LayerCount: 2
Fore
SplineSet
106 973 m 0
 106 1013 197 1105 238 1105 c 2
 239 1105 l 2
 248 1105 250 1101 695 656 c 1
 1145 1105 1142 1105 1152 1105 c 0
 1192 1105 1284 1016 1284 973 c 0
 1284 963 1288 969 835 516 c 1
 1284 67 1284 69 1284 59 c 0
 1284 19 1193 -73 1152 -73 c 0
 1142 -73 1148 -76 695 377 c 1
 245 -72 248 -73 238 -73 c 0
 198 -73 106 17 106 60 c 0
 106 70 103 63 556 516 c 1
 107 965 106 963 106 973 c 0
EndSplineSet
EndChar

StartChar: paragraph
Encoding: 182 182 3
Width: 1362
VWidth: 0
Flags: HW
LayerCount: 2
Fore
SplineSet
1151 1749 m 2
 1247 1749 1246 1748 1248 1744 c 1
 1248 -312 l 1
 1219 -372 1072 -470 1028 -470 c 0
 1022 -470 1017 -467 1016 -463 c 0
 1015 -462 1015 140 1015 683 c 1
 1004 676 946 639 942 639 c 0
 941 639 941 -122 941 -312 c 1
 911 -372 764 -469 720 -469 c 0
 714 -469 709 -467 708 -463 c 0
 708 -462 707 161 707 553 c 1
 689 549 652 545 615 545 c 0
 325 545 62 762 62 1088 c 0
 62 1198 100 1298 177 1392 c 0
 261 1494 524 1732 887 1749 c 1
 1151 1749 l 2
706 728 m 0
 707 728 707 879 707 1055 c 2
 707 1580 l 1
 561 1577 426 1532 394 1500 c 0
 329 1434 296 1338 296 1235 c 0
 296 1029 427 798 694 731 c 2
 694 731 705 728 706 728 c 0
1015 1580 m 1
 941 1580 l 1
 941 730 l 1
 964 736 1002 746 1015 767 c 1
 1015 1580 l 1
EndSplineSet
EndChar

StartChar: currency
Encoding: 164 164 4
Width: 1548
VWidth: 0
Flags: HW
LayerCount: 2
Fore
SplineSet
77 1099 m 0
 77 1144 225 1293 271 1293 c 0
 277 1293 277 1293 528 1042 c 1
 642 1112 758 1156 878 1156 c 0
 947 1156 1017 1142 1090 1110 c 1
 1253 1274 1273 1293 1278 1293 c 0
 1324 1293 1472 1144 1472 1099 c 0
 1472 1093 1424 1046 1299 921 c 1
 1338 857 1369 771 1369 673 c 0
 1369 569 1334 452 1238 332 c 1
 1413 157 1472 98 1472 92 c 0
 1472 46 1323 -102 1278 -102 c 0
 1273 -102 1237 -67 1021 149 c 1
 907 79 791 35 671 35 c 0
 602 35 532 49 459 81 c 1
 296 -83 276 -102 271 -102 c 0
 226 -102 77 46 77 92 c 0
 77 98 125 145 250 270 c 1
 211 334 180 420 180 518 c 0
 180 622 215 739 311 859 c 1
 136 1034 77 1093 77 1099 c 0
415 671 m 0
 415 409 628 205 879 205 c 0
 950 205 1019 221 1036 241 c 0
 1074 285 1134 380 1134 520 c 0
 1134 758 951 987 658 987 c 0
 625 987 534 974 513 950 c 0
 475 906 415 811 415 671 c 0
EndSplineSet
EndChar

StartChar: sterling
Encoding: 163 163 5
Width: 1548
VWidth: 0
Flags: HW
LayerCount: 2
Fore
SplineSet
430 872 m 1
 260 872 l 2
 166 872 166 873 166 882 c 0
 166 902 287 1039 412 1042 c 1
 412 1171 413 1340 549 1502 c 0
 602 1566 797 1749 990 1750 c 0
 1156 1750 1236 1617 1236 1605 c 0
 1236 1567 1075 1445 1014 1445 c 0
 1007 1445 1005 1447 999 1457 c 0
 936 1559 833 1580 776 1580 c 0
 755 1580 741 1578 737 1575 c 0
 735 1574 645 1464 645 1241 c 0
 645 1162 656 1082 661 1043 c 1
 904 1043 l 2
 1034 1043 1034 1042 1034 1033 c 0
 1034 1001 919 904 823 873 c 1
 742 873 688 872 688 872 c 1
 688 858 712 750 712 615 c 0
 712 485 684 404 684 401 c 0
 684 399 705 396 826 306 c 0
 900 251 1001 170 1118 170 c 0
 1318 170 1395 300 1474 300 c 0
 1481 300 1486 298 1486 291 c 0
 1486 241 1164 0 912 0 c 0
 767 0 672 89 550 177 c 1
 451 87 321 0 204 0 c 0
 104 0 62 83 62 145 c 0
 62 196 90 234 129 272 c 0
 288 427 448 439 479 442 c 1
 476 673 430 834 430 872 c 1
445 241 m 0
 445 242 390 273 298 273 c 1
 321 170 399 170 415 170 c 1
 427 194 445 235 445 241 c 0
EndSplineSet
EndChar

StartChar: degree
Encoding: 176 176 6
Width: 993
VWidth: 0
Flags: HW
LayerCount: 2
Fore
SplineSet
110 1347 m 0
 110 1593 320 1734 484 1734 c 0
 734 1734 884 1546 884 1347 c 0
 884 1132 713 960 497 960 c 0
 270 960 110 1142 110 1347 c 0
744 1348 m 0
 744 1464 657 1594 489 1594 c 0
 385 1594 249 1505 249 1347 c 0
 249 1217 353 1100 497 1100 c 0
 638 1100 744 1213 744 1348 c 0
EndSplineSet
EndChar

StartChar: guilsinglleft
Encoding: 8249 8249 7
Width: 687
VWidth: 0
Flags: HW
LayerCount: 2
Fore
SplineSet
558 959 m 0
 558 944.293570953 492.217222587 697.131999713 347 448 c 1
 347 441 424 335 507 105 c 0
 532 35 558 -34 558 -63 c 0
 558 -72 555 -78 549 -78 c 0
 529 -78 495 -36 452 35 c 0
 290 307 64 426 64 448 c 0
 64 467 296 599 447 853 c 0
 490 924 529 975 549 975 c 0
 553 975 558 972 558 959 c 0
EndSplineSet
EndChar

StartChar: guilsinglright
Encoding: 8250 8250 8
Width: 687
VWidth: 0
Flags: HW
LayerCount: 2
Fore
SplineSet
129 961 m 0
 129 970 133 974 139 974 c 0
 159 974 196 928 241 853 c 0
 392 599 624 469 624 448 c 0
 624 428 396 303 236 35 c 0
 193 -36 158 -78 138 -78 c 0
 131 -78 129 -72 129 -63 c 0
 129 -26 228 262 337 442 c 0
 338 443 338 445 338 447 c 0
 338 470 267 542 174 811 c 0
 144 896 129 941 129 961 c 0
EndSplineSet
EndChar

StartChar: trademark
Encoding: 8482 8482 9
Width: 1812
VWidth: 0
Flags: HW
LayerCount: 2
Fore
SplineSet
1686 1749 m 0
 1697.33333333 1749 1699 1726 1699 1537 c 2
 1699 904 l 1
 1668 840 1525 748 1479 748 c 0
 1467.33333333 748 1465.56525568 772.000057545 1465.5 846 c 2
 1465 1413 l 1
 1425 1358 1380 1296 1362 1278 c 0
 1293 1209 1198 1163 1170 1163 c 0
 1161 1163 1162 1167 1088 1267 c 1
 1087 904 l 1
 1054 837 910 748 866 748 c 0
 854 748 850.677857573 768.001297218 851 848 c 2
 854 1593 l 1
 884 1654 1023 1749 1076 1749 c 0
 1087 1749 1081 1751 1329 1414 c 1
 1489 1627 1498 1644 1602 1715 c 0
 1644.20942272 1743.8160482 1672 1749 1686 1749 c 0
356 746 m 0
 344.666666667 746 343 746 343 1069 c 2
 343 1580 l 1
 218 1580 144 1579 100 1579 c 0
 39 1579 37 1581 37 1589 c 0
 37 1629 190 1739 249 1749 c 0
 810 1750 l 6
 869.999809356 1750.10695153 882 1749 882 1741 c 4
 882 1711 770 1611 671 1580 c 1
 577 1580 l 1
 576 904 l 1
 546 844 400 746 356 746 c 0
EndSplineSet
EndChar

StartChar: numbersign
Encoding: 35 35 10
Width: 1482
VWidth: 0
Flags: HW
LayerCount: 2
Fore
SplineSet
742 -331 m 0
 733 -331 728 -331 728 -317 c 9
 796 72 l 25
 553 73 l 1
 506 -194 510 -182 506 -195 c 0
 492 -243 325 -332 275 -332 c 0
 266 -332 261 -329 261 -323 c 0
 261 -320 325 48 330 73 c 1
 172 73 83 72 32 72 c 0
 -35 72 -35 74 -35 82 c 0
 -35 116 76 229 166 260 c 1
 363 260 364 261 364 261 c 1
 370 291 409 518 430 636 c 1
 272 636 182 635 131 635 c 0
 64 635 64 637 64 645 c 0
 64 678 176 792 265 823 c 1
 463 824 l 1
 510 1090 l 1
 521 1137 691 1228 741 1228 c 0
 750 1228 755 1225 755 1219 c 0
 755 1210 696 912 686 825 c 1
 929 824 l 1
 976 1091 972 1078 976 1091 c 0
 990 1139 1157 1228 1207 1228 c 0
 1216 1228 1221 1225 1221 1219 c 0
 1221 1216 1157 849 1152 824 c 1
 1310 824 1399 825 1450 825 c 0
 1517 825 1517 823 1517 815 c 0
 1517 781 1407 668 1316 637 c 1
 1119 637 1119 636 1119 636 c 1
 1113 606 1074 379 1053 261 c 1
 1287 261 l 2
 1418 261 1418 260 1418 251 c 0
 1418 219 1306 104 1217 73 c 1
 1019 72 l 1
 972 -193 l 1
 962 -231 804 -331 742 -331 c 0
587 261 m 1
 829 261 l 1
 831 263 847 367 896 636 c 1
 653 636 l 1
 647 606 608 379 587 261 c 1
EndSplineSet
EndChar

StartChar: dollar
Encoding: 36 36 11
Width: 1260
VWidth: 0
Flags: HW
LayerCount: 2
Fore
SplineSet
1223 477 m 0
 1223 195 825 36 742 8 c 1
 741 -116 l 1
 713 -189 586 -303 547 -303 c 0
 539 -303 537 -303 537 -249 c 0
 537 -210 538 -144 538 -29 c 1
 523 -30 509 -30 495 -30 c 0
 148 -30 37 242 37 245 c 0
 37 284 198 406 259 406 c 0
 283 406 314 246 538 164 c 1
 538 630 l 1
 364 668 132 712 132 940 c 0
 132 1192 498 1344 537 1360 c 1
 538 1495 l 1
 569 1569 692 1681 731 1681 c 0
 741 1681 743 1677 743 1609 c 0
 743 1568 742 1505 742 1406 c 1
 753 1408 793 1408 799 1408 c 0
 1052 1408 1180 1219 1180 1209 c 0
 1180 1169 1016 1048 959 1048 c 0
 951 1048 949 1050 939 1064 c 0
 857 1173 744 1211 742 1211 c 1
 742 802 l 1
 1047 750 1223 672 1223 477 c 0
366 1090 m 0
 366 1007 407 913 538 860 c 1
 538 1236 l 1
 481 1235 410 1212 396 1208 c 1
 378 1178 366 1136 366 1090 c 0
989 322 m 0
 989 512.536364195 815.417038266 558.860987245 743 583 c 5
 742 141 l 1
 836 149 884 160 948 184 c 1
 970 217 989 256 989 322 c 0
EndSplineSet
EndChar

StartChar: fraction
Encoding: 8260 8260 12
Width: 1418
VWidth: 0
Flags: HW
LayerCount: 2
Fore
SplineSet
48 -63 m 0
 34 -63 26 -60 26 -53 c 0
 26 -50 28 -46 32 -41 c 0
 44 -27 1145 1303 1148 1306 c 0
 1184 1344 1313 1408 1373 1408 c 0
 1387 1408 1392 1404 1392 1399 c 0
 1392 1393 1386 1385 1381 1378 c 0
 1283 1259 271 37 267 33 c 0
 207 -25 95 -63 48 -63 c 0
EndSplineSet
EndChar

StartChar: ampersand
Encoding: 38 38 13
Width: 1661
VWidth: 0
Flags: HW
LayerCount: 2
Fore
SplineSet
77 333 m 0
 77 656 424 841 494 871 c 1
 476 888 422 937 422 1037 c 0
 422 1259 727 1439 870 1439 c 0
 1071 1439 1121 1306 1121 1217 c 0
 1121 1006 930 912 876 884 c 1
 894 867 924 868 1002 750 c 0
 1032 704 1060 656 1131 506 c 1
 1451 899 1435 889 1501 938 c 0
 1554 978 1613 1006 1638 1006 c 0
 1645 1006 1650 1003 1650 998 c 0
 1650 985 1635 969 1492 793 c 1
 1204 435 1175 425 1175 418 c 1
 1175 418 1289 140 1488 140 c 0
 1530 140 1535 147 1573 178 c 0
 1629 223 1665 238 1682 238 c 0
 1690 238 1694 235 1694 230 c 0
 1694 186 1470 -30 1283 -30 c 0
 1110 -30 1022 114 961 222 c 1
 850 135 623 -30 397 -30 c 0
 209 -30 77 137 77 333 c 0
656 1187 m 0
 656 1071 740 985 874 985 c 1
 883 1013 887 1041 887 1067 c 0
 887 1185 800 1269 669 1269 c 1
 660 1241 656 1213 656 1187 c 0
509 757 m 0
 482 757 407 749 392 730 c 0
 336 660 311 574 311 490 c 0
 311 310 427 139 605 139 c 0
 785 139 877 240 928 286 c 1
 797 555 718 757 509 757 c 0
EndSplineSet
EndChar

StartChar: asterisk
Encoding: 42 42 14
Width: 1418
VWidth: 0
Flags: HW
LayerCount: 2
Fore
SplineSet
1138 1085 m 17
 1207 1085 1210 1083 1210 1075 c 0
 1210 1045 1098 946 999 915 c 1
 885 914 l 1
 1040 643 l 17
 1040 632 1017 627 984 627 c 0
 911 627 789 651 766 682 c 9
 699 794 l 1
 644 699 l 17
 608 655 467 611 409 611 c 0
 394 611 384 614 384 621 c 9
 552 914 l 1
 214 915 l 1
 210 917 209 921 209 925 c 0
 209 963 349 1062 419 1084 c 1
 532 1085 l 25
 378 1354 l 17
 378 1365 402 1370 437 1370 c 0
 507 1370 618 1350 650 1318 c 9
 719 1203 l 25
 776 1300 l 17
 817 1345 952 1388 1009 1388 c 0
 1025 1388 1034 1384 1034 1377 c 9
 867 1084 l 1
 1138 1085 l 17
EndSplineSet
EndChar

StartChar: equal
Encoding: 61 61 15
Width: 1421
VWidth: 0
Flags: HW
LayerCount: 2
Fore
SplineSet
381 188 m 0
 17.0625 188 17 183.375 17 199 c 0
 17 238 161 360 217 374 c 0
 222 376 435 376 679 376 c 0
 1010 376 1396 375 1397 375 c 0
 1401 373 1403 370 1403 365 c 0
 1403 325 1258 204 1204 190 c 0
 1197 189 726 188 381 188 c 0
381 521 m 0
 17.0625 521 17 516.375 17 532 c 0
 17 571 161 693 217 707 c 0
 222 709 402 709 621 709 c 0
 962 709 1395 708 1397 707 c 0
 1401 705 1403 702 1403 697 c 0
 1403 658 1259 537 1204 523 c 0
 1197 522 726 521 381 521 c 0
EndSplineSet
EndChar

StartChar: figuredash
Encoding: 8210 8210 16
Width: 1421
VWidth: 0
Flags: HW
LayerCount: 2
Fore
SplineSet
609 354 m 0
 17.05 354 17 349 17 366 c 0
 17 405 161 527 217 541 c 0
 222 543 402 543 621 543 c 0
 962 543 1395 542 1397 541 c 0
 1401 539 1403 536 1403 531 c 0
 1403 491 1258 370 1204 356 c 0
 1197 355 902 354 609 354 c 0
EndSplineSet
EndChar

StartChar: plus
Encoding: 43 43 17
Width: 1421
VWidth: 0
Flags: HW
LayerCount: 2
Fore
SplineSet
601 354 m 1
 193 354 l 17
 18 354 18 355 18 364 c 0
 18 389.842161093 140.444189122 538.055545735 243 542 c 25
 601 542 l 1
 601 953 l 1
 641 1033 768 1123 809 1123 c 0
 814 1123 818 1122 820 1119 c 1
 820 542 l 1
 1334 542 l 17
 1405 542 1402 542 1402 533 c 0
 1402 496 1270 372 1204 356 c 9
 820 354 l 1
 820 -56 l 1
 783 -129 656 -227 611 -227 c 0
 604 -227 605 -227 601 -222 c 1
 601 354 l 1
EndSplineSet
EndChar

StartChar: divide
Encoding: 247 247 18
Width: 1421
VWidth: 0
Flags: HW
LayerCount: 2
Fore
SplineSet
711 313 m 0
 736 313 761 269 855 182 c 0
 873 165 881 153 881 141 c 0
 881 112 833 83 752 -3 c 0
 735 -21 726 -29 710 -29 c 0
 681 -29 683 -8 566 101 c 0
 551 115 540 127 540 141 c 0
 540 153 547 165 566 182 c 0
 661 270 686 313 711 313 c 0
609 354 m 0
 17.05 354 17 349 17 366 c 0
 17 405 161 527 217 541 c 0
 222 543 402 543 621 543 c 0
 962 543 1395 542 1397 541 c 0
 1401 539 1403 536 1403 531 c 0
 1403 491 1258 370 1204 356 c 0
 1197 355 902 354 609 354 c 0
711 927 m 0
 736 927 761 883 855 796 c 0
 871 781 881 774 881 756 c 0
 881 728 859 725 752 612 c 0
 735 594 722 585 710 585 c 0
 681 585 654 633 566 715 c 0
 549 731 540 743 540 756 c 0
 540 768 548 780 566 796 c 0
 661 884 686 927 711 927 c 0
EndSplineSet
EndChar

StartChar: logicalnot
Encoding: 172 172 19
Width: 1421
VWidth: 0
Flags: HW
LayerCount: 2
Fore
SplineSet
1194 -4 m 0
 1185 -4 1183 -3 1183 57 c 0
 1183 106 1184 194 1184 354 c 1
 965 354 28 354 23 356 c 0
 19 358 17 362 17 366 c 0
 17 405 161 527 217 541 c 0
 219 541 524 543 824 543 c 0
 1114 543 1400 541 1402 537 c 0
 1403 535 1403 534 1403 519 c 0
 1403 490 1402 409 1402 168 c 1
 1371 98 1236 -4 1194 -4 c 0
EndSplineSet
EndChar

StartChar: slash
Encoding: 47 47 20
Width: 1101
VWidth: 0
Flags: HW
LayerCount: 2
Fore
SplineSet
47 -459 m 0
 35 -459 31 -454 31 -451 c 0
 31 -446 825 1604 831 1613 c 0
 861 1657 1001 1740 1054 1740 c 0
 1067 1740 1070 1734 1070 1731 c 0
 1070 1724 275 -326 272 -330 c 0
 246 -373 104 -459 47 -459 c 0
EndSplineSet
EndChar

StartChar: zero
Encoding: 48 48 21
Width: 1152
VWidth: 0
Flags: HW
LayerCount: 2
Fore
SplineSet
472 -30 m 0
 245 -30 63 142 63 377 c 0
 63 410 65 528 171 655 c 0
 260 761 476 927 672 927 c 0
 939 927 1089 724 1089 522 c 0
 1089 206 720 28 623 -5 c 0
 571 -22 521 -30 472 -30 c 0
856 376 m 0
 856 558 714 757 463 757 c 0
 449 757 375 751 363 735 c 0
 320 678 296 603 296 521 c 0
 296 320 462 140 680 140 c 0
 716 140 777 146 789 161 c 0
 832 218 856 294 856 376 c 0
EndSplineSet
EndChar

StartChar: uni2070
Encoding: 8304 8304 22
Width: 748
VWidth: 0
Flags: HW
LayerCount: 2
Fore
SplineSet
265 848 m 0
 98 848 -1 985 -1 1113 c 0
 -1 1242 89 1345 224 1435 c 0
 324 1501 411 1528 485 1528 c 0
 654 1528 749 1387 749 1263 c 0
 749 1198 731 1077 524 940 c 0
 426 874 339 848 265 848 c 0
515 1112 m 0
 515 1235 420 1359 264 1359 c 0
 251 1359 253 1359 249 1349 c 0
 238 1321 233 1292 233 1263 c 0
 233 1137 331 1017 483 1017 c 0
 497 1017 496 1018 500 1027 c 0
 510 1053 515 1081 515 1112 c 0
EndSplineSet
EndChar

StartChar: one
Encoding: 49 49 23
Width: 835
VWidth: 0
Flags: HW
LayerCount: 2
Fore
SplineSet
132 576 m 0
 124 576 120 579 120 585 c 0
 120 606 162 648 218 688 c 0
 283 735 295 784 357 836 c 0
 407 878 488 927 520 927 c 0
 533 927 535 927 535 868 c 0
 535 829 534 764 534 656 c 2
 534 170 l 1
 626 170 683 171 718 171 c 0
 763 171 772 169 772 161 c 0
 772 131 660 32 561 1 c 1
 330 1 205 0 139 -0 c 0
 63 0 63 1 63 9 c 0
 63 35 194 166 300 170 c 1
 300 668 l 1
 214 604 156 576 132 576 c 0
EndSplineSet
EndChar

StartChar: uni00B9
Encoding: 185 185 24
Width: 542
VWidth: 0
Flags: HW
LayerCount: 2
Fore
SplineSet
375 1529 m 0
 387 1529 389 1529 389 1435 c 0
 389 1366 388 1245 388 1036 c 1
 452 1036 489 1037 511 1037 c 0
 542 1037 543 1035 543 1027 c 0
 543 997 431 898 332 867 c 1
 177 867 94 866 50 866 c 0
 0 866 0 867 0 874 c 0
 0 902 65 962 154 1013 c 1
 154 1287 l 1
 100 1253 67 1240 50 1240 c 0
 41 1240 37 1244 37 1250 c 0
 37 1268 74 1306 120 1341 c 0
 169 1378 145 1389 237 1458 c 0
 249 1467 340 1529 375 1529 c 0
EndSplineSet
EndChar

StartChar: two
Encoding: 50 50 25
Width: 1152
VWidth: 0
Flags: HW
LayerCount: 2
Fore
SplineSet
472 0 m 0
 287 0 185 -2 130 -2 c 0
 67 -2 63 0 63 9 c 0
 63 38 160 129 280 173 c 0
 534 267 590 321 621 360 c 0
 674 426 702 508 702 594 c 0
 702 692 608 757 478 757 c 0
 290 757 240 670 164 634 c 0
 136 621 121 620 121 633 c 0
 121 680 366 927 675 927 c 0
 840 927 936 852 936 745 c 0
 936 630 892 413 469 170 c 1
 961 170 907 171 1016 171 c 0
 1090 171 1089 169 1089 161 c 0
 1089 130 975 34 894 6 c 0
 878 1 890 0 472 0 c 0
EndSplineSet
EndChar

StartChar: uni00B2
Encoding: 178 178 26
Width: 748
VWidth: 0
Flags: HW
LayerCount: 2
Fore
SplineSet
289 866 m 2
 57 866 l 2
 2 866 0 867 0 875 c 0
 0 903 95 994 206 1035 c 0
 264 1057 317 1080 348 1097 c 0
 378 1114 415 1181 415 1243 c 0
 415 1303 380 1358 271 1358 c 0
 143 1358 114 1269 52 1269 c 0
 44 1269 40 1272 40 1278 c 0
 40 1314 231 1529 478 1529 c 0
 557 1529 649 1494 649 1406 c 0
 649 1263 531 1140 375 1037 c 1
 619 1037 l 2
 749 1037 749 1036 749 1027 c 0
 749 996 634 900 553 872 c 0
 538 866 545 866 289 866 c 2
EndSplineSet
EndChar

StartChar: three
Encoding: 51 51 27
Width: 1152
VWidth: 0
Flags: HW
LayerCount: 2
Fore
SplineSet
1090 -138 m 0
 1090 -534 623 -885 270 -885 c 0
 185 -885 62 -860 62 -843 c 0
 62 -807 223 -683 284 -683 c 0
 294 -683 372 -716 479 -716 c 0
 544 -716 620 -704 699 -665 c 1
 728 -636 856 -509 856 -276 c 0
 856 -33 648 121 460 121 c 0
 380 121 324 96 303 96 c 0
 297 96 293 98 293 104 c 0
 293 135 404 228 489 260 c 0
 565 288 584 306 610 338 c 0
 656 394 702 485 702 592 c 0
 702 691 610 757 478 757 c 0
 290 757 240 670 164 634 c 0
 136 621 121 620 121 633 c 0
 121 680 366 927 675 927 c 0
 878 927 936 818 936 746 c 0
 936 564 823 417 667 291 c 1
 931 280 1090 92 1090 -138 c 0
EndSplineSet
EndChar

StartChar: uni00B3
Encoding: 179 179 28
Width: 748
VWidth: 0
Flags: HW
LayerCount: 2
Fore
SplineSet
40 1268 m 0
 40 1298 177 1491 466 1491 c 0
 568 1491 649 1462 649 1408 c 0
 649 1320 554 1247 525 1220 c 0
 523 1219 523 1218 529 1217 c 0
 693 1190 749 1107 749 1039 c 0
 749 874 437 627 138 627 c 0
 120 627 0 631 -0 650 c 0
 0 691 166 810 219 810 c 0
 225 810 276 797 346 797 c 0
 391 797 443 802 498 819 c 1
 509 843 514 865 514 886 c 0
 514 991 388 1052 256 1052 c 0
 214 1052 179 1041 162 1041 c 0
 154 1041 150 1043 150 1049 c 0
 150 1081 275 1188 362 1210 c 0
 386 1216 394 1219 410 1224 c 1
 415 1242 415 1242 415 1254 c 0
 415 1309 322 1320 278 1320 c 0
 130 1320 89 1259 51 1259 c 0
 44 1259 40 1262 40 1268 c 0
EndSplineSet
EndChar

StartChar: four
Encoding: 52 52 29
Width: 1311
VWidth: 0
Flags: HW
LayerCount: 2
Fore
SplineSet
707 0 m 1
 139 -0 l 2
 62 0 63 0 63 11 c 0
 63 24 68 27 403 420 c 0
 744 821 739 815 764 836 c 0
 814 878 895 927 927 927 c 0
 940 927 942 927 942 868 c 0
 942 829 941 764 941 656 c 2
 941 170 l 1
 1076 170 1152 171 1194 171 c 0
 1248 171 1248 169 1248 161 c 0
 1248 131 1136 32 1037 1 c 1
 941 0 l 1
 941 -612 l 1
 910 -675 767 -767 720 -767 c 0
 708 -767 706 -767 706 -704 c 0
 706 -664 707 -599 707 -493 c 2
 707 0 l 1
708 188 m 0
 708 222 707 324 707 632 c 1
 314 171 l 1
 550 171 511 170 707 170 c 1
 708 171 708 171 708 188 c 0
EndSplineSet
EndChar

StartChar: uni2074
Encoding: 8308 8308 30
Width: 851
VWidth: 0
Flags: HW
LayerCount: 2
Fore
SplineSet
653 1151 m 1
 787 1151 l 2
 851 1151 852 1150 852 1141 c 0
 852 1110 735 1012 653 985 c 1
 652 762 l 1
 619 697 476 607 432 607 c 0
 420 607 418 607 418 685 c 0
 418 739 419 829 419 981 c 1
 204 981 100 979 49 979 c 0
 0 979 0 981 0 989 c 0
 0 998 7 1013 31 1036 c 0
 39 1044 456 1412 480 1432 c 0
 530 1475 604 1518 638 1518 c 0
 645 1518 650 1517 653 1513 c 1
 653 1151 l 1
419 1151 m 1
 419 1284 l 1
 267 1151 l 1
 419 1151 l 1
EndSplineSet
EndChar

StartChar: five
Encoding: 53 53 31
Width: 1072
VWidth: 0
Flags: HW
LayerCount: 2
Fore
SplineSet
939 898 m 0
 1010 898 1010 896 1010 887 c 0
 1010 857 898 758 799 727 c 1
 296 727 l 1
 296 374 l 1
 351 398 415 421 494 421 c 0
 688 421 882 272 882 29 c 0
 882 -539 133 -852 76 -852 c 0
 67 -852 63 -850 63 -844 c 0
 63 -816 158 -726 266 -685 c 0
 386 -640 459 -588 532 -484 c 0
 608 -375 649 -249 649 -120 c 0
 649 99 472 251 286 251 c 0
 158 251 138 185 76 185 c 0
 64 185 61 185 61 276 c 0
 61 351 63 489 63 741 c 1
 96 806 228 887 274 895 c 1
 673 895 855 898 939 898 c 0
EndSplineSet
EndChar

StartChar: six
Encoding: 54 54 32
Width: 1231
VWidth: 0
Flags: HW
LayerCount: 2
Fore
SplineSet
1170 561 m 0
 1170 247.984511191 745.789527636 -31 478 -31 c 0
 215 -31 62 199 62 452 c 0
 62 562 84 988 502 1374 c 0
 676 1535 898 1664 952 1664 c 0
 960 1664 964 1661 964 1655 c 0
 964 1627 884 1557 790 1509 c 0
 507 1364 297 954 297 602 c 0
 297 327 468 140 686 140 c 0
 737 140 791 150 845 172 c 1
 889 223 935 299 935 418 c 0
 935 617 749 757 557 757 c 0
 445 757 426 709 347 678 c 0
 331 672 302 664 302 678 c 0
 302 723 560 927 765 927 c 0
 996 927 1170 765 1170 561 c 0
EndSplineSet
EndChar

StartChar: seven
Encoding: 55 55 33
Width: 1231
VWidth: 0
Flags: HW
LayerCount: 2
Fore
SplineSet
501 727 m 0
 294 727 185 725 127 725 c 0
 65 725 62 727 62 736 c 0
 62 770 202 883 274 895 c 0
 275 895 611 896 1004 896 c 2
 1120 896 l 2
 1169 896 1169 895 1169 887 c 0
 1169 879 467 -702 467 -703 c 0
 439 -757 290 -853 248 -853 c 0
 241 -853 237 -850 237 -844 c 0
 237 -831 927 714 929 725 c 0
 929 726 843 727 501 727 c 0
EndSplineSet
EndChar

StartChar: eight
Encoding: 56 56 34
Width: 1231
VWidth: 0
Flags: HW
LayerCount: 2
Fore
SplineSet
510 -30 m 0
 265 -30 63 138 63 376 c 0
 63 505 131 599 237 691 c 0
 343 784 389 803 441 836 c 1
 355 884 165 978 165 1197 c 0
 165 1457 509 1614 553 1631 c 0
 609 1653 666 1663 720 1663 c 0
 909 1663 1066 1538 1066 1345 c 0
 1066 1184 956 1065 780 943 c 1
 965 849 1169 750 1169 524 c 0
 1169 211 781 32 698 3 c 0
 634 -19 571 -30 510 -30 c 0
833 1199 m 3
 833 1360 689 1494 510 1494 c 0
 468 1494 450 1489 437 1485 c 1
 415 1451 399 1406 399 1347 c 0
 399 1180 522 1087 625 1026 c 0
 651 1011 678 993 712 978 c 1
 758 996 833 1045 833 1199 c 3
296 524 m 0
 296 307 490 140 720 140 c 0
 774 140 855 153 869 171 c 0
 911 223 935 296 935 373 c 0
 935 563 800 659 518 795 c 1
 472 772 382 729 359 704 c 0
 312 652 296 583 296 524 c 0
EndSplineSet
EndChar

StartChar: nine
Encoding: 57 57 35
Width: 1231
VWidth: 0
Flags: HW
LayerCount: 2
Fore
SplineSet
674 140 m 0
 806 140 848 227 916 227 c 0
 925 227 929 224 929 218 c 0
 929 172 669 -30 466 -30 c 0
 237 -30 62 132 62 336 c 0
 62 646 481 927 752 927 c 0
 1013 927 1169 702 1169 445 c 0
 1169 335 1148 -91 730 -477 c 0
 568 -627 335 -767 280 -767 c 0
 272 -767 268 -764 268 -758 c 0
 268 -729 355 -655 439 -613 c 0
 694 -485 935 -91 935 295 c 0
 935 555 768 757 544 757 c 0
 494 757 441 747 386 725 c 1
 342 674 297 597 297 478 c 0
 297 279 482 140 674 140 c 0
EndSplineSet
EndChar

StartChar: at
Encoding: 64 64 36
Width: 1802
VWidth: 0
Flags: HW
LayerCount: 2
Fore
SplineSet
158 995 m 0
 150 995 147 998 147 1004 c 0
 147 1067 551 1425 995 1425 c 0
 1366 1425 1657 1103 1657 680 c 0
 1657 396 1516 235 1390 130 c 0
 1268 28 1192 1 1142 1 c 0
 1015 1 937 139 934 139 c 0
 925 139 734 -30 502 -30 c 0
 372 -30 267 42 267 150 c 0
 267 307 411 422 596 547 c 0
 666 595 667 596 690 627 c 1
 638 695 600 709 572 709 c 0
 552 709 537 701 528 701 c 0
 521 701 518 704 518 710 c 0
 518 748 661 896 766 896 c 0
 886 896 951 756 1102 415 c 0
 1112 392 1194 188 1342 188 c 0
 1355 188 1354 189 1362 203 c 0
 1394 256 1438 361 1438 517 c 0
 1438 894 1176 1237 800 1237 c 0
 600 1237 402 1166 276 1063 c 0
 216 1014 176 995 158 995 c 0
501 303 m 0
 501 201 601 139 719 139 c 0
 764 139 811 148 857 167 c 0
 867 171 883 191 896 211 c 1
 828 365 734 564 730 564 c 1
 730 564 557 444 545 430 c 0
 517 398 501 351 501 303 c 0
EndSplineSet
EndChar

StartChar: A
Encoding: 65 65 37
Width: 1553
VWidth: 0
Flags: HW
LayerCount: 2
Fore
SplineSet
372 1458 m 0
 288 1458 274 1407 229 1407 c 0
 222 1407 219 1410 219 1417 c 0
 219 1456 429 1667 575 1667 c 0
 695 1667 805 1578 874 1469 c 0
 1082 1141 1440 53 1611 53 c 0
 1622 53 1652 66 1652 49 c 0
 1652 6 1465 -130 1396 -130 c 0
 1326 -130 1276 1 1196 177 c 1
 1188 175 1178 173 1168 173 c 1
 997 267 833 297 697 297 c 0
 524 297 395 249 353 226 c 0
 349 224 291 149 243 102 c 0
 188 48 67 2 19 2 c 0
 6 2 -1 5 -1 12 c 0
 -1 39 85 107 120 148 c 0
 592 700 640 1326 640 1326 c 1
 640 1330 517 1458 372 1458 c 0
910 467 m 0
 1016 467 1068 453 1077 453 c 1
 1077 456 912 850 797 1082 c 1
 711 780 595 565 456 362 c 1
 464 362 647 467 910 467 c 0
EndSplineSet
EndChar

StartChar: B
Encoding: 66 66 38
Width: 1311
VWidth: 0
Flags: HW
LayerCount: 2
Fore
SplineSet
834 946 m 0
 834 936 1248 911 1248 567 c 0
 1248 444 1198 351 1093 259 c 0
 815 16 492 0 92 0 c 0
 76 0 65 1 63 6 c 1
 63 6 62 673 62 1118 c 0
 62 1341 62 1508 63 1509 c 0
 96 1574 227 1654 274 1663 c 1
 637 1663 1106 1660 1106 1314 c 0
 1106 1205 1059 1135 1006 1080 c 0
 921 992 834 951 834 946 c 0
872 1164 m 0
 872 1427 577 1478 296 1491 c 1
 296 981 l 1
 478 984 669 983 823 1030 c 0
 845 1037 843 1035 849 1048 c 0
 869 1089 872 1129 872 1164 c 0
296 170 m 1
 528 170 787 175 968 246 c 1
 977 260 1014 313 1014 412 c 0
 1014 765 603 792 296 809 c 1
 296 170 l 1
EndSplineSet
EndChar

StartChar: C
Encoding: 67 67 39
Width: 1470
VWidth: 0
Flags: HW
LayerCount: 2
Fore
SplineSet
869 1664 m 0
 1185 1664 1296 1427 1296 1427 c 1
 1296 1386 1130 1266 1075 1266 c 0
 1065 1266 1065 1268 1050 1291 c 0
 956 1434 804 1495 668 1495 c 0
 609 1495 553 1483 506 1462 c 0
 475 1448 296 1250 296 907 c 0
 296 543 477 140 840 140 c 0
 912 140 983 155 1031 178 c 0
 1061 192 1141 287 1172 432 c 0
 1188 503 1352 596 1396 596 c 0
 1403 596 1407 594 1407 589 c 0
 1407 587 1386 398 1190 220 c 0
 1092 131 876 -30 632 -30 c 0
 246 -30 63 381 63 756 c 0
 63 962 126 1336 566 1576 c 0
 701 1650 808 1664 869 1664 c 0
EndSplineSet
EndChar

StartChar: Euro
Encoding: 8364 8364 40
Width: 1753
VWidth: 0
Flags: HW
LayerCount: 2
Fore
SplineSet
93 569 m 2
 0 569 0 570 0 578 c 0
 0 615 133 714 204 736 c 0
 216 740 223 738 267 739 c 1
 268 814 271 852 284 926 c 1
 176 926 l 2
 117 926 117 927 117 935 c 0
 117 967 247 1079 335 1096 c 1
 489 1446 860 1664 1126 1664 c 0
 1435 1664 1572 1432 1572 1426 c 0
 1572 1384 1403 1266 1351 1266 c 0
 1341 1266 1340 1270 1333 1280 c 0
 1221 1438 1057 1494 916 1494 c 0
 841 1494 772 1478 722 1453 c 0
 692 1438 583 1334 522 1096 c 1
 1139 1096 1136 1096 1140 1094 c 0
 1143 1093 1145 1090 1145 1087 c 0
 1145 1058 1026 954 932 927 c 1
 501 926 l 1
 503 769 515 755 515 739 c 0
 515 738 557 738 615 738 c 0
 731 738 912 739 946 739 c 0
 1026 739 1027 737 1027 729 c 0
 1027 701 919 602 816 569 c 1
 764 569 559 569 559 568 c 0
 559 566 695 140 1083 140 c 0
 1168 140 1247 157 1304 186 c 0
 1345 207 1421 309 1456 433 c 0
 1474 497 1634 597 1679 597 c 0
 1687 597 1691 594 1691 588 c 1
 1691 588 1661 371 1384 163 c 0
 1135 -25 940 -30 878 -30 c 0
 513 -30 331 303 284 569 c 1
 93 569 l 2
EndSplineSet
EndChar

StartChar: D
Encoding: 68 68 41
Width: 1311
VWidth: 0
Flags: HW
LayerCount: 2
Fore
SplineSet
295 1664 m 0
 860 1664 1248 1403 1248 838 c 0
 1248 645 1192 492 1059 355 c 0
 798 88 452 0 89 0 c 0
 70 0 65 1 63 6 c 5
 63 1509 l 5
 86 1555 213 1664 295 1664 c 0
296 170 m 1
 621 170 821 247 869 280 c 0
 915 312 1014 449 1014 686 c 0
 1014 1322 516 1455 296 1480 c 1
 296 170 l 1
EndSplineSet
EndChar

StartChar: E
Encoding: 69 69 42
Width: 1152
VWidth: 0
Flags: HW
LayerCount: 2
Fore
SplineSet
296 170 m 1
 701 170 l 2
 1089 170 1089 169 1089 161 c 0
 1089 131 977 32 879 1 c 1
 508 1 306 0 195 -0 c 0
 82 0 65 1 63 6 c 1
 63 6 62 673 62 1118 c 0
 62 1341 62 1508 63 1509 c 0
 95 1574 228 1655 274 1663 c 0
 276 1664 942 1665 942 1665 c 2
 1010 1665 1010 1663 1010 1655 c 0
 1010 1625 898 1526 799 1495 c 1
 296 1495 l 1
 296 982 l 1
 513 982 631 984 695 984 c 0
 768 984 772 982 772 972 c 0
 772 942 660 843 561 812 c 1
 296 812 l 1
 296 170 l 1
EndSplineSet
EndChar

StartChar: G
Encoding: 71 71 43
Width: 1311
VWidth: 0
Flags: HW
LayerCount: 2
Fore
SplineSet
739 725 m 0
 678 725 675 727 675 736 c 0
 675 773 824 886 888 896 c 1
 920 896 l 2
 993 896 1166 895 1168 894 c 0
 1175 889 1240 778 1240 636 c 0
 1240 264 851 61 742 16 c 0
 678 -10 604 -30 512 -30 c 0
 139 -30 62 452 62 754 c 0
 62 943 109 1174 259 1356 c 0
 338 1452 572 1664 822 1664 c 0
 1089 1664 1197 1440 1197 1426 c 0
 1197 1386 1033 1266 976 1266 c 0
 953 1266 963 1304 888 1380 c 0
 801 1468 695 1495 611 1495 c 0
 541 1495 486 1476 470 1458 c 0
 363 1337 296 1125 296 908 c 0
 296 459 441 140 724 140 c 0
 778 140 835 150 879 168 c 0
 911 181 1006 318 1006 481 c 0
 1006 579 987 637 943 726 c 1
 841 726 778 725 739 725 c 0
EndSplineSet
EndChar

StartChar: H
Encoding: 72 72 44
Width: 1152
VWidth: 0
Flags: HW
LayerCount: 2
Fore
SplineSet
282 1664 m 0
 295 1664 298 1664 298 1558 c 0
 298 1467 296 1297 296 982 c 1
 856 982 l 1
 856 1509 l 1
 887 1572 1030 1664 1077 1664 c 0
 1089 1664 1091 1664 1091 1599 c 0
 1091 1553 1090 1475 1090 1343 c 0
 1090 1108 1089 727 1089 156 c 1
 1058 93 916 1 869 1 c 0
 857 1 855 1 855 65 c 0
 855 105 856 170 856 277 c 2
 856 812 l 1
 296 812 l 1
 296 156 l 1
 265 93 122 1 75 1 c 0
 63 1 61 1 61 75 c 0
 61 124 62 206 62 341 c 0
 62 580 63 958 63 1509 c 1
 95 1573 238 1664 282 1664 c 0
EndSplineSet
EndChar

StartChar: I
Encoding: 73 73 45
Width: 913
VWidth: 0
Flags: HW
LayerCount: 2
Fore
SplineSet
340 170 m 1
 340 1495 l 1
 224 1495 156 1494 117 1494 c 0
 63 1494 63 1496 63 1504 c 0
 63 1545 215 1653 274 1663 c 0
 276 1664 775 1665 775 1665 c 2
 852 1665 851 1663 851 1655 c 0
 851 1625 738 1525 640 1495 c 1
 573 1494 l 1
 573 170 l 1
 690 170 758 171 797 171 c 0
 851 171 851 169 851 161 c 0
 851 131 739 32 640 1 c 1
 321 1 428 0 109 -0 c 0
 67 0 63 1 63 9 c 0
 63 39 174 140 273 170 c 1
 340 170 l 1
EndSplineSet
EndChar

StartChar: J
Encoding: 74 74 46
Width: 1231
VWidth: 0
Flags: HW
LayerCount: 2
Fore
SplineSet
1087 1664 m 0
 1167 1664 1166 1664 1168 1659 c 0
 1169 1658 1169 990 1169 757 c 0
 1169 494 1167 494 1146 429 c 0
 1073 205 765 -30 511 -30 c 0
 200 -30 63 238 63 258 c 0
 63 297 226 418 282 418 c 0
 292 418 293 418 301 402 c 0
 389 225 558 140 716 140 c 0
 760 140 803 147 843 160 c 1
 919 252 931 352 934 394 c 1
 934 394 935 609 935 1495 c 1
 729 1495 606 1494 533 1494 c 0
 424 1494 424 1496 424 1504 c 0
 424 1545 576 1653 635 1663 c 1
 635 1663 667 1664 1087 1664 c 0
EndSplineSet
EndChar

StartChar: K
Encoding: 75 75 47
Width: 1231
VWidth: 0
Flags: HW
LayerCount: 2
Fore
SplineSet
75 1 m 0
 63 1 61 1 61 75 c 0
 61 124 62 206 62 341 c 0
 62 580 63 958 63 1509 c 1
 96 1575 241 1664 284 1664 c 0
 289 1664 292 1663 294 1661 c 0
 297 1658 296 1364 297 911 c 1
 433 1060 872 1543 876 1547 c 0
 929 1602 1034 1664 1069 1664 c 0
 1076 1664 1081 1661 1081 1655 c 0
 1081 1639 1088 1649 800 1333 c 0
 656 1175 539 1046 539 1045 c 2
 1169 165 l 1
 1169 115 998 0 948 0 c 0
 945 0 942 1 940 2 c 0
 936 4 346 832 344 832 c 0
 342 832 337 825 296 780 c 1
 296 156 l 1
 265 93 122 1 75 1 c 0
EndSplineSet
EndChar

StartChar: L
Encoding: 76 76 48
Width: 1152
VWidth: 0
Flags: HW
LayerCount: 2
Fore
SplineSet
296 170 m 1
 701 170 l 2
 1089 170 1089 169 1089 161 c 0
 1089 131 977 32 879 1 c 1
 508 1 306 0 195 -0 c 0
 82 0 65 1 63 6 c 1
 63 6 62 673 62 1118 c 0
 62 1341 62 1508 63 1509 c 0
 95 1573 238 1664 282 1664 c 0
 289 1664 293 1664 295 1659 c 0
 296 1657 296 1557 296 1298 c 2
 296 170 l 1
EndSplineSet
EndChar

StartChar: M
Encoding: 77 77 49
Width: 1390
VWidth: 0
Flags: HW
LayerCount: 2
Fore
SplineSet
1315 1666 m 0
 1331.87296549 1666 1328 1659.02473624 1328 1562 c 0
 1328 1410 1327 1037 1327 156 c 1
 1296 94 1152 0 1107 0 c 0
 1102 0 1098 1 1096 4 c 0
 1094 6 1095 264 1094 1336 c 1
 878 1050 801 947 784 929 c 0
 727 870 624 812 590 812 c 2
 589 812 l 2
 579 812 580 816 297 1191 c 1
 296 156 l 1
 265 93 122 1 75 1 c 0
 63 1 61 1 61 75 c 0
 61 124 62 206 62 341 c 0
 62 580 63 958 63 1509 c 1
 91 1566 232 1664 282 1664 c 0
 286 1664 289 1663 292 1662 c 1
 298 1657 748 1058 750 1058 c 0
 751 1058 1092 1513 1113 1537 c 0
 1153 1584 1275 1666 1315 1666 c 0
EndSplineSet
EndChar

StartChar: N
Encoding: 78 78 50
Width: 1231
VWidth: 0
Flags: HW
LayerCount: 2
Fore
SplineSet
75 1 m 0
 63 1 61 1 61 75 c 0
 61 124 62 206 62 341 c 0
 62 580 63 958 63 1509 c 1
 90 1564 232 1664 282 1664 c 0
 286 1664 289 1663 292 1662 c 0
 296 1660 414 1455 935 564 c 1
 936 1509 l 1
 967 1572 1109 1664 1156 1664 c 0
 1168 1664 1170 1664 1170 1599 c 0
 1170 1553 1169 1475 1169 1343 c 2
 1169 156 l 1
 1136 90 993 0 948 0 c 0
 945 0 941 1 939 2 c 0
 937 3 723 371 297 1100 c 1
 296 156 l 1
 265 93 122 1 75 1 c 0
EndSplineSet
EndChar

StartChar: O
Encoding: 79 79 51
Width: 1470
VWidth: 0
Flags: HW
LayerCount: 2
Fore
SplineSet
835 1664 m 0
 1203 1664 1407 1287 1407 895 c 0
 1407 669 1339 438 1196 271 c 0
 1119 181 887 -30 631 -30 c 0
 270 -30 63 347 63 741 c 0
 63 965 130 1195 274 1363 c 0
 383 1490 611 1664 835 1664 c 0
1173 731 m 0
 1173 1110 979 1495 631 1495 c 0
 565 1495 522 1482 489 1469 c 1
 358 1328 296 1115 296 901 c 0
 296 523 490 140 839 140 c 0
 910 140 955 155 981 165 c 1
 1112 305 1173 517 1173 731 c 0
EndSplineSet
EndChar

StartChar: Q
Encoding: 81 81 52
Width: 1470
VWidth: 0
Flags: HW
LayerCount: 2
Fore
SplineSet
1079 -323 m 2
 1078 -323 l 2
 1064 -323 1069 -320 868 24 c 1
 865 24 761 -30 631 -30 c 0
 270 -30 62 347 62 741 c 0
 62 965 129 1195 274 1363 c 0
 383 1490 611 1664 835 1664 c 0
 1204 1664 1407 1284 1407 893 c 0
 1407 396 1105 186 1104 179 c 0
 1104 178 1148 103 1202 10 c 0
 1296 -153 1299 -159 1299 -163 c 0
 1299 -202 1137 -323 1079 -323 c 2
839 623 m 0
 851 623 847 622 1055 265 c 1
 1055 265 1173 447 1173 742 c 0
 1173 1144 956 1495 631 1495 c 0
 565 1495 522 1482 489 1469 c 1
 358 1328 296 1114 296 899 c 0
 296 550 460 197 762 146 c 0
 769 145 795 141 801 141 c 1
 801 142 760 214 710 301 c 0
 624 449 618 459 618 463 c 0
 618 501 781 623 839 623 c 0
EndSplineSet
EndChar

StartChar: R
Encoding: 82 82 53
Width: 1311
VWidth: 0
Flags: HW
LayerCount: 2
Fore
SplineSet
75 1 m 0
 63 1 61 1 61 75 c 0
 61 124 62 206 62 341 c 0
 62 580 63 958 63 1509 c 1
 96 1574 227 1654 274 1663 c 1
 316 1663 l 2
 635 1663 1106 1656 1106 1315 c 0
 1106 1204 1060 1124 960 1038 c 0
 873 963 791 920 712 887 c 1
 1248 165 l 1
 1247 115 1077 0 1027 0 c 0
 1024 0 1021 1 1019 2 c 0
 1017 3 795 302 409 823 c 1
 362 818 311 817 296 815 c 1
 296 156 l 1
 265 93 122 1 75 1 c 0
296 981 m 1
 347 981 695 978 841 1036 c 0
 851 1041 872 1102 872 1164 c 0
 872 1435 556 1479 296 1491 c 1
 296 981 l 1
EndSplineSet
EndChar

StartChar: copyright
Encoding: 169 169 54
Width: 2022
VWidth: 0
Flags: HW
LayerCount: 2
Fore
SplineSet
908 414 m 0
 686 414 536 609 536 825 c 0
 536 927 570 1035 645 1128 c 0
 709 1208 920 1390 1104 1390 c 0
 1238 1390 1307 1324 1307 1316 c 0
 1307 1276 1145 1156 1087 1156 c 0
 1065 1156 1020 1220 909 1220 c 0
 877 1220 843 1215 841 1213 c 0
 816 1181 770 1094 770 977 c 0
 770 763 927 584 1116 584 c 0
 1141 584 1167 587 1193 594 c 1
 1260 656 1352 709 1383 709 c 0
 1390 709 1394 707 1394 701 c 0
 1394 653 1136 414 908 414 c 0
109 902 m 0
 109 1402 513 1804 1012 1804 c 0
 1515 1804 1913 1395 1913 903 c 0
 1913 405 1510 0 1012 0 c 0
 502 0 109 416 109 902 c 0
1773 903 m 0
 1773 1322 1433 1664 1011 1664 c 0
 589 1664 249 1321 249 902 c 0
 249 487 585 140 1011 140 c 0
 1433 140 1773 483 1773 903 c 0
EndSplineSet
EndChar

StartChar: registered
Encoding: 174 174 55
Width: 2022
VWidth: 0
Flags: HW
LayerCount: 2
Fore
SplineSet
644 351 m 2
 643 351 l 2
 632 351 630 352 630 403 c 0
 630 432 631 477 631 548 c 2
 631 1261 l 1
 665 1327 796 1408 842 1416 c 1
 851 1416 l 2
 1066 1416 1350 1415 1350 1203 c 0
 1350 1035 1124 938 1128 929 c 0
 1131 921 1435 521 1435 509 c 0
 1435 468 1264 350 1215 350 c 2
 1214 350 l 2
 1203 350 1204 354 865 811 c 1
 864 506 l 1
 831 441 688 351 644 351 c 2
864 1238 m 1
 864 1007 l 1
 1061 1007 1114 1023 1114 1023 c 2
 1115 1024 1116 1041 1116 1052 c 0
 1116 1163 1030 1215 881 1236 c 0
 869 1238 867 1238 864 1238 c 1
109 902 m 0
 109 1402 513 1804 1012 1804 c 0
 1515 1804 1913 1395 1913 903 c 0
 1913 405 1510 0 1012 0 c 0
 502 0 109 416 109 902 c 0
1773 903 m 0
 1773 1322 1433 1664 1011 1664 c 0
 589 1664 249 1321 249 902 c 0
 249 487 585 140 1011 140 c 0
 1433 140 1773 483 1773 903 c 0
EndSplineSet
EndChar

StartChar: U
Encoding: 85 85 56
Width: 1231
VWidth: 0
Flags: HW
LayerCount: 2
Fore
SplineSet
1156 1664 m 0
 1168 1664 1170 1664 1170 1602 c 0
 1170 1563 1169 1498 1169 1393 c 0
 1169 1101 1168 671 1168 670 c 0
 1155 385 1006 236 974 203 c 0
 911 138 717 -30 511 -30 c 0
 212 -30 85 271 66 475 c 0
 63 505 63 571 63 790 c 2
 63 1509 l 1
 96 1575 241 1664 284 1664 c 0
 289 1664 292 1663 294 1661 c 0
 296 1659 296 1537 296 1378 c 2
 296 995 l 2
 296 815 296 665 298 645 c 0
 322 388 466 140 720 140 c 0
 763 140 804 149 809 153 c 0
 823 164 909 279 930 462 c 0
 936 513 935 568 936 1509 c 1
 967 1572 1109 1664 1156 1664 c 0
EndSplineSet
EndChar

StartChar: V
Encoding: 86 86 57
Width: 1390
VWidth: 0
Flags: HW
LayerCount: 2
Fore
SplineSet
63 1506 m 0
 63 1547 235 1665 283 1665 c 0
 287 1665 291 1664 293 1662 c 0
 298 1659 712 422 720 404 c 1
 1098 1517 l 1
 1128 1576 1274 1664 1316 1664 c 0
 1323 1664 1327 1662 1327 1656 c 0
 1327 1646 810 121 807 116 c 0
 779 67 637 -31 592 -31 c 0
 587 -31 583 -29 581 -27 c 0
 577 -23 63 1498 63 1506 c 0
EndSplineSet
EndChar

StartChar: X
Encoding: 88 88 58
Width: 1311
VWidth: 0
Flags: HW
LayerCount: 2
Fore
SplineSet
63 9 m 0
 63 20 71 28 535 759 c 1
 63 1500 l 1
 63 1549 232 1664 283 1664 c 0
 287 1664 290 1663 292 1662 c 1
 702 1021 l 1
 1028 1530 l 1
 1065 1580 1197 1664 1237 1664 c 0
 1244 1664 1248 1661 1248 1655 c 0
 1248 1644 1240 1636 776 905 c 1
 1248 165 l 1
 1248 116 1079 0 1028 0 c 0
 1025 0 1021 1 1019 2 c 1
 608 644 l 1
 283 135 l 1
 245 85 113 0 74 -0 c 0
 67 0 63 3 63 9 c 0
EndSplineSet
EndChar

StartChar: Y
Encoding: 89 89 59
Width: 1311
VWidth: 0
Flags: HW
LayerCount: 2
Fore
SplineSet
551 1 m 0
 539 1 537 1 537 64 c 0
 537 104 538 170 538 276 c 2
 538 818 l 1
 63 1500 l 1
 63 1551 235 1664 283 1664 c 2
 284 1664 l 2
 294 1664 294 1660 500 1365 c 0
 659 1138 706 1070 707 1071 c 0
 711 1075 1011 1509 1030 1533 c 0
 1071 1584 1199 1664 1237 1664 c 0
 1244 1664 1248 1662 1248 1656 c 0
 1248 1643 1252 1653 773 965 c 1
 772 156 l 1
 741 93 598 1 551 1 c 0
EndSplineSet
EndChar

StartChar: yen
Encoding: 165 165 60
Width: 1311
VWidth: 0
Flags: HW
LayerCount: 2
Fore
SplineSet
551 1 m 0
 539 1 536 2 536 82 c 0
 536 147 538 266 538 478 c 1
 359 478 261 477 207 477 c 0
 142 477 142 479 142 487 c 0
 142 517 254 617 353 648 c 1
 538 648 l 1
 538 812 l 1
 359 812 261 811 207 811 c 0
 142 811 142 813 142 821 c 0
 142 851 255 951 353 981 c 1
 424 982 l 1
 63 1500 l 1
 63 1551 235 1664 283 1664 c 2
 284 1664 l 2
 294 1664 294 1660 500 1365 c 0
 659 1138 706 1070 707 1071 c 0
 711 1075 1011 1509 1030 1533 c 0
 1074 1589 1194 1664 1235 1664 c 0
 1243 1664 1248 1662 1248 1655 c 0
 1248 1643 1252 1653 784 982 c 1
 955 982 1050 983 1103 983 c 0
 1169 983 1169 981 1169 973 c 0
 1169 943 1057 843 958 812 c 1
 772 812 l 1
 772 648 l 1
 951 648 1050 649 1104 649 c 0
 1169 649 1169 647 1169 639 c 0
 1169 609 1057 510 958 479 c 1
 772 478 l 1
 772 156 l 1
 741 93 598 1 551 1 c 0
EndSplineSet
EndChar

StartChar: Z
Encoding: 90 90 61
Width: 1231
VWidth: 0
Flags: HW
LayerCount: 2
Fore
SplineSet
732 170 m 0
 898 170 1001 171 1065 171 c 0
 1169 171 1169 169 1169 161 c 0
 1169 131 1057 32 958 1 c 1
 459 1 625 0 126 -0 c 0
 63 0 63 1 63 9 c 0
 63 27 920 1476 926 1493 c 0
 926 1494 868 1495 499 1495 c 0
 333 1495 230 1494 166 1494 c 0
 63 1494 63 1496 63 1504 c 0
 63 1545 215 1653 274 1663 c 0
 276 1663 628 1664 888 1664 c 0
 995 1664 1061 1665 1102 1665 c 0
 1169 1665 1169 1663 1169 1655 c 0
 1169 1639 313 188 306 171 c 0
 306 170 363 170 732 170 c 0
EndSplineSet
EndChar

StartChar: bracketleft
Encoding: 91 91 62
Width: 732
VWidth: 0
Flags: HW
LayerCount: 2
Fore
SplineSet
772 1655 m 0
 772 1625 660 1526 561 1495 c 1
 296 1495 l 1
 296 -598 l 1
 524 -598 643 -596 705 -596 c 0
 770 -596 772 -598 772 -607 c 0
 772 -638 658 -737 561 -767 c 1
 365 -767 243 -768 169 -768 c 0
 88 -768 65 -767 63 -762 c 1
 63 1509 l 1
 96 1574 228 1655 274 1663 c 0
 276 1664 695 1665 695 1665 c 2
 772 1665 772 1663 772 1655 c 0
EndSplineSet
EndChar

StartChar: backslash
Encoding: 92 92 63
Width: 1101
VWidth: 0
Flags: HW
LayerCount: 2
Fore
SplineSet
31 1598 m 0
 31 1646 212 1739 263 1739 c 0
 269 1739 273 1738 275 1735 c 0
 277 1732 1070 -315 1070 -317 c 0
 1070 -358 894 -459 840 -459 c 0
 833 -459 828 -458 826 -454 c 0
 824 -451 31 1596 31 1598 c 0
EndSplineSet
EndChar

StartChar: bracketright
Encoding: 93 93 64
Width: 732
VWidth: 0
Flags: HW
LayerCount: 2
Fore
SplineSet
342 1664 m 2
 589 1664 l 2
 668 1664 667 1664 669 1659 c 0
 670 1657 670 1657 670 1572 c 0
 670 1403 669 900 669 -612 c 1
 646 -656 551 -738 459 -767 c 1
 227 -767 102 -768 36 -768 c 0
 -40 -768 -40 -767 -40 -759 c 0
 -40 -729 73 -629 171 -598 c 1
 436 -598 l 1
 436 1495 l 1
 203 1495 84 1493 23 1493 c 0
 -40 1493 -40 1495 -40 1504 c 0
 -40 1545 113 1653 172 1663 c 0
 175 1664 181 1664 342 1664 c 2
EndSplineSet
EndChar

StartChar: asciicircum
Encoding: 94 94 65
Width: 1152
VWidth: 0
Flags: HW
LayerCount: 2
Fore
SplineSet
76 1068 m 0
 68 1068 63 1071 63 1077 c 0
 63 1084 70 1097 85 1114 c 0
 116 1148 492 1553 498 1558 c 0
 552 1609 643 1664 681 1664 c 0
 690 1664 691 1660 888 1448 c 0
 1089 1232 1089 1233 1089 1228 c 0
 1089 1189 930 1068 867 1068 c 0
 851 1068 515 1445 510 1445 c 0
 508 1445 270 1187 252 1170 c 0
 185 1109 106 1068 76 1068 c 0
EndSplineSet
EndChar

StartChar: underscore
Encoding: 95 95 66
Width: 1152
VWidth: 0
Flags: HW
LayerCount: 2
Fore
SplineSet
812 -170 m 2
 1007 -170 l 2
 1089 -170 1089 -171 1089 -179 c 0
 1089 -209 978 -309 879 -340 c 1
 183 -340 190 -341 117 -341 c 0
 62 -341 63 -339 63 -331 c 0
 63 -290 215 -181 274 -171 c 0
 276 -171 578 -170 812 -170 c 2
EndSplineSet
EndChar

StartChar: braceleft
Encoding: 123 123 67
Width: 891
VWidth: 0
Flags: HW
LayerCount: 2
Fore
SplineSet
931 -607 m 0
 931 -642 776 -768 703 -768 c 0
 169 -768 556 182 195 341 c 0
 116 376 63 353 63 372 c 0
 63 408 215 530 288 533 c 0
 302 534 308 534 317 535 c 1
 396 708 365 978 402 1201 c 0
 427 1351 473 1435 580 1522 c 0
 662 1589 780 1664 914 1664 c 0
 925 1664 930 1660 930 1654 c 0
 930 1618 779 1499 701 1495 c 0
 674 1494 677 1494 673 1485 c 0
 562 1232 680 806 488 578 c 0
 475 563 447 535 417 509 c 1
 562 436 596 305 613 -38 c 0
 626 -310 640 -598 913 -598 c 0
 927 -598 931 -599 931 -607 c 0
EndSplineSet
EndChar

StartChar: bar
Encoding: 124 124 68
Width: 835
VWidth: 0
Flags: HW
LayerCount: 2
Fore
SplineSet
520 1664 m 0
 533 1664 535 1664 535 1598 c 0
 535 1554 534 1482 534 1361 c 2
 534 -612 l 1
 500 -681 353 -768 312 -768 c 0
 306 -768 302 -766 301 -762 c 1
 301 -5 301 752 301 1509 c 1
 334 1575 478 1664 520 1664 c 0
EndSplineSet
EndChar

StartChar: brokenbar
Encoding: 166 166 69
Width: 835
VWidth: 0
Flags: HW
LayerCount: 2
Fore
SplineSet
313 -767 m 0
 301 -767 300 -767 300 -734 c 2
 300 -662 l 2
 300 -551 301 -313 301 198 c 1
 332 262 475 354 520 354 c 0
 532 354 535 354 535 304 c 0
 535 278 534 237 534 176 c 2
 534 -612 l 1
 503 -675 360 -767 313 -767 c 0
313 543 m 2
 312 543 l 2
 301 543 299 543 299 594 c 0
 299 623 300 667 300 737 c 0
 300 877 301 1114 301 1509 c 1
 334 1575 478 1664 520 1664 c 2
 521 1664 l 2
 533 1664 535 1664 535 1613 c 0
 535 1578 534 1520 534 1424 c 2
 534 699 l 1
 501 632 357 543 313 543 c 2
EndSplineSet
EndChar

StartChar: dagger
Encoding: 8224 8224 70
Width: 1311
VWidth: 0
Flags: HW
LayerCount: 2
Fore
SplineSet
758 1664 m 0
 771 1664 774 1664 774 1558 c 0
 774 1467 772 1298 772 986 c 1
 1000 986 1119 988 1181 988 c 0
 1246 988 1248 986 1248 977 c 0
 1248 947 1136 848 1037 817 c 1
 772 816 l 1
 772 -612 l 1
 738 -681 591 -768 550 -768 c 0
 544 -768 540 -766 539 -762 c 0
 538 -761 538 -191 538 816 c 1
 311 816 192 814 130 814 c 0
 65 814 63 816 63 825 c 0
 63 855 174 955 273 986 c 1
 538 986 l 1
 539 1509 l 1
 571 1573 714 1664 758 1664 c 0
EndSplineSet
EndChar

StartChar: daggerdbl
Encoding: 8225 8225 71
Width: 1311
VWidth: 0
Flags: HW
LayerCount: 2
Fore
SplineSet
758 1664 m 0
 771 1664 774 1664 774 1558 c 0
 774 1467 772 1298 772 986 c 1
 1000 986 1119 988 1181 988 c 0
 1246 988 1248 986 1248 977 c 0
 1248 947 1136 848 1037 817 c 1
 772 816 l 1
 772 81 l 1
 989 81 1107 83 1171 83 c 0
 1244 83 1248 81 1248 71 c 0
 1248 41 1136 -58 1037 -89 c 1
 772 -89 l 1
 772 -612 l 1
 741 -675 598 -767 551 -767 c 0
 539 -767 536 -767 536 -668 c 0
 536 -579 538 -410 538 -89 c 1
 306 -89 187 -91 126 -91 c 0
 63 -91 63 -89 63 -80 c 0
 63 -50 174 49 273 80 c 1
 538 81 l 1
 538 816 l 1
 311 816 192 814 130 814 c 0
 65 814 63 816 63 825 c 0
 63 855 174 955 273 986 c 1
 538 986 l 1
 539 1509 l 1
 571 1573 714 1664 758 1664 c 0
EndSplineSet
EndChar

StartChar: braceright
Encoding: 125 125 72
Width: 891
VWidth: 0
Flags: HW
LayerCount: 2
Fore
SplineSet
-40 1504 m 0
 -40 1539 116 1664 187 1664 c 0
 722 1664 336 715 696 556 c 0
 775 521 828 543 828 524 c 0
 828 488 676 367 603 364 c 0
 589 363 583 363 574 362 c 1
 462 115 570 -309 401 -534 c 0
 342 -613 164 -768 -22 -768 c 0
 -37 -768 -40 -765 -40 -758 c 0
 -40 -722 93 -622 163 -601 c 0
 197 -591 210 -606 218 -588 c 0
 311 -376 242 16 348 234 c 0
 377 293 413 337 474 388 c 1
 329 461 295 590 278 934 c 0
 265 1206 251 1495 -22 1495 c 0
 -36 1495 -40 1496 -40 1504 c 0
EndSplineSet
EndChar

StartChar: asciitilde
Encoding: 126 126 73
Width: 1231
VWidth: 0
Flags: HW
LayerCount: 2
Fore
SplineSet
277 881 m 0
 167 881 138 812 76 812 c 0
 66 812 62 815 62 821 c 0
 62 865 306 1051 478 1051 c 0
 668 1051 788 911 954 911 c 0
 1065 911 1093 981 1156 981 c 0
 1165 981 1169 977 1169 972 c 0
 1169 930 937 742 746 742 c 0
 571 742 440 881 277 881 c 0
EndSplineSet
EndChar

StartChar: AE
Encoding: 198 198 74
Width: 1548
VWidth: 0
Flags: HW
LayerCount: 2
Fore
SplineSet
1268 983 m 0
 1334 983 1334 981 1334 973 c 0
 1334 943 1220 843 1123 812 c 1
 947 812 l 1
 1068 171 l 1
 1480 170 l 1
 1484 167 1486 164 1486 159 c 0
 1486 119 1338 20 1275 1 c 1
 1076 1 968 0 909 0 c 0
 847 0 840 1 838 5 c 0
 835 9 806 168 685 812 c 1
 493 811 l 1
 427 591 295 152 292 147 c 0
 262 92 116 0 74 0 c 0
 67 0 63 3 63 9 c 0
 63 16 541 1597 543 1602 c 0
 567 1649 695 1740 750 1749 c 0
 753 1750 893 1750 1003 1750 c 2
 1132 1750 l 2
 1187 1750 1189 1749 1189 1741 c 0
 1189 1700 1035 1591 976 1581 c 0
 972 1580 921 1580 874 1580 c 2
 803 1580 l 1
 805 1565 802 1580 915 982 c 1
 1107 982 1212 983 1268 983 c 0
602 981 m 0
 628 981 653 982 653 983 c 2
 611 1201 l 1
 611 1201 549 1016 545 983 c 0
 545 982 574 981 602 981 c 0
EndSplineSet
EndChar

StartChar: Oslash
Encoding: 216 216 75
Width: 1470
VWidth: 0
Flags: HW
LayerCount: 2
Fore
SplineSet
289 112 m 1
 243.156990435 49.320908381 117.8 -30 75 -30 c 0
 66 -30 63 -26 63 -22 c 0
 63 -11 70 -3 217 199 c 1
 108 364 61 553 61 735 c 0
 61 979 145 1212 274 1363 c 0
 383 1490 611 1664 835 1664 c 0
 1063 1664 1173 1522 1180 1522 c 1
 1225.88971973 1585.6793331 1351.2 1664 1394 1664 c 0
 1403 1664 1407 1661 1407 1656 c 0
 1407 1645 1400 1637 1253 1435 c 1
 1357 1278 1407 1084 1407 892 c 0
 1407 662 1335 433 1196 271 c 0
 1119 181 887 -30 631 -30 c 0
 408 -30 296 112 289 112 c 1
296 896 m 0
 296 629 394 447 397 447 c 0
 398 447 1009 1286 1010 1288 c 0
 1011 1290 877 1495 631 1495 c 0
 565 1495 522 1482 489 1469 c 1
 362 1332 296 1116 296 896 c 0
1173 738 m 0
 1173 1003.58125 1075.115625 1187 1073 1187 c 0
 1072 1187 461 348 460 346 c 0
 459 343 594 139 838 139 c 0
 904 139 948 152 981 165 c 1
 1108 302 1173 518 1173 738 c 0
EndSplineSet
EndChar

StartChar: Eth
Encoding: 208 208 76
Width: 1438
VWidth: 0
Flags: HW
LayerCount: 2
Fore
SplineSet
190 717 m 1
 97 717 38 716 1 716 c 0
 -61 716 -63 718 -63 727 c 0
 -63 762 78 873 149 886 c 0
 155 887 183 887 190 887 c 1
 191 1509 l 1
 214 1555 341 1664 423 1664 c 0
 988 1664 1376 1403 1376 838 c 0
 1376 645 1320 492 1187 355 c 0
 935.803019041 95.6118131397 566.58594681 -1 257 -1 c 0
 217 -1 193 2 191 6 c 0
 190 8 190 180 190 389 c 2
 190 717 l 1
424 170 m 1
 749 170 949 247 997 280 c 0
 1043 312 1142 449 1142 686 c 0
 1142 1322 644 1455 424 1480 c 1
 424 887 l 1
 582 887 675 888 729 888 c 0
 805 888 805 886 805 877 c 0
 805 846 687 747 593 718 c 1
 424 717 l 1
 424 170 l 1
EndSplineSet
EndChar

StartChar: Thorn
Encoding: 222 222 77
Width: 1152
VWidth: 0
Flags: HW
LayerCount: 2
Fore
SplineSet
75 1 m 0
 63 1 61 1 61 75 c 0
 61 124 62 206 62 341 c 0
 62 580 63 958 63 1509 c 1
 95 1573 238 1664 282 1664 c 0
 295 1664 297 1663 297 1614 c 0
 297 1582 296 1528 296 1441 c 1
 672 1441 1090 1320 1090 835 c 0
 1090 653 1011 517 790 380 c 0
 621 275 460 246 296 232 c 1
 296 156 l 1
 265 93 122 1 75 1 c 0
296 394 m 1
 559 394 704 427 795 463 c 1
 809 483 856 545 856 678 c 0
 856 1173 422 1233 296 1256 c 1
 296 394 l 1
EndSplineSet
EndChar

StartChar: T
Encoding: 84 84 78
Width: 1090
VWidth: 0
Flags: HW
LayerCount: 2
Fore
SplineSet
-183 1476 m 0
 -183 1524 -50 1684 -5 1684 c 0
 33 1684 308 1664 649 1664 c 0
 969 1664 1237 1683 1264 1683 c 0
 1270 1683 1273 1679 1273 1673 c 0
 1273 1630 1146 1465 1094 1465 c 0
 1072 1465 1094 1465 650 1482 c 1
 650 1306 661 379 671 299 c 0
 701 51 750 66 750 48 c 0
 750 35 720 19 613 16 c 0
 534 14 415 -9 351 -9 c 0
 324 -9 306 -5 306 7 c 0
 306 26 374 45 378 49 c 0
 408 76 420 176 420 176 c 1
 429 217 440 1078 440 1483 c 1
 120 1483 -108 1465 -169 1465 c 0
 -178 1465 -183 1466 -183 1476 c 0
EndSplineSet
EndChar

StartChar: f
Encoding: 102 102 79
Width: 663
VWidth: 0
Flags: HW
LayerCount: 2
Fore
SplineSet
191 698 m 0
 69 698 15 692 -8 692 c 0
 -22 692 -25 694 -25 702 c 0
 -25 739 78 855 145 889 c 0
 161 897 164 896 192 896 c 1
 192 920 191 945 191 972 c 0
 191 1102 208 1263 408 1437 c 1
 597 1603 763 1663 889 1663 c 0
 1045 1663 1139 1571 1139 1472 c 0
 1139 1429 974 1311 918 1311 c 0
 906 1311 906 1315 905 1329 c 0
 900 1445 757 1495 656 1495 c 0
 614 1495 579 1486 564 1470 c 0
 451 1346 436 1224 436 1073 c 0
 436 1018 438 960 438 896 c 1
 585 896 668 897 714 897 c 0
 773 897 773 895 773 888 c 0
 773 844 646 738 586 714 c 0
 559 703 441 708 437 705 c 1
 435 227 l 1
 435 -13 437 -65 465 -111 c 0
 466 -114 467 -116 467 -119 c 0
 467 -141 426 -165 391 -185 c 0
 354 -206 330 -250 219 -311 c 0
 159 -344 82 -372 48 -372 c 0
 37 -372 30 -369 30 -362 c 0
 30 -337 108 -303 135 -267 c 0
 188 -198 195 -151 195 -11 c 0
 195 43 194 110 194 197 c 0
 194 656 193 698 191 698 c 0
EndSplineSet
EndChar

StartChar: f.conl
Encoding: 65536 -1 80
Width: 663
VWidth: 0
Flags: HW
LayerCount: 2
Fore
SplineSet
193 709 m 1
 60 709 -14 708 -56 708 c 0
 -110 708 -110 710 -110 718 c 0
 -110 755 23 879 89 895 c 0
 95 896 107 896 127 896 c 2
 192 896 l 1
 192 920 191 945 191 972 c 0
 191 1102 208 1263 408 1437 c 1
 597 1603 763 1663 889 1663 c 0
 1045 1663 1139 1571 1139 1472 c 0
 1139 1429 974 1311 918 1311 c 0
 906 1311 906 1315 905 1329 c 0
 900 1445 757 1495 656 1495 c 0
 614 1495 579 1486 564 1470 c 0
 451 1346 436 1224 436 1073 c 0
 436 1018 438 960 438 896 c 1
 575 896 656 897 704 897 c 0
 773 897 773 895 773 887 c 0
 773 850 641 726 575 710 c 0
 570 709 534 709 499 709 c 2
 437 709 l 1
 436 647 436 521 436 404 c 2
 436 247 l 2
 436 -9 438 -64 466 -111 c 0
 467 -113 468 -116 468 -118 c 0
 468 -146 394 -183 391 -185 c 0
 354 -206 330 -250 219 -311 c 0
 159 -344 82 -372 48 -372 c 0
 37 -372 30 -369 30 -362 c 0
 30 -321 175 -305 193 -122 c 0
 194 -108 194 -58 194 19 c 0
 194 173 193 432 193 709 c 1
EndSplineSet
EndChar

StartChar: f.dotlig
Encoding: 65537 -1 81
Width: 663
VWidth: 0
Flags: HW
LayerCount: 2
Fore
SplineSet
468 -118 m 0
 468 -136 436 -159 388 -186 c 0
 355 -204 331 -250 219 -311 c 0
 159 -344 82 -372 48 -372 c 0
 37 -372 30 -369 30 -362 c 0
 30 -337 108 -303 135 -267 c 0
 188 -198 195 -158 195 -4 c 0
 195 48 194 112 194 194 c 0
 194 653 194 698 192 698 c 0
 69 698 15 692 -8 692 c 0
 -22 692 -25 694 -25 702 c 0
 -25 739 78 855 145 889 c 0
 161 897 164 896 192 896 c 1
 192 919 191 944 191 972 c 0
 191 1110 211 1300 446 1489 c 0
 605 1616 736 1663 837 1663 c 0
 982 1663 1062 1566 1062 1469 c 0
 1062 1416 1049 1378 1019 1340 c 0
 964 1271 836 1186 790 1186 c 0
 783 1186 778 1188 778 1195 c 0
 778 1229 828 1221 828 1324 c 0
 828 1418 741 1493 617 1493 c 0
 599 1493 581 1491 562 1488 c 1
 450 1353 436 1235 436 1075 c 0
 436 1021 438 962 438 896 c 1
 585 896 668 897 714 897 c 0
 773 897 773 895 773 888 c 0
 773 844 646 738 586 714 c 0
 559 703 440 708 437 705 c 1
 435 175 l 1
 435 -122 468 -95 468 -118 c 0
EndSplineSet
EndChar

StartChar: f.conl_dotlig
Encoding: 65538 -1 82
Width: 663
VWidth: 0
Flags: HW
LayerCount: 2
Fore
SplineSet
193 709 m 1
 60 709 -14 708 -56 708 c 0
 -110 708 -110 710 -110 718 c 0
 -110 755 23 879 89 895 c 0
 95 896 107 896 127 896 c 2
 192 896 l 1
 192 919 191 944 191 972 c 0
 191 1110 211 1300 446 1489 c 0
 605 1616 736 1663 837 1663 c 0
 982 1663 1062 1566 1062 1469 c 0
 1062 1416 1049 1378 1019 1340 c 0
 964 1271 836 1186 790 1186 c 0
 783 1186 778 1188 778 1195 c 0
 778 1229 828 1221 828 1324 c 0
 828 1418 741 1493 617 1493 c 0
 599 1493 581 1491 562 1488 c 1
 450 1353 436 1235 436 1075 c 0
 436 1021 438 962 438 896 c 1
 575 896 656 897 704 897 c 0
 773 897 773 895 773 887 c 0
 773 850 641 726 575 710 c 0
 570 709 534 709 499 709 c 2
 437 709 l 1
 435 549 434 423 434 321 c 0
 434 -96 450 -85 466 -111 c 0
 468 -113 468 -116 468 -119 c 0
 468 -135 441 -156 388 -186 c 0
 355 -204 331 -250 219 -311 c 0
 159 -344 82 -372 48 -372 c 0
 37 -372 30 -369 30 -362 c 0
 30 -321 176 -305 193 -122 c 0
 194 -108 194 -58 194 19 c 0
 194 173 193 432 193 709 c 1
EndSplineSet
EndChar

StartChar: florin
Encoding: 402 402 83
Width: 663
VWidth: 0
Flags: HW
LayerCount: 2
Fore
SplineSet
-25 702 m 0
 -25 739 78 855 145 889 c 0
 161 897 164 896 192 896 c 1
 192 923 191 950 191 977 c 0
 191 1086 203 1200 318 1343 c 0
 420 1469 677 1664 877 1664 c 0
 1074 1664 1139 1550 1139 1473 c 0
 1139 1430 973 1311 918 1311 c 0
 889 1311 925 1352 868 1416 c 0
 816 1475 728 1494 660 1494 c 0
 613 1494 576 1485 565 1473 c 0
 452 1352 437 1238 437 1076 c 0
 437 1022 439 963 439 896 c 1
 769 896 l 1
 771 894 772 891 772 887 c 0
 772 847 656 742 586 714 c 0
 574 709 498 705 439 705 c 1
 437 -52 429 -136 425 -167 c 0
 394 -398 256 -553 93 -662 c 0
 -42 -752 -133 -768 -189 -768 c 0
 -223 -768 -314 -756 -314 -738 c 0
 -314 -696 -146 -578 -95 -578 c 1
 -95 -578 -29 -598 26 -598 c 0
 54 -598 79 -593 91 -577 c 0
 158 -490 198 -368 198 -217 c 0
 198 12 194 -218 191 698 c 1
 181 697 -11 692 -11 692 c 2
 -19 692 -25 693 -25 702 c 0
EndSplineSet
EndChar

StartChar: longs
Encoding: 383 383 84
Width: 533
VWidth: 0
Flags: HW
LayerCount: 2
Fore
SplineSet
798 1664 m 0
 958 1664 1009 1536 1009 1472 c 0
 1009 1431 844 1311 789 1311 c 0
 779 1311 776 1314 776 1323 c 0
 776 1383 718 1494 594 1494 c 0
 573 1494 529 1491 490 1478 c 0
 464 1469 382 1351 374 1191 c 1
 374 732 l 2
 374 294 376 218 398 160 c 0
 400 154 402 148 402 147 c 0
 402 127 325 61 161 19 c 0
 141 13 60 -19 25 -19 c 0
 15 -19 8 -16 8 -9 c 0
 8 17 85 55 95 66 c 0
 137 114 138 120 138 402 c 0
 138 670 83 718 46 718 c 0
 33 718 -10 693 -10 715 c 0
 -10 756 130 860 138 860 c 0
 141 860 137 1026 145 1089 c 0
 193 1436 586 1664 798 1664 c 0
EndSplineSet
EndChar

StartChar: germandbls
Encoding: 223 223 85
Width: 1295
VWidth: 0
Flags: HW
LayerCount: 2
Fore
SplineSet
-10 715 m 0
 -10 756 130 860 138 860 c 0
 139 860 139 979 139 980 c 0
 139 1081 147 1224 286 1381 c 0
 362 1466 588 1664 833 1664 c 0
 973 1664 1054 1562 1054 1463 c 0
 1054 1313 841 1195 808 1150 c 0
 792 1129 783 1101 783 1073 c 0
 783 895 1246 841 1246 490 c 0
 1246 366 1188 273 1116 201 c 0
 1064 149 890 0 722 0 c 0
 577 0 506 113 506 127 c 0
 506 167 672 287 727 287 c 0
 736 287 737 285 743 275 c 0
 774 225 839 170 930 170 c 0
 973 170 969 172 982 200 c 0
 1002 243 1012 291 1012 339 c 0
 1012 681 550 726 550 922 c 0
 550 1035 674 1132 765 1205 c 0
 790 1225 820 1249 820 1314 c 0
 820 1405 739 1494 625 1494 c 0
 584 1494 497 1483 476 1459 c 0
 382 1349 372 1224 372 1133 c 0
 372 1110 373 1089 373 1071 c 0
 373 260 376 218 398 160 c 0
 400 154 402 148 402 147 c 0
 402 127 325 61 161 19 c 0
 141 13 60 -19 25 -19 c 0
 15 -19 8 -16 8 -9 c 0
 8 17 85 55 95 66 c 0
 137 114 138 120 138 402 c 0
 138 670 83 718 46 718 c 0
 33 718 -10 693 -10 715 c 0
EndSplineSet
EndChar

StartChar: uni25CC
Encoding: 9676 9676 86
Width: 1125
VWidth: 0
Flags: HW
LayerCount: 2
Fore
SplineSet
518 25 m 0
 518 38 517 70 563 70 c 0
 610 70 608 38 608 25 c 0
 608 10 608 -20 563 -20 c 0
 517 -20 518 10 518 25 c 0
677 57 m 0
 677 86 690 102 719 102 c 0
 751 102 767 93 767 57 c 0
 767 21 750 12 722 12 c 0
 695 12 677 19 677 57 c 0
359 57 m 0
 359 86 372 102 401 102 c 0
 433 102 449 93 449 57 c 0
 449 21 432 12 404 12 c 0
 377 12 359 19 359 57 c 0
812 148 m 0
 812 177 826 192 855 192 c 0
 887 192 902 183 902 147 c 0
 902 111 886 102 858 102 c 0
 831 102 812 110 812 148 c 0
223 148 m 0
 223 177 236 192 265 192 c 0
 297 192 313 183 313 147 c 0
 313 111 296 102 268 102 c 0
 241 102 223 110 223 148 c 0
903 284 m 0
 903 313 916 328 945 328 c 0
 989 328 993 307 993 283 c 0
 993 264 992 238 948 238 c 0
 921 238 903 246 903 284 c 0
132 284 m 0
 132 313 145 328 174 328 c 0
 206 328 222 319 222 283 c 0
 222 247 206 238 178 238 c 0
 151 238 132 246 132 284 c 0
934 442 m 0
 934 476 951 487 976 487 c 0
 1007 487 1025 478 1025 442 c 0
 1025 397 997 397 980 397 c 2
 979 397 l 2
 963 397 934 397 934 442 c 0
191 442 m 0
 191 397 165 397 146 397 c 2
 145 397 l 2
 129 397 101 397 101 442 c 0
 101 476 117 487 142 487 c 0
 173 487 191 478 191 442 c 0
903 602 m 0
 903 631 916 646 945 646 c 0
 989 646 993 625 993 601 c 0
 993 582 992 556 948 556 c 0
 921 556 903 564 903 602 c 0
132 602 m 0
 132 631 145 646 174 646 c 0
 206 646 222 637 222 601 c 0
 222 565 206 556 178 556 c 0
 151 556 132 564 132 602 c 0
812 738 m 0
 812 767 826 782 855 782 c 0
 887 782 902 773 902 737 c 0
 902 701 886 692 858 692 c 0
 831 692 812 700 812 738 c 0
223 738 m 0
 223 767 236 782 265 782 c 0
 297 782 313 773 313 737 c 0
 313 701 296 692 268 692 c 0
 241 692 223 700 223 738 c 0
677 828 m 0
 677 857 690 872 719 872 c 0
 751 872 767 863 767 827 c 0
 767 791 750 782 722 782 c 0
 695 782 677 790 677 828 c 0
359 828 m 0
 359 857 372 872 401 872 c 0
 433 872 449 863 449 827 c 0
 449 791 432 782 404 782 c 0
 377 782 359 790 359 828 c 0
518 859 m 0
 518 872 517 904 563 904 c 0
 610 904 608 872 608 859 c 0
 608 844 608 814 563 814 c 0
 517 814 518 844 518 859 c 0
EndSplineSet
EndChar

StartChar: uni0300.normal
Encoding: 65539 -1 87
Width: 0
VWidth: 0
Flags: HW
LayerCount: 2
Fore
SplineSet
-292 1397 m 0
 -292 1413 -255 1419 -207 1419 c 0
 -145 1419 -66 1408 -31 1391 c 0
 -11 1382 -22 1396 140 1095 c 1
 174 1029 197 990 197 974 c 0
 197 968 194 965 186 965 c 0
 150 965 49 1021 -22 1100 c 1
 -265 1363 -292 1390 -292 1397 c 0
EndSplineSet
EndChar

StartChar: uni0301.normal
Encoding: 65540 -1 88
Width: 0
VWidth: 0
Flags: HW
LayerCount: 2
Fore
SplineSet
-163 966 m 0
 -171 966 -175 968 -175 974 c 0
 -175 986 -119 1089 31 1367 c 0
 39 1382 43 1385 55 1391 c 0
 93 1410 165 1420 224 1420 c 0
 275 1420 316 1412 316 1397 c 0
 316 1392 230 1299 46 1100 c 1
 -28 1018 -128 966 -163 966 c 0
EndSplineSet
EndChar

StartChar: uni0302.normal
Encoding: 65541 -1 89
Width: 0
VWidth: 0
Flags: HW
LayerCount: 2
Fore
SplineSet
-389 965 m 0
 -396 965 -400 968 -400 973 c 0
 -400 987 -199 1363 -185 1380 c 0
 -165 1405 -82 1418 1 1418 c 0
 83 1418 164 1405 185 1380 c 0
 199 1362 400 986 400 973 c 0
 400 968 396 965 389 965 c 0
 354 965 246 1026 174 1105 c 0
 7 1286 1 1292 0 1292 c 0
 -3 1292 -184 1088 -225 1054 c 0
 -291 999 -362 965 -389 965 c 0
EndSplineSet
EndChar

StartChar: uni0303.normal
Encoding: 65542 -1 90
Width: 0
VWidth: 0
Flags: HW
LayerCount: 2
Fore
SplineSet
-258 1122 m 0
 -341 1122 -363 1059 -416 1059 c 0
 -424 1059 -428 1062 -428 1068 c 0
 -428 1114 -212 1310 -65 1310 c 0
 61 1310 149 1228 258 1228 c 0
 341 1228 364 1293 417 1293 c 0
 424 1293 427 1290 427 1284 c 0
 427 1240 223 1041 61 1041 c 0
 -54 1041 -152 1122 -258 1122 c 0
EndSplineSet
EndChar

StartChar: uni0303.narrow
Encoding: 65543 -1 91
Width: 0
VWidth: 0
Flags: HW
LayerCount: 2
Fore
SplineSet
-189 1101 m 0
 -233 1101 -260 1059 -296 1059 c 0
 -303 1059 -307 1062 -307 1068 c 0
 -307 1111 -125 1288 6 1288 c 0
 75 1288 134 1251 189 1251 c 0
 239 1251 256 1292 297 1292 c 0
 305 1292 308 1289 308 1283 c 0
 308 1240 125 1063 -6 1063 c 0
 -73 1063 -138 1101 -189 1101 c 0
EndSplineSet
EndChar

StartChar: uni0304.normal
Encoding: 65544 -1 92
Width: 0
VWidth: 0
Flags: HW
LayerCount: 2
Fore
SplineSet
-382 1067 m 0
 -427 1067 -434 1069 -434 1077 c 0
 -434 1118 -281 1227 -222 1237 c 0
 -219 1238 -214 1238 14 1238 c 2
 363 1238 l 2
 434 1238 434 1237 434 1229 c 0
 434 1199 322 1099 223 1068 c 1
 -271 1068 -381 1067 -382 1067 c 0
EndSplineSet
EndChar

StartChar: uni0304.narrow
Encoding: 65545 -1 93
Width: 0
VWidth: 0
Flags: HW
LayerCount: 2
Fore
SplineSet
-315 1076 m 0
 -315 1116 -171 1222 -105 1236 c 0
 -98 1238 255 1238 261 1238 c 0
 312 1238 315 1237 315 1230 c 0
 315 1187 162 1080 103 1069 c 0
 101 1068 -260 1067 -260 1067 c 2
 -311 1067 -315 1069 -315 1076 c 0
EndSplineSet
EndChar

StartChar: uni0307.normal
Encoding: 65546 -1 94
Width: 0
VWidth: 0
Flags: HW
LayerCount: 2
Fore
SplineSet
-0 1306 m 0
 19 1306 16 1304 130 1190 c 0
 146 1175 153 1167 153 1152 c 0
 153 1134 159 1143 38 1022 c 0
 23 1007 12 999 1 999 c 0
 -23 999 -51 1036 -130 1115 c 0
 -145 1130 -154 1141 -154 1152 c 0
 -154 1162 -146 1174 -130 1190 c 0
 -14 1306 -19 1306 -0 1306 c 0
EndSplineSet
EndChar

StartChar: uni0308.normal
Encoding: 65547 -1 95
Width: 0
VWidth: 0
Flags: HW
LayerCount: 2
Fore
SplineSet
205 1306 m 0
 224 1306 221 1304 335 1190 c 0
 351 1175 358 1167 358 1152 c 0
 358 1134 363 1143 242 1022 c 0
 227 1007 217 999 206 999 c 0
 182 999 154 1036 75 1115 c 0
 60 1130 51 1141 51 1152 c 0
 51 1162 59 1174 75 1190 c 0
 191 1306 186 1306 205 1306 c 0
-205 1306 m 0
 -186 1306 -189 1304 -75 1190 c 0
 -59 1175 -51 1167 -51 1152 c 0
 -51 1134 -46 1143 -167 1022 c 0
 -182 1007 -193 999 -204 999 c 0
 -228 999 -256 1036 -335 1115 c 0
 -350 1130 -359 1141 -359 1152 c 0
 -359 1162 -351 1174 -335 1190 c 0
 -219 1306 -224 1306 -205 1306 c 0
EndSplineSet
EndChar

StartChar: uni0308.narrow
Encoding: 65548 -1 96
Width: 0
VWidth: 0
Flags: HW
LayerCount: 2
Fore
SplineSet
179 1306 m 0
 198 1306 195 1304 309 1190 c 0
 325 1175 333 1167 333 1152 c 0
 333 1134 338 1143 217 1022 c 0
 202 1007 191 999 180 999 c 0
 156 999 128 1036 49 1115 c 0
 34 1130 25 1141 25 1152 c 0
 25 1162 33 1174 49 1190 c 0
 165 1306 160 1306 179 1306 c 0
-179 1306 m 0
 -160 1306 -163 1304 -49 1190 c 0
 -33 1175 -26 1167 -26 1152 c 0
 -26 1134 -21 1143 -142 1022 c 0
 -157 1007 -167 999 -178 999 c 0
 -202 999 -230 1036 -309 1115 c 0
 -324 1130 -333 1141 -333 1152 c 0
 -333 1162 -325 1174 -309 1190 c 0
 -193 1306 -198 1306 -179 1306 c 0
EndSplineSet
EndChar

StartChar: uni030A.normal
Encoding: 65549 -1 97
Width: 0
VWidth: 0
Flags: HW
LayerCount: 2
Fore
SplineSet
-39 983 m 0
 -166 983 -257 1070 -257 1171 c 0
 -257 1302 -88 1423 39 1423 c 0
 178 1423 257 1328 257 1236 c 0
 257 1105 87 983 -39 983 c 0
91 1139 m 0
 91 1233 7 1291 -88 1299 c 1
 -90 1288 -91 1279 -91 1269 c 0
 -91 1174 -5 1116 88 1108 c 1
 90 1119 91 1129 91 1139 c 0
EndSplineSet
EndChar

StartChar: uni030C.normal
Encoding: 65550 -1 98
Width: 0
VWidth: 0
Flags: HW
LayerCount: 2
Fore
SplineSet
-399 1462 m 0
 -399 1467 -395 1470 -388 1470 c 0
 -354 1470 -251 1417 -174 1331 c 1
 -7 1150 -1 1143 0 1143 c 0
 3 1143 184 1347 225 1381 c 0
 291 1436 362 1470 389 1470 c 0
 396 1470 400 1467 400 1462 c 0
 400 1447 198 1072 185 1055 c 0
 165 1030 82 1017 -1 1017 c 0
 -83 1017 -165 1030 -185 1055 c 0
 -199 1073 -399 1449 -399 1462 c 0
EndSplineSet
EndChar

StartChar: uni0327.normal
Encoding: 65551 -1 99
Width: 0
VWidth: 0
Flags: HW
LayerCount: 2
Fore
SplineSet
-224 -339 m 0
 -232 -339 -236 -336 -236 -330 c 0
 -236 -321 -116 -68 -114 -65 c 0
 -82 -2 64 85 106 85 c 0
 113 85 117 83 117 77 c 0
 117 66 31 -110 31 -113 c 1
 38 -113 61 -100 104 -100 c 0
 192 -100 259 -160 259 -250 c 0
 259 -428 -18 -605 -159 -605 c 0
 -221 -605 -282 -573 -282 -561 c 0
 -282 -523 -126 -401 -55 -401 c 1
 -6 -432 19 -433 21 -433 c 0
 24 -433 25 -426 25 -402 c 0
 25 -377 19 -290 -86 -270 c 1
 -135 -308 -198 -339 -224 -339 c 0
EndSplineSet
EndChar

StartChar: uni0364.normal
Encoding: 65552 -1 100
Width: 0
VWidth: 0
Flags: HW
LayerCount: 2
Fore
SplineSet
296 1399 m 0
 296 1304.47602107 135.931562494 1168.64228032 -62 1103 c 1
 -62 1101 -43 1051 34 1051 c 0
 140 1051 168 1130 226 1130 c 0
 233 1130 236 1127 236 1121 c 0
 236 1076 21 870 -159 870 c 0
 -264 870 -294 929 -294 968 c 0
 -294 1064 -130 1196 40 1251 c 0
 56 1256 61 1257 61 1260 c 0
 61 1271 39 1303 -13 1315 c 1
 -12 1313 -12 1311 -12 1309 c 0
 -12 1257 -184 1145 -232 1145 c 0
 -241 1145 -249 1145 -249 1191 c 0
 -249 1336 5 1492 109 1492 c 0
 242 1492 296 1453 296 1399 c 0
EndSplineSet
EndChar

StartChar: F
Encoding: 70 70 101
Width: 940
VWidth: 0
Flags: HW
LayerCount: 2
Fore
SplineSet
1188 1311 m 0
 1176 1311 1053 1494 797 1494 c 0
 691 1494 613 1463 583 1443 c 0
 516 1398 388 1200 388 952 c 0
 388 871 391 911 393 548 c 1
 921 543 921 545 921 533 c 0
 921 495 791 374 724 356 c 0
 710 352 400 351 394 351 c 1
 387 -35 398 -511 330 -631 c 0
 289 -703 130 -766 77 -766 c 0
 66 -766 60 -764 60 -758 c 0
 60 -740 85 -739 98 -699 c 0
 151 -542 154 119 154 348 c 1
 19 347 l 1
 15 350 13 351 13 356 c 0
 13 386 78 466 154 525 c 1
 152 940 151 1199 111 1358 c 0
 90 1442 58 1485 23 1485 c 0
 13 1485 -31 1463 -31 1482 c 0
 -31 1526 132 1664 219 1664 c 0
 280.217527413 1664 339.661848924 1628.05534909 371 1331 c 1
 374 1328 631 1664 989 1664 c 0
 1254 1664 1415 1484 1415 1471 c 0
 1415 1436 1261 1311 1188 1311 c 0
EndSplineSet
EndChar

StartChar: P
Encoding: 80 80 102
Width: 1625
VWidth: 0
Flags: HW
LayerCount: 2
Fore
SplineSet
1329 848 m 0
 1329 1124 1211 1491 902 1491 c 0
 817 1491 678 1468 594 1382 c 0
 440 1225 388 978 388 951 c 0
 388 897 393 736 393 414 c 0
 393 -380 371 -559 330 -631 c 0
 289 -703 130 -766 77 -766 c 0
 66 -766 60 -764 60 -758 c 0
 60 -740 85 -739 98 -699 c 0
 133 -596 153 -307 153 473 c 0
 153 914 151 1199 111 1358 c 0
 90 1442 58 1485 23 1485 c 0
 13 1485 -31 1463 -31 1482 c 0
 -31 1526 131 1664 219 1664 c 0
 304 1664 354 1574 375 1288 c 0
 377 1257 376 1249 377 1249 c 0
 380 1249 672 1664 1105 1664 c 0
 1428 1664 1563 1307 1563 1001 c 0
 1563 773 1476 561 1298 403 c 0
 1056 188 869 180 812 180 c 0
 596 180 449 298 449 309 c 0
 449 342 603 462 677 462 c 0
 690 462 815 349 1009 349 c 0
 1099 349 1160 375 1171 387 c 0
 1200 419 1329 571 1329 848 c 0
EndSplineSet
EndChar

StartChar: S
Encoding: 83 83 103
Width: 1272
VWidth: 0
Flags: HW
LayerCount: 2
Fore
SplineSet
989 387 m 0
 989 843 132 671 132 1137 c 0
 132 1226 168 1302 213 1360 c 0
 293 1463 531 1664 797 1664 c 0
 986 1664 1119 1552 1180 1427 c 1
 1165 1369 1007 1266 959 1266 c 0
 950 1266 948 1269 943 1279 c 0
 880 1397 753 1495 588 1495 c 0
 537 1495 482 1485 424 1464 c 1
 382 1408 366 1350 366 1289 c 0
 366 841 1223 1008 1223 542 c 0
 1223 236 829 55 775 32 c 0
 701 1 600 -30 483 -30 c 0
 147 -30 37 267 37 300 c 0
 37 335 195 459 258 459 c 0
 275 459 268 443 300 379 c 0
 364 252 502 140 690 140 c 0
 786 140 902 169 922 193 c 0
 959 238 989 309 989 387 c 0
EndSplineSet
EndChar

StartChar: W
Encoding: 87 87 104
Width: 2168
VWidth: 0
Flags: HW
LayerCount: 2
Fore
SplineSet
1344 -32 m 0
 1316 -32 1335 36 1203 537 c 1
 1096 347 916 116 840 53 c 0
 786 9 714 -32 683 -32 c 0
 669 -32 669 -26 665 -9 c 0
 518 615 271 1102 198 1231 c 0
 154 1308 64 1456 -25 1456 c 0
 -47 1456 -68 1442 -68 1461 c 0
 -68 1497 61 1664 154 1664 c 0
 316 1664 460 1306 560 1085 c 1
 778 585 846 219 847 219 c 0
 848 219 994 424 1107 717 c 0
 1127 768 1138 760 1138 767 c 0
 1138 771 1134 780 1127 806 c 0
 1046 1079 933 1456 804 1456 c 0
 778 1456 759 1442 759 1460 c 0
 759 1496 886 1664 982 1664 c 0
 1119 1664 1205 1394 1325 991 c 0
 1391.31809937 766.14019434 1451.27434481 515.543197626 1499 279 c 1
 1508 279 1732 749 1808 1010 c 0
 1841 1123 1854 1216 1854 1290 c 0
 1854 1424 1810 1492 1761 1492 c 0
 1744 1492 1711 1474 1694 1474 c 0
 1688 1474 1684 1476 1684 1483 c 0
 1684 1519 1839 1664 1959 1664 c 0
 2069 1664 2097 1535 2097 1422 c 0
 2097 981 1636 209 1552 100 c 0
 1514 51 1393 -32 1344 -32 c 0
EndSplineSet
EndChar

StartChar: a
Encoding: 97 97 105
Width: 1061
VWidth: 0
Flags: HW
LayerCount: 2
Fore
SplineSet
311 701 m 0
 305 701 302 704 302 709 c 0
 302 746 440 896 548 896 c 0
 669 896 737 749 894 395 c 0
 938 295 986 188 1047 188 c 0
 1064 188 1086 201 1086 184 c 0
 1086 147 939 1 851 1 c 0
 791 1 755 55 712 138 c 1
 554 18 405 -30 289 -30 c 0
 144 -30 50 45 50 150 c 0
 50 307 193 422 378 547 c 0
 448 595 450 596 473 627 c 1
 422 694 382 708 354 708 c 0
 334 708 320 701 311 701 c 0
283 303 m 0
 283 205 378 140 493 140 c 0
 550 140 634 158 648 173 c 0
 662 188 672 204 678 212 c 1
 608 369 516 564 512 564 c 1
 512 564 340 444 328 430 c 0
 300 398 283 351 283 303 c 0
EndSplineSet
EndChar

StartChar: ordfeminine
Encoding: 170 170 106
Width: 690
VWidth: 0
Flags: HW
LayerCount: 2
Fore
SplineSet
193 1324 m 0
 184 1324 157 1310 157 1328 c 0
 157 1366 305 1511 388 1511 c 0
 473 1511 516 1419 624 1173 c 0
 644 1127 679 1052 715 1052 c 0
 725 1052 744 1059 744 1045 c 0
 744 1008 597 864 519 864 c 0
 456 864 434 948 428 948 c 0
 420 948 299 847 150 847 c 0
 60 847 -8 895 -8 968 c 0
 -8 1127 265 1269 265 1279 c 0
 265 1280 232 1324 193 1324 c 0
299 1223 m 0
 296 1223 245 1186 244 1185 c 0
 239 1179 226 1155 226 1120 c 0
 226 1052 290 1017 360 1017 c 0
 372 1017 384 1018 396 1020 c 1
 389 1035 302 1223 299 1223 c 0
EndSplineSet
EndChar

StartChar: ae
Encoding: 230 230 107
Width: 1550
VWidth: 0
Flags: HW
LayerCount: 2
Fore
SplineSet
942 369 m 0
 942 365 1049 140 1223 140 c 0
 1257 140 1292 148 1294 150 c 0
 1338 208 1465 282 1503 282 c 0
 1510 282 1514 280 1514 274 c 0
 1514 236 1263 -30 1013 -30 c 0
 845 -30 757 139 751 139 c 0
 743 139 548 -30 299 -30 c 0
 174 -30 50 29 50 153 c 0
 50 429 522 620 522 632 c 0
 522 639 461 757 378 757 c 0
 366 757 330 741 330 760 c 0
 330 793 483 927 587 927 c 0
 692 927 745 810 761 779 c 1
 846 829 1017 927 1187 927 c 0
 1364 927 1466 788 1466 657 c 0
 1466 611 1459 601 1452 591 c 0
 1418 545 1323 477 1264 457 c 0
 1085 398 942 371 942 369 c 0
884 490 m 0
 909 490 1225 554 1226 560 c 0
 1226 561 1186 757 974 757 c 0
 885 757 790 716 790 714 c 2
 790 714 882 490 884 490 c 0
284 303 m 0
 284 186 405 140 522 140 c 0
 603 140 682 162 716 198 c 1
 634 349 558 566 552 567 c 1
 552 567 365 468 340 451 c 0
 322 439 284 383 284 303 c 0
EndSplineSet
EndChar

StartChar: b
Encoding: 98 98 108
Width: 1197
VWidth: 0
Flags: HW
LayerCount: 2
Fore
SplineSet
147 213 m 0
 147 422 154 657 154 868 c 0
 154 1203 136 1475 38 1475 c 0
 21 1475 -18 1450 -18 1472 c 0
 -18 1511 132 1664 229 1664 c 0
 314 1664 357 1567 374 1317 c 0
 386 1132 387 734 388 734 c 0
 393 734 586 927 788 927 c 0
 967 927 1127 781 1127 574 c 0
 1127 254 760 -30 507 -30 c 0
 249 -30 148 191 148 191 c 2
 147 192 147 200 147 213 c 0
909 412 m 0
 909 585 768 731 601 731 c 0
 541 731 478 712 417 670 c 0
 402.774680607 660.347104698 395.002158148 656.630782574 390.797506705 646 c 1
 386.726052905 635.70598617 386 618.928654397 386 584 c 2
 386 507 l 2
 386 466 386 413 384 343 c 1
 460 206 588 151 703 151 c 0
 749 151 792 159 830 175 c 0
 854 185 909 290 909 412 c 0
EndSplineSet
EndChar

StartChar: b.conl
Encoding: 65553 -1 109
Width: 1300
VWidth: 0
Flags: HW
LayerCount: 2
Fore
SplineSet
605 -30 m 0
 515 -30 346 -2 240 194 c 1
 241 1098 241 1098 242 1324 c 1
 273 1389 417 1480 463 1480 c 0
 474 1480 476 1478 476 1450 c 0
 476 1430 475 1397 475 1342 c 0
 475 1201 475 967 476 729 c 1
 564 805 722 927 886 927 c 0
 1082 927 1231 767 1231 566 c 0
 1231 468 1195 360 1112 257 c 0
 1043 171 837 -30 605 -30 c 0
1010 409 m 0
 1010 618 839 732 702 732 c 1
 702 732 573 733 476 642 c 1
 477 343 l 1
 563 187 699 149 801 149 c 0
 875 149 932 169 939 179 c 0
 977 231 1010 311 1010 409 c 0
EndSplineSet
EndChar

StartChar: c
Encoding: 99 99 110
Width: 982
VWidth: 0
Flags: HW
LayerCount: 2
Fore
SplineSet
583 167 m 0
 818 167 861 300 920 300 c 0
 927 300 931 296 931 289 c 0
 931 259 859 174 773 105 c 0
 679 30 564 -30 408 -30 c 0
 168 -30 41 181 41 371 c 0
 41 689 409 927 628 927 c 0
 825 927 945 781 945 766 c 0
 945 726 780 605 725 605 c 0
 716 605 713 610 709 615 c 0
 622 726 502 758 420 758 c 0
 372 758 337 747 329 735 c 0
 286 673 266 600 266 527 c 0
 266 346 390 167 583 167 c 0
EndSplineSet
EndChar

StartChar: cent
Encoding: 162 162 111
Width: 982
VWidth: 0
Flags: HW
LayerCount: 2
Fore
SplineSet
583 167 m 0
 818 167 861 299 921 299 c 0
 927 299 931 297 931 290 c 0
 931 237 696 -30 433 -30 c 1
 345 -329 355 -318 302 -386 c 0
 262 -437 201 -493 178 -493 c 0
 172 -493 169 -489 169 -482 c 0
 169 -466 304 -21 304 -18 c 0
 304 -11 198 3 113 130 c 0
 66 201 41 285 41 371 c 0
 41 679 373 895 582 925 c 1
 601 991 664 1200 665 1202 c 0
 694 1277 806 1390 838 1390 c 0
 844 1390 847 1387 847 1379 c 0
 847 1371 847 1373 713 918 c 1
 894 871 945 766 945 766 c 1
 945 726 780 605 725 605 c 0
 707 605 712 625 643 681 c 1
 495 181 l 1
 496 180 537 167 583 167 c 0
267 522 m 0
 267 347 380 248 382 248 c 0
 383 248 528 738 528 741 c 0
 528 742 486 757 421 757 c 0
 332 757 330 736 329 735 c 0
 289 677 267 603 267 522 c 0
EndSplineSet
EndChar

StartChar: d
Encoding: 100 100 112
Width: 1188
VWidth: 0
Flags: HW
LayerCount: 2
Fore
SplineSet
725 1475 m 0
 712 1475 688 1462 674 1462 c 0
 668 1462 664 1464 664 1471 c 0
 664 1510 816 1664 915 1664 c 0
 983 1664 1026 1607 1041 1426 c 0
 1054 1267 1051 416 1054 362 c 0
 1059 259 1070 194 1094 191 c 0
 1101 190 1104 187 1104 181 c 0
 1104 141 951 1 898 1 c 0
 833 1 825 168 823 168 c 0
 816 168 623 -30 418 -30 c 0
 237 -30 65 114 65 330 c 0
 65 575 222 752 436 866 c 0
 521 911 593 927 654 927 c 0
 724 927 778 906 816 885 c 1
 817 964 817 1045 817 1127 c 0
 817 1314 803 1475 725 1475 c 0
813 482 m 0
 813 556 814 622 814 660 c 0
 814 681 814 693 813 693 c 0
 811 693 812 690 777 665 c 0
 730 632 707 623 695 623 c 0
 684 623 682 631 679 634 c 0
 602 736 499 757 435 757 c 0
 402 757 379 752 377 748 c 0
 327 682 294 579 294 483 c 0
 294 286 450 161 602 161 c 0
 692 161 780 205 817 254 c 1
 814 324 813 407 813 482 c 0
EndSplineSet
EndChar

StartChar: eth
Encoding: 240 240 113
Width: 1112
VWidth: 0
Flags: HW
LayerCount: 2
Fore
SplineSet
63 373 m 0
 63 705.4 466.92109375 927 650 927 c 0
 665 927 678 926 690 926 c 1
 602 1119 522 1216 521 1216 c 0
 516 1215 253 1047 241 1042 c 0
 228 1036 219 1037 219 1049 c 0
 219 1089 298 1194 358 1239 c 0
 367 1246 416 1276 455 1300 c 1
 385 1381 255 1493 155 1495 c 1
 139 1487 98 1466 78 1466 c 0
 71 1466 67 1469 67 1475 c 0
 67 1524 279 1664 362 1664 c 0
 522 1664 694 1451 696 1451 c 0
 699 1451 943 1606 957 1612 c 0
 969 1617 978 1616 978 1605 c 0
 978 1567 896 1458 836 1414 c 0
 820 1403 762 1367 762 1366 c 0
 762 1363 993 1071 1041 666 c 0
 1046 622 1049 581 1049 542 c 0
 1049 422 1019 320 921 213 c 0
 852 137 653 -30 452 -30 c 0
 221 -30 63 163 63 373 c 0
295 525 m 0
 295 324 455 139 657 139 c 0
 686 139 715 143 745 151 c 1
 801 230 818 320 818 398 c 0
 818 489 795 564 784 586 c 0
 725 703 580 757 457 757 c 0
 425 757 394 753 367 746 c 1
 317 676 295 599 295 525 c 0
EndSplineSet
EndChar

StartChar: e
Encoding: 101 101 114
Width: 1021
VWidth: 0
Flags: HW
LayerCount: 2
Fore
SplineSet
601 167 m 0
 866 167 897 299 960 299 c 0
 967 299 970 296 970 290 c 0
 970 265 915 195 844 132 c 0
 738 39 616 -30 429 -30 c 0
 198 -30 41 157 41 368 c 0
 41 468 76 573 156 666 c 0
 247 772 450 927 646 927 c 0
 836 927 944 814 944 711 c 0
 944 577 703 484 655 479 c 0
 598 474 311 348 311 346 c 0
 311 342 402 167 601 167 c 0
698 604 m 0
 698 611 663 757 443 757 c 0
 401 757 377 753 337 740 c 1
 281 665 266 586 266 525 c 0
 266 468 279 427 282 424 c 1
 696 608 698 603 698 604 c 0
EndSplineSet
EndChar

StartChar: g
Encoding: 103 103 115
Width: 1111
VWidth: 0
Flags: HW
LayerCount: 2
Fore
SplineSet
62 380 m 0
 62 681.852053849 423.86159673 927 639 927 c 0
 697 927 745 912 785 896 c 1
 1003 896 1113 898 1167 898 c 0
 1221 898 1221 896 1221 887 c 0
 1221 846 1069 709 1008 709 c 0
 1001 709 979 710 972 710 c 0
 968 710 969 710 975 696 c 0
 1000 636 1010 585 1010 539 c 0
 1010 360 860 265 860 127 c 0
 860 -40 1082 -82 1082 -248 c 0
 1082 -362 999 -465 892 -551 c 0
 632 -761 404 -768 351 -768 c 0
 85 -768 -9 -536 -9 -518 c 0
 -9 -478 156 -358 213 -358 c 0
 223 -358 223 -361 230 -378 c 0
 277 -493 395 -597 554 -597 c 0
 665 -597 780 -562 801 -536 c 0
 826 -504 848 -458 848 -397 c 0
 848 -248 627 -201 627 -24 c 0
 627 125 776 228 776 377 c 0
 776 564 640 757 436 757 c 0
 413 757 390 754 365 749 c 1
 317 675 295 601 295 531 c 0
 295 354 433 211 607 211 c 0
 631 211 653 218 653 204 c 0
 653 182 527 42 401 42 c 0
 201 42 62 193 62 380 c 0
EndSplineSet
EndChar

StartChar: h
Encoding: 104 104 116
Width: 1108
VWidth: 0
Flags: HW
LayerCount: 2
Fore
SplineSet
392 147 m 0
 392 88 65 -19 25 -19 c 0
 14 -19 8 -17 8 -9 c 0
 8 32 123 42 134 149 c 0
 136 170 138 1037 138 1159 c 0
 138 1245 134 1486 46 1486 c 0
 34 1486 -10 1461 -10 1483 c 0
 -10 1521 148 1664 243 1664 c 0
 321 1664 364 1585 373 1358 c 0
 376 1273 374 758 377 740 c 1
 517 854 639 897 738 897 c 0
 890 897 987 795 1004 695 c 0
 1009 662 1011 574 1011 489 c 0
 1011 394 1009 303 1009 301 c 0
 1009 174 1041 196 1051 190 c 0
 1055 188 1056 185 1056 181 c 0
 1056 141 900 1 847 1 c 0
 782 1 770 127 770 269 c 0
 770 348 774 433 774 502 c 0
 774 651 641 723 537 723 c 0
 421 723 396 666 376 637 c 1
 378 348 375 237 390 156 c 0
 391 152 392 149 392 147 c 0
EndSplineSet
EndChar

StartChar: h.conl
Encoding: 65554 -1 117
Width: 1211
VWidth: 0
Flags: HW
LayerCount: 2
Fore
SplineSet
639 723 m 0
 524 723 500 670 478 637 c 1
 480 353 476 254 492 161 c 0
 493 154 494 148 494 147 c 0
 494 133 445 74 266 21 c 0
 248 16 165 -20 128 -20 c 0
 117 -20 111 -17 111 -9 c 0
 111 30 218 42 235 139 c 0
 237 153 242 1299 242 1324 c 1
 273 1389 418 1480 462 1480 c 0
 474 1480 476 1476 476 1455 c 0
 476 1441 475 1420 475 1387 c 0
 475 1257 478 740 478 740 c 1
 485 740 644 896 834 896 c 0
 998 896 1090 795 1107 695 c 0
 1112 668 1113 586 1113 504 c 0
 1113 402 1111 298 1111 296 c 0
 1111 175 1144 196 1154 190 c 0
 1157 188 1159 186 1159 182 c 0
 1159 143 1004 1 950 1 c 0
 884 1 874 120 874 279 c 0
 874 351 876 430 876 511 c 0
 876 633 760 723 639 723 c 0
EndSplineSet
EndChar

StartChar: dotlessi
Encoding: 305 305 118
Width: 537
VWidth: 0
Flags: HW
LayerCount: 2
Fore
SplineSet
67 707 m 0
 57 707 25 688 25 708 c 0
 25 746 169 896 257 896 c 0
 326 896 374 810 383 701 c 0
 390 610 384 268 393 225 c 0
 404 170 432 205 432 182 c 0
 432 138 276 1 226 1 c 0
 152 1 150 136 150 218 c 2
 150 229 l 2
 150 347 153 494 153 523 c 0
 153 680 84 707 67 707 c 0
EndSplineSet
EndChar

StartChar: dotlessi.conl
Encoding: 65555 -1 119
Width: 537
VWidth: 0
Flags: HW
LayerCount: 2
Fore
SplineSet
226 1 m 0
 161 1 150 92 150 242 c 0
 150 322 153 418 153 526 c 0
 153 593 135 683 52 705 c 1
 -103 706 -110 707 -110 718 c 0
 -110 751 -8 849 63 884 c 0
 89 897 99 899 153 899 c 0
 246 899 290 898 334 840 c 0
 387 770 386 713 388 388 c 0
 389 200 395 191 419 191 c 0
 428 191 432 187 432 181 c 0
 432 142 278 1 226 1 c 0
EndSplineSet
EndChar

StartChar: uni0237
Encoding: 567 567 120
Width: 513
VWidth: 0
Flags: HW
LayerCount: 2
Fore
SplineSet
176 235 m 0
 176 261 177 297 177 339 c 0
 177 490 167 707 82 707 c 0
 68 707 46 695 33 695 c 0
 27 695 24 697 24 704 c 0
 24 743 171 896 271 896 c 0
 383 896 410 758 410 199 c 0
 410 -260 395 -292 366 -365 c 0
 280 -578 -8 -767 -195 -767 c 0
 -327 -767 -379 -658 -379 -656 c 0
 -379 -617 -207 -514 -149 -514 c 0
 -130 -514 -137 -521 -113 -546 c 0
 -73 -588 -20 -598 21 -598 c 0
 54 -598 78 -591 80 -589 c 0
 89 -581 153 -489 163 -356 c 0
 167 -297 176 -1 176 235 c 0
EndSplineSet
EndChar

StartChar: uni0237.conl
Encoding: 65556 -1 121
Width: 513
VWidth: 0
Flags: HW
LayerCount: 2
Fore
SplineSet
176 265 m 0
 176 532 168 705 40 705 c 0
 -101 705 -110 706 -110 718 c 0
 -110 751 -8 849 63 884 c 0
 90 897 106 899 134 899 c 2
 170 899 l 2
 289 899 377 891 400 643 c 0
 407 570 411 395 411 217 c 0
 411 12 406 -198 396 -258 c 0
 365 -442 246 -564 105 -657 c 0
 -38 -752 -135 -767 -195 -767 c 0
 -327 -767 -379 -658 -379 -656 c 0
 -379 -617 -207 -514 -149 -514 c 0
 -130 -514 -137 -521 -113 -546 c 0
 -73 -588 -20 -598 21 -598 c 0
 54 -598 78 -591 80 -589 c 0
 86 -584 157 -491 164 -341 c 0
 170 -220 176 23 176 265 c 0
EndSplineSet
EndChar

StartChar: k
Encoding: 107 107 122
Width: 1073
VWidth: 0
Flags: HW
LayerCount: 2
Fore
SplineSet
392 147 m 0
 392 88 65 -19 25 -19 c 0
 14 -19 8 -17 8 -9 c 0
 8 32 123 42 134 149 c 0
 136 170 138 1037 138 1159 c 0
 138 1245 134 1486 46 1486 c 0
 34 1486 -10 1461 -10 1483 c 0
 -10 1521 148 1664 243 1664 c 0
 321 1664 364 1584 373 1359 c 0
 374 1342 375 993 376 749 c 1
 491 828 640 896 742 896 c 0
 864 896 959 814 959 711 c 0
 959 629 898 534 743 458 c 1
 890 336 961 166 1011 166 c 0
 1015 166 1046 174 1046 161 c 0
 1046 119 881 0 824 0 c 0
 703 0 639 246 455 360 c 0
 441 369 428 373 453 397 c 0
 491 434 588 482 650 494 c 0
 672 498 699 549 699 600 c 0
 699 700 610 764 532 764 c 0
 518 764 427 705 376 630 c 1
 378 353 375 236 390 156 c 0
 391 152 392 149 392 147 c 0
EndSplineSet
EndChar

StartChar: k.conl
Encoding: 65557 -1 123
Width: 1176
VWidth: 0
Flags: HW
LayerCount: 2
Fore
SplineSet
128 -20 m 0
 117 -20 111 -17 111 -9 c 0
 111 30 218 42 235 139 c 0
 237 153 242 1299 242 1324 c 1
 270 1383 418 1481 462 1481 c 0
 468 1481 473 1479 474 1475 c 0
 476 1471 474 1431 477 748 c 1
 504 766 697 896 843 896 c 0
 968 896 1062 814 1062 712 c 0
 1062 629 1000 534 845 458 c 1
 992 336 1064 166 1114 166 c 0
 1118 166 1149 174 1149 161 c 0
 1149 119 984 0 927 0 c 0
 806 0 741 246 557 360 c 0
 543 369 530 373 555 397 c 0
 593 434 691 482 753 494 c 0
 780 499 802 562 802 600 c 0
 802 697 716 764 633 764 c 0
 621 764 530 706 478 628 c 1
 480 280 478 243 492 161 c 0
 493 154 494 148 494 147 c 0
 494 133 445 74 266 21 c 0
 248 16 165 -20 128 -20 c 0
EndSplineSet
EndChar

StartChar: l
Encoding: 108 108 124
Width: 512
VWidth: 0
Flags: HW
LayerCount: 2
Fore
SplineSet
49 1475 m 0
 34 1475 11 1462 -2 1462 c 0
 -7 1462 -11 1464 -11 1471 c 0
 -11 1510 136 1664 238 1664 c 0
 368 1664 369 1440 372 1155 c 0
 381 415 364 244 407 196 c 0
 416 187 428 196 428 182 c 0
 428 137 271 1 222 1 c 0
 142 1 137 246 137 409 c 2
 137 479 l 2
 137 745 141 944 141 1144 c 0
 141 1260 137 1475 49 1475 c 0
EndSplineSet
EndChar

StartChar: l.conl
Encoding: 65558 -1 125
Width: 615
VWidth: 0
Flags: HW
LayerCount: 2
Fore
SplineSet
329 1 m 0
 255 1 237 211 237 941 c 0
 237 1231 240 1321 245 1331 c 0
 268 1380 411 1480 462 1480 c 0
 479 1480 475 1475 476 1414 c 0
 479 1245 480 1132 480 1040 c 0
 480 877 477 781 477 564 c 0
 477 265 506 192 525 192 c 0
 533 192 536 189 536 183 c 0
 536 145 388 1 329 1 c 0
EndSplineSet
EndChar

StartChar: m
Encoding: 109 109 126
Width: 1663
VWidth: 0
Flags: HW
LayerCount: 2
Fore
SplineSet
1329 499 m 2
 1329 665.83125 1216.6734375 724 1133 724 c 0
 1069 724 1006 695 968 660 c 1
 969 338 974 194 974 130 c 0
 974 84 800 -15 745 -15 c 0
 732 -15 728 -10 728 33 c 0
 728 91 735 219 735 495 c 0
 735 648 634 723 546 723 c 0
 427 723 374 664 369 659 c 1
 379 522 369 266 390 156 c 0
 390 154 391 152 391 150 c 0
 391 75 41 -19 25 -19 c 0
 14 -19 8 -17 8 -9 c 0
 8 15 87 57 95 66 c 0
 137 114 138 120 138 402 c 0
 138 670 83 718 46 718 c 0
 34 718 -10 693 -10 715 c 0
 -10 753 148 896 243 896 c 0
 326 896 348 798 360 736 c 1
 449 811 590 896 743 896 c 0
 912 896 956 737 957 736 c 1
 965 736 1130 896 1339 896 c 0
 1462 896 1544 808 1560 695 c 0
 1565 665 1566 584 1566 503 c 0
 1566 405 1564 307 1564 301 c 0
 1564 174 1597 196 1607 190 c 0
 1610 188 1612 186 1612 182 c 0
 1612 143 1458 1 1403 1 c 0
 1337 1 1327 116 1327 275 c 0
 1327 342 1329 417 1329 494 c 2
 1329 499 l 2
EndSplineSet
EndChar

StartChar: m.conl
Encoding: 65559 -1 127
Width: 1663
VWidth: 0
Flags: HW
LayerCount: 2
Fore
SplineSet
1329 499 m 2
 1329 665.83125 1216.6734375 724 1133 724 c 0
 1069 724 1006 695 968 660 c 1
 969 338 974 194 974 130 c 0
 974 84 800 -15 745 -15 c 0
 732 -15 728 -15 728 30 c 0
 728 86 734 213 734 497 c 0
 734 650 637 723 533 723 c 0
 477 723 419 702 372 660 c 1
 380 593 368 272 390 156 c 0
 390 154 391 153 391 151 c 0
 391 79 50 -19 25 -19 c 0
 14 -19 8 -17 8 -9 c 0
 8 16 86 55 96 66 c 0
 137 111 138 113 138 400 c 2
 138 467 l 2
 138 525 130 712 -5 712 c 0
 -32 712 -63 708 -84 708 c 0
 -100 708 -110 710 -110 718 c 0
 -110 755 23 879 89 895 c 0
 94 896 104 896 117 896 c 0
 227 896 283 894 330 812 c 0
 350 777 357 743 360 735 c 1
 368 735 533 896 744 896 c 0
 913 896 956 737 957 736 c 1
 964 736 1133 896 1339 896 c 0
 1459 896 1543 812 1560 695 c 0
 1565 665 1566 584 1566 503 c 0
 1566 405 1564 307 1564 301 c 0
 1564 174 1597 196 1607 190 c 0
 1610 188 1612 186 1612 182 c 0
 1612 143 1458 1 1403 1 c 0
 1337 1 1327 116 1327 275 c 0
 1327 342 1329 417 1329 494 c 2
 1329 499 l 2
EndSplineSet
EndChar

StartChar: n
Encoding: 110 110 128
Width: 1108
VWidth: 0
Flags: HW
LayerCount: 2
Fore
SplineSet
392 147 m 0
 392 88 65 -19 25 -19 c 0
 14 -19 8 -17 8 -9 c 0
 8 15 87 57 95 66 c 0
 137 114 138 120 138 402 c 0
 138 670 83 718 46 718 c 0
 34 718 -10 693 -10 715 c 0
 -10 753 148 896 243 896 c 0
 349 896 355 731 360 731 c 0
 366 731 533 896 731 896 c 0
 898 896 988 791 1004 695 c 0
 1009 662 1011 574 1011 489 c 0
 1011 394 1009 303 1009 301 c 0
 1009 174 1041 196 1051 190 c 0
 1055 188 1056 185 1056 181 c 0
 1056 141 900 1 847 1 c 0
 782 1 770 127 770 269 c 0
 770 348 774 433 774 502 c 0
 774 649 644 723 536 723 c 0
 419 723 389 666 370 641 c 1
 382 453 368 273 390 156 c 0
 391 152 392 149 392 147 c 0
EndSplineSet
EndChar

StartChar: n.conl
Encoding: 65560 -1 129
Width: 1108
VWidth: 0
Flags: HW
LayerCount: 2
Fore
SplineSet
138 400 m 2
 138 467 l 2
 138 525 130 712 -5 712 c 0
 -32 712 -63 708 -84 708 c 0
 -100 708 -110 710 -110 718 c 0
 -110 755 23 879 89 895 c 0
 94 896 104 896 117 896 c 0
 233 896 273 888 312 839 c 0
 347 795 360 731 361 730 c 0
 365 726 527 896 732 896 c 0
 895 896 988 794 1004 695 c 0
 1009 662 1011 574 1011 489 c 0
 1011 394 1009 303 1009 301 c 0
 1009 174 1041 196 1051 190 c 0
 1055 188 1056 185 1056 181 c 0
 1056 141 900 1 847 1 c 0
 782 1 770 127 770 269 c 0
 770 348 774 433 774 502 c 0
 774 653 638 723 536 723 c 0
 422 723 397 674 373 641 c 1
 378 483 370 262 390 156 c 0
 390 154 391 153 391 151 c 0
 391 79 50 -19 25 -19 c 0
 14 -19 8 -17 8 -9 c 0
 8 16 86 55 96 66 c 0
 137 111 138 113 138 400 c 2
EndSplineSet
EndChar

StartChar: eng
Encoding: 331 331 130
Width: 1108
VWidth: 0
Flags: HW
LayerCount: 2
Fore
SplineSet
391 150 m 0
 391 75 41 -19 25 -19 c 0
 14 -19 8 -17 8 -9 c 0
 8 15 87 57 95 66 c 0
 137 114 138 120 138 402 c 0
 138 670 83 718 46 718 c 0
 34 718 -10 693 -10 715 c 0
 -10 753 148 896 243 896 c 0
 348 896 357 733 361 731 c 1
 365 731 534 896 725 896 c 0
 894 896 1008 764 1008 558 c 1
 1008 558 1004 -181 997 -234 c 0
 976 -394 848 -526 745 -609 c 0
 646 -689 514 -767 351 -767 c 0
 207 -767 154 -659 154 -652 c 0
 154 -607 301 -459 349 -459 c 0
 354 -459 354 -459 360 -468 c 0
 412 -549 490 -573 561 -573 c 0
 651 -573 730 -536 736 -526 c 0
 779 -458 781 -373 781 -332 c 2
 781 -321 l 2
 781 -320 774 423 773 442 c 0
 761 590 672 723 537 723 c 0
 426 723 397 678 370 642 c 1
 381 496 368 274 390 156 c 0
 390 154 391 152 391 150 c 0
EndSplineSet
EndChar

StartChar: o
Encoding: 111 111 131
Width: 1112
VWidth: 0
Flags: HW
LayerCount: 2
Fore
SplineSet
1049 524 m 0
 1049 210 672 -30 452 -30 c 0
 235 -30 63 147 63 373 c 0
 63 686 438 927 663 927 c 0
 891 927 1049 733 1049 524 c 0
816 374 m 0
 816 569 672 757 441 757 c 0
 426 757 403 755 367 746 c 1
 317 676 295 599 295 525 c 0
 295 324 455 139 657 139 c 0
 686 139 715 143 745 151 c 1
 794 219 816 297 816 374 c 0
EndSplineSet
EndChar

StartChar: ordmasculine
Encoding: 186 186 132
Width: 722
VWidth: 0
Flags: HW
LayerCount: 2
Fore
SplineSet
722 1263 m 0
 722 1042 420 847 255 847 c 0
 116 847 0 961 -0 1113 c 0
 0 1346 324 1528 455 1528 c 0
 637 1528 722 1388 722 1263 c 0
489 1115 m 0
 489 1248 385 1359 252 1359 c 1
 239 1326 233 1293 233 1261 c 0
 233 1127 338 1017 470 1017 c 1
 483 1050 489 1083 489 1115 c 0
EndSplineSet
EndChar

StartChar: oslash
Encoding: 248 248 133
Width: 1112
VWidth: 0
Flags: HW
LayerCount: 2
Fore
SplineSet
890 851 m 0
 890.034857196 851.023238421 991.973214956 927 1037 927 c 0
 1045 927 1049 924 1049 918 c 0
 1049 891 949 804 949 797 c 0
 949 791 1049 698 1049 524 c 0
 1049 211 674 -30 451 -30 c 0
 309 -30 226 46 222 46 c 0
 221.965142804 45.9767615786 120.026785044 -30 75 -30 c 0
 67 -30 63 -27 63 -21 c 0
 63 6 163 93 163 100 c 0
 163 106 63 199 63 373 c 0
 63 688 440 927 662 927 c 0
 804 927 885 851 890 851 c 0
454 757 m 0
 427 757 398 754 367 746 c 1
 320 681 296 603 296 525 c 0
 296 450 318 374 361 305 c 1
 697 656 l 1
 665 686 579 757 454 757 c 0
656 139 m 0
 684 139 713 143 745 151 c 1
 794 220 816 299 816 376 c 0
 816 455 793 531 751 591 c 1
 415 240 l 1
 459 200 541 139 656 139 c 0
EndSplineSet
EndChar

StartChar: p
Encoding: 112 112 134
Width: 1205
VWidth: 0
Flags: HW
LayerCount: 2
Fore
SplineSet
376 -206 m 2
 376 -419 379 -479 407 -525 c 0
 408 -527 409 -530 409 -533 c 0
 409 -555 367 -580 338 -596 c 0
 304 -615 289 -639 241 -675 c 0
 150 -743 35 -787 -10 -787 c 0
 -22 -787 -29 -783 -29 -777 c 0
 -29 -734 108 -723 133 -547 c 0
 136 -527 138 326 138 379 c 0
 138 498 131 718 46 718 c 0
 34 718 -10 693 -10 715 c 0
 -10 751 144 896 245 896 c 0
 342 896 356 751 364 704 c 1
 478 808 644 927 830 927 c 0
 1080 927 1143 666 1143 526 c 0
 1143 409 1099 316 1038 240 c 0
 988 178 776 -30 549 -30 c 0
 475 -30 425 -14 376 7 c 1
 376 -206 l 2
640 754 m 0
 457 754 399 637 373 598 c 1
 375 547 375 268 375 149 c 1
 436 190 490 216 518 216 c 0
 529 216 623 139 751 139 c 2
 753 139 l 2
 766 139 831 140 845 159 c 0
 889 223 909 303 909 383 c 0
 909 567 804 754 640 754 c 0
EndSplineSet
EndChar

StartChar: p.conl
Encoding: 65561 -1 135
Width: 1205
VWidth: 0
Flags: HW
LayerCount: 2
Fore
SplineSet
376 -205 m 2
 376 -415 379 -479 407 -525 c 0
 409 -527 409 -530 409 -533 c 0
 409 -549 380 -571 323 -604 c 0
 311 -611 273 -653 215 -692 c 0
 126 -751 29 -787 -11 -787 c 0
 -23 -787 -29 -783 -29 -777 c 0
 -29 -737 113 -716 133 -544 c 0
 135 -528 139 457 139 457 c 2
 139 566 112 712 4 712 c 0
 -33 712 -66 708 -86 708 c 0
 -102 708 -110 710 -110 718 c 0
 -110 755 23 879 89 895 c 1
 89 895 111 897 141 897 c 0
 257 897 334 876 366 704 c 1
 468 802 645 927 830 927 c 0
 1080 927 1143 665 1143 527 c 0
 1143 411 1100 318 1036 238 c 0
 960 144 752 -30 551 -30 c 0
 481 -30 432 -16 376 8 c 1
 376 -205 l 2
909 386 m 0
 909 571 802 754 640 754 c 0
 575 754 506 733 469 708 c 0
 431 682 395 629 374 597 c 1
 376 147 l 1
 398 163 478 216 522 216 c 0
 534 216 617 140 750 140 c 0
 778 140 807 143 839 151 c 1
 887 219 909 303 909 386 c 0
EndSplineSet
EndChar

StartChar: thorn
Encoding: 254 254 136
Width: 1205
VWidth: 0
Flags: HW
LayerCount: 2
Fore
SplineSet
377 -199 m 2
 377 -436 380 -480 407 -525 c 0
 408 -527 409 -530 409 -533 c 0
 409 -555 367 -580 338 -596 c 0
 304 -615 289 -639 241 -675 c 0
 150 -743 35 -787 -10 -787 c 0
 -22 -787 -29 -783 -29 -777 c 0
 -29 -733 108 -725 133 -547 c 0
 134 -542 138 160 138 1136 c 0
 138 1280 129 1486 46 1486 c 0
 34 1486 -10 1461 -10 1483 c 0
 -10 1521 148 1664 243 1664 c 0
 321 1664 363 1585 373 1358 c 0
 374 1326 375 711 375 711 c 1
 468 801 643 927 838 927 c 0
 1051 927 1143 706 1143 527 c 0
 1143 422 1106 324 1036 237 c 0
 959 141 748 -30 555 -30 c 0
 444 -30 378 10 377 8 c 1
 377 -199 l 2
640 754 m 0
 462 754 405 643 375 594 c 1
 377 147 l 1
 439 188 492 216 521 216 c 0
 536 216 618 140 751 140 c 0
 779 140 808 143 840 151 c 1
 883 215 909 282 909 370 c 0
 909 578 801 754 640 754 c 0
EndSplineSet
EndChar

StartChar: q
Encoding: 113 113 137
Width: 1188
VWidth: 0
Flags: HW
LayerCount: 2
Fore
SplineSet
1053 436 m 2
 1053 -92 l 2
 1053 -429 1056 -444 1082 -489 c 0
 1084 -492 1084 -495 1084 -498 c 0
 1084 -523 1039 -551 1003 -570 c 0
 969 -589 932 -641 849 -695 c 0
 766 -750 667 -787 627 -787 c 0
 615 -787 609 -784 609 -777 c 0
 609 -734 780 -699 809 -522 c 0
 812 -508 812 -91 812 158 c 1
 742 99 577 -30 413 -30 c 0
 203 -30 63 139 63 330 c 0
 63 660 440 896 650 896 c 0
 715 896 794 879 876 823 c 1
 905 838 1003 889 1087 889 c 0
 1102 889 1108 885 1108 879 c 0
 1108 870 1094 855 1080 844 c 0
 1056 824 1053 807 1053 436 c 2
812 398 m 2
 812 531 811 677 803 684 c 1
 800 684 727 636 689 636 c 0
 664 636 608 726 434 726 c 0
 410 726 379 720 373 718 c 0
 361 714 297 614 297 481 c 0
 297 280 450 143 608 143 c 0
 730 143 787 223 812 260 c 1
 812 398 l 2
EndSplineSet
EndChar

StartChar: r
Encoding: 114 114 138
Width: 928
VWidth: 0
Flags: HW
LayerCount: 2
Fore
SplineSet
566 723 m 0
 431 723 373 601 373 600 c 2
 373 600 377 301 379 268 c 0
 383 180 402 156 402 147 c 0
 402 127 325 61 161 19 c 0
 141 13 60 -19 25 -19 c 0
 15 -19 8 -16 8 -9 c 0
 8 17 85 55 95 66 c 0
 137 114 138 120 138 402 c 0
 138 670 83 718 46 718 c 0
 34 718 -10 693 -10 715 c 0
 -10 753 148 896 243 896 c 0
 316 896 349 825 365 701 c 1
 427 759 604 896 763 896 c 0
 862 896 910 800 977 800 c 0
 982 800 1008 806 1008 794 c 0
 1008 757 853 631 773 631 c 0
 685 631 638 723 566 723 c 0
EndSplineSet
EndChar

StartChar: r.conl
Encoding: 65562 -1 139
Width: 928
VWidth: 0
Flags: HW
LayerCount: 2
Fore
SplineSet
138 400 m 2
 138 467 l 2
 138 525 130 712 -5 712 c 0
 -32 712 -63 708 -84 708 c 0
 -100 708 -110 710 -110 718 c 0
 -110 755 23 879 89 895 c 0
 94 896 104 896 117 896 c 0
 227 896 283 894 330 812 c 0
 364 753 364 703 367 703 c 0
 373 703 564 896 767 896 c 0
 861 896 911 800 977 800 c 0
 982 800 1008 806 1008 794 c 0
 1008 757 853 631 773 631 c 0
 686 631 638 723 567 723 c 0
 452 723 399 641 374 599 c 1
 377 303 374 224 398 161 c 0
 400 155 402 148 402 147 c 0
 402 125 315 65 216 34 c 0
 158 16 147 17 119 6 c 0
 76 -12 45 -19 27 -19 c 0
 15 -19 8 -16 8 -9 c 0
 8 16 86 55 96 66 c 0
 137 111 138 113 138 400 c 2
EndSplineSet
EndChar

StartChar: r.round
Encoding: 65563 -1 140
Width: 678
VWidth: 0
Flags: HW
LayerCount: 2
Fore
SplineSet
692 199 m 0
 692 169 542 -18 341 -18 c 0
 273 -18 185 -6 16 -6 c 0
 -74 -6 -118 -8 -140 -8 c 0
 -161 -8 -161 -6 -161 1 c 0
 -161 29 -68 135 43 180 c 0
 296 283 326 330 355 388 c 0
 375 428 391 480 391 540 c 0
 391 665 277 749 150 749 c 0
 45 749 28 714 -12 685 c 0
 -38 665 -81 641 -100 641 c 0
 -106 641 -110 644 -110 650 c 0
 -110 690 122 936 347 936 c 0
 486 936 610 846 610 711 c 0
 610 605 571 413 233 182 c 1
 535 174 452 170 539 170 c 0
 641 170 639 208 681 208 c 0
 687 208 692 206 692 199 c 0
EndSplineSet
EndChar

StartChar: s
Encoding: 115 115 141
Width: 955
VWidth: 0
Flags: HW
LayerCount: 2
Fore
SplineSet
257 305 m 0
 283 305 332 139 559 139 c 0
 620 139 666 152 666 152 c 1
 668 154 672 175 672 191 c 0
 672 475 100 274 100 577 c 0
 100 618 115 658 145 696 c 0
 187 750 365 927 618 927 c 0
 784 927 876 811 876 799 c 0
 876 763 721 641 660 641 c 0
 652 641 645 643 641 648 c 0
 568 739 464 757 398 757 c 0
 337 757 334 755 334 735 c 2
 334 727 l 2
 334 447 905 645 905 344 c 0
 905 293 893 208 715 88 c 0
 605 14 488 -30 337 -30 c 0
 127 -30 37 137 37 145 c 0
 37 184 201 305 257 305 c 0
EndSplineSet
EndChar

StartChar: t
Encoding: 116 116 142
Width: 853
VWidth: 0
Flags: HW
LayerCount: 2
Fore
SplineSet
758 897 m 2
 869 897 869 896 869 888 c 0
 869 852 723 739 657 728 c 0
 639 725 442 716 440 715 c 1
 435 336 l 1
 435 211 529 150 605 150 c 0
 756 150 787 254 844 254 c 0
 850 254 853 251 853 245 c 0
 853 196 661 -32 438 -32 c 0
 300 -32 196 56 196 192 c 0
 196 224 207 397 207 704 c 1
 90 696 31 692 2 692 c 0
 -22 692 -26 695 -26 702 c 0
 -26 740 101 877 159 895 c 0
 167 897 172 896 201 896 c 1
 186 1048 158 1023 147 1034 c 0
 146 1035 145 1038 145 1040 c 0
 145 1076 303 1204 364 1204 c 0
 427 1204 433 1079 437 897 c 1
 758 897 l 2
EndSplineSet
EndChar

StartChar: t.conl
Encoding: 65564 -1 143
Width: 853
VWidth: 0
Flags: HW
LayerCount: 2
Fore
SplineSet
844 254 m 0
 850 254 853 251 853 245 c 0
 853 196 661 -32 438 -32 c 0
 300 -32 196 56 196 192 c 0
 196 241 207 387 207 679 c 0
 207 709 207 716 206 716 c 0
 177 716 -30 709 -89 709 c 0
 -106 709 -110 710 -110 719 c 0
 -110 753 2 859 73 889 c 0
 88 896 101 897 123 897 c 0
 141 897 165 896 201 896 c 1
 186 1048 158 1023 147 1034 c 0
 146 1035 145 1038 145 1040 c 0
 145 1076 303 1204 364 1204 c 0
 422 1204 433 1107 437 896 c 1
 650 896 758 898 813 898 c 0
 869 898 869 896 869 888 c 0
 869 847 715 737 657 727 c 0
 642 724 516 724 439 721 c 1
 439 366 435 393 435 335 c 0
 435 211 528 150 605 150 c 0
 756 150 787 254 844 254 c 0
EndSplineSet
EndChar

StartChar: t.conr
Encoding: 65565 -1 144
Width: 828
VWidth: 0
Flags: HW
LayerCount: 2
Fore
SplineSet
208 657 m 0
 208 697 209 697 203 697 c 0
 73 697 17 692 -7 692 c 0
 -23 692 -25 694 -25 702 c 0
 -25 742 99 877 159 895 c 0
 167 897 172 896 201 896 c 1
 186 1048 158 1023 147 1034 c 0
 146 1035 145 1038 145 1040 c 0
 145 1076 303 1204 364 1204 c 0
 427 1204 433 1078 437 896 c 1
 646 896 768 897 839 897 c 0
 938 897 938 895 938 887 c 0
 938 849 800 723 738 710 c 0
 715 705 443 705 440 702 c 0
 439 701 439 698 439 692 c 0
 439 680 440 654 440 599 c 0
 440 441 434 389 434 336 c 0
 434 212 528 150 605 150 c 0
 756 150 787 254 844 254 c 0
 850 254 853 251 853 245 c 0
 853 196 661 -32 438 -32 c 0
 300 -32 196 57 196 192 c 1
 196 192 208 538 208 657 c 0
EndSplineSet
EndChar

StartChar: t.conb
Encoding: 65566 -1 145
Width: 828
VWidth: 0
Flags: HW
LayerCount: 2
Fore
SplineSet
844 254 m 0
 850 254 853 251 853 245 c 0
 853 196 661 -32 438 -32 c 0
 300 -32 196 56 196 192 c 0
 196 225 207 399 207 709 c 1
 66 709 -11 708 -55 708 c 0
 -110 708 -110 710 -110 718 c 0
 -110 755 23 879 89 895 c 0
 95 896 120 896 147 896 c 2
 201 896 l 1
 186 1048 158 1023 147 1034 c 0
 146 1035 145 1038 145 1040 c 0
 145 1076 303 1204 364 1204 c 0
 422 1204 433 1107 437 896 c 1
 657 896 781 897 850 897 c 0
 938 897 938 895 938 887 c 0
 938 850 805 726 739 710 c 1
 730 709 693 708 647 708 c 0
 580 708 493 709 439 709 c 1
 439 354 435 410 435 335 c 0
 435 211 528 150 605 150 c 0
 756 150 787 254 844 254 c 0
EndSplineSet
EndChar

StartChar: u
Encoding: 117 117 146
Width: 1147
VWidth: 0
Flags: HW
LayerCount: 2
Fore
SplineSet
586 140 m 0
 701 140 771 256 771 387 c 0
 771 655 768 690 743 733 c 0
 740 737 739 742 739 743 c 0
 739 778 925 889 1045 889 c 0
 1061 889 1066 886 1066 880 c 0
 1066 867 1033 842 1028 830 c 0
 1018 806 1009 830 1009 319 c 0
 1009 137 1080 199 1080 172 c 0
 1080 131 922 1 865 1 c 0
 781 1 776 114 773 172 c 1
 635 28 504 -29 397 -29 c 0
 242 -29 137 90 137 230 c 0
 137 304 145 459 145 552 c 0
 145 582 144 606 142 619 c 0
 132 672 96 708 65 708 c 0
 54 708 20 689 20 709 c 0
 20 748 171 896 252 896 c 0
 329 896 367 818 374 757 c 0
 377 728 378 662 378 593 c 0
 378 489 376 379 376 374 c 0
 376 253 465 140 586 140 c 0
EndSplineSet
EndChar

StartChar: u.conl
Encoding: 65567 -1 147
Width: 1147
VWidth: 0
Flags: HW
LayerCount: 2
Fore
SplineSet
136 898 m 2
 149 898 l 2
 230 898 278 898 324 855 c 0
 370 811 378 774 378 647 c 0
 378 584 376 498 376 378 c 0
 376 238 476 140 586 140 c 0
 701 140 771 256 771 387 c 0
 771 655 768 690 743 733 c 0
 740 737 739 742 739 743 c 0
 739 778 925 889 1045 889 c 0
 1061 889 1066 886 1066 880 c 0
 1066 867 1033 842 1028 830 c 0
 1018 806 1009 830 1009 319 c 0
 1009 137 1080 199 1080 172 c 0
 1080 131 922 1 865 1 c 0
 781 1 776 114 773 172 c 1
 635 28 503 -29 396 -29 c 0
 241 -29 137 89 137 230 c 0
 137 369 146 470 146 543 c 0
 146 664 122 706 -6 706 c 2
 -53 706 l 2
 -86 706 -110 707 -110 718 c 0
 -110 751 -8 849 63 884 c 0
 90 897 103 898 136 898 c 2
EndSplineSet
EndChar

StartChar: v
Encoding: 118 118 148
Width: 1136
VWidth: 0
Flags: HW
LayerCount: 2
Fore
SplineSet
818 668 m 0
 818 740 790 754 771 754 c 0
 762 754 724 734 724 754 c 0
 724 792 871 927 971 927 c 0
 1022 927 1060 892 1060 792 c 0
 1060 509 704 129 618 57 c 0
 561 9 486 -32 456 -32 c 0
 442 -32 442 -26 437 -8 c 0
 347 300 201 541 159 600 c 0
 134 636 91 688 46 688 c 0
 33 688 12 676 12 694 c 0
 12 732 140 896 229 896 c 0
 308 896 374 783 452 632 c 0
 580 386 615 212 620 212 c 1
 620 212 818 476 818 668 c 0
EndSplineSet
EndChar

StartChar: v.conl
Encoding: 65568 -1 149
Width: 1136
VWidth: 0
Flags: HW
LayerCount: 2
Fore
SplineSet
818 671 m 0
 818 720 804 754 771 754 c 0
 762 754 724 734 724 754 c 0
 724 792 871 927 971 927 c 0
 1022 927 1060 892 1060 792 c 0
 1060 509 704 128 618 57 c 0
 560 9 486 -32 456 -32 c 0
 442 -32 443 -28 433 5 c 0
 348 287 202 558 128 634 c 0
 64 699 36 682 -42 698 c 0
 -108 712 -110 708 -110 718 c 0
 -110 753 6 862 78 891 c 0
 92 896 115 899 140 899 c 0
 280 899 330 887 479 577 c 0
 547 437 586 324 620 212 c 1
 620 212 818 478 818 671 c 0
EndSplineSet
EndChar

StartChar: w
Encoding: 119 119 150
Width: 1723
VWidth: 0
Flags: HW
LayerCount: 2
Fore
SplineSet
1653 793 m 0
 1653 447 1173 -32 1043 -32 c 0
 1018 -32 1040 -29 934 250 c 0
 923 278 924 279 923 279 c 0
 915 279 830 175 631 32 c 0
 577 -6 525 -33 501 -33 c 0
 470 -33 487 41 323 347 c 0
 238 506 132 688 51 688 c 0
 36 688 15 676 15 694 c 0
 15 728 141 896 232 896 c 0
 294 896 352 840 470 632 c 0
 542 505 608 370 673 186 c 1
 690 170 l 1
 803 286 874 401 874 401 c 1
 874 401 766 688 701 688 c 0
 684 688 674 682 674 696 c 0
 674 738 811 896 879 896 c 0
 933 896 975 817 1032 685 c 0
 1103 519 1156 376 1210 200 c 1
 1360 412 1412 573 1412 666 c 0
 1412 723 1393 754 1363 754 c 0
 1352 754 1315 734 1315 754 c 0
 1315 790 1465 927 1555 927 c 0
 1630 927 1653 867 1653 793 c 0
EndSplineSet
EndChar

StartChar: w.conl
Encoding: 65569 -1 151
Width: 1723
VWidth: 0
Flags: HW
LayerCount: 2
Fore
SplineSet
1653 793 m 0
 1653 447 1173 -32 1043 -32 c 0
 1018 -32 1040 -29 934 250 c 0
 923 278 924 279 923 279 c 0
 915 279 830 175 631 32 c 0
 584 -1 527 -33 501 -33 c 0
 479 -33 493 -11 395 202 c 0
 345 310 280 429 218 527 c 0
 121 679 61 687 20 689 c 0
 -26 692 -49 701 -95 708 c 0
 -104 709 -110 710 -110 718 c 0
 -110 755 22 878 91 895 c 0
 100 897 113 898 136 898 c 0
 264 898 311 897 432 696 c 0
 597 421 672 188 672 188 c 2
 673 186 683 177 690 170 c 1
 803 286 874 401 874 401 c 1
 874 401 766 688 701 688 c 0
 684 688 674 682 674 696 c 0
 674 738 811 896 879 896 c 0
 933 896 975 817 1032 685 c 0
 1103 519 1156 376 1210 200 c 1
 1360 412 1412 573 1412 666 c 0
 1412 723 1393 754 1363 754 c 0
 1352 754 1315 734 1315 754 c 0
 1315 790 1465 927 1555 927 c 0
 1630 927 1653 867 1653 793 c 0
EndSplineSet
EndChar

StartChar: x
Encoding: 120 120 152
Width: 1021
VWidth: 0
Flags: HW
LayerCount: 2
Fore
SplineSet
68 686 m 0
 46 686 30 677 30 693 c 0
 30 734 166 896 261 896 c 0
 344 896 410 800 527 656 c 0
 543 636 548 626 553 626 c 0
 558 626 564 639 585 663 c 0
 739 838 903 927 982 927 c 0
 1070 927 1096 855 1096 855 c 1
 1096 816 933 694 874 694 c 0
 855 694 846 750 787 750 c 0
 767 750 765 747 753 734 c 0
 658 630 641 575 627 531 c 1
 772 349 861 210 962 210 c 0
 986 210 1001 221 1001 204 c 0
 1001 170 871 0 767 0 c 0
 693 0 630 87 578 156 c 0
 578 157 487 276 486 276 c 0
 482 276 350 98 164 5 c 0
 115 -20 75 -29 43 -29 c 0
 -47 -29 -74 43 -74 45 c 0
 -74 85 90 205 147 205 c 0
 167 205 177 147 240 147 c 0
 242 147 245 146 248 146 c 0
 263 146 292 157 368 273 c 0
 391 308 394 321 411 371 c 1
 229 597 151 686 68 686 c 0
EndSplineSet
EndChar

StartChar: y
Encoding: 121 121 153
Width: 1136
VWidth: 0
Flags: HW
LayerCount: 2
Fore
SplineSet
19 693 m 0
 19 733 150 896 236 896 c 0
 334 896 427 753 499 649 c 0
 666 408 728 233 732 233 c 0
 733 233 854 485 854 650 c 0
 854 738 821 752 799 752 c 0
 784 752 762 742 749 742 c 0
 743 742 739 744 739 751 c 0
 739 786 893 928 997 928 c 0
 1050 928 1091 890 1091 783 c 0
 1091 572 914 111 621 -272 c 0
 484 -450 366 -599 143 -710 c 0
 65 -748 7 -767 -41 -767 c 0
 -98 -767 -140 -735 -140 -728 c 0
 -140 -685 27 -566 80 -566 c 0
 93 -566 134 -608 168 -608 c 0
 181 -608 371 -379 499 -187 c 0
 533 -137 580 -60 580 -57 c 0
 580 -21 225 688 56 688 c 0
 39 688 19 677 19 693 c 0
EndSplineSet
EndChar

StartChar: y.conl
Encoding: 65570 -1 154
Width: 1136
VWidth: 0
Flags: HW
LayerCount: 2
Fore
SplineSet
750 742 m 0
 743 742 740 745 740 750 c 0
 740 786 893 928 997 928 c 0
 1050 928 1091 891 1091 783 c 0
 1091 572 914 111 621 -272 c 0
 484 -450 366 -599 143 -710 c 0
 65 -748 7 -767 -41 -767 c 0
 -98 -767 -140 -735 -140 -728 c 0
 -140 -685 27 -566 80 -566 c 0
 93 -566 134 -608 168 -608 c 0
 181 -608 417 -330 581 -58 c 1
 540 57 373 381 210 573 c 0
 78 729 30 671 -104 710 c 0
 -108 711 -110 713 -110 717 c 0
 -110 750 19 878 92 895 c 0
 100 897 120 898 142 898 c 0
 273 898 326 884 440 731 c 0
 645 456 729 233 732 233 c 0
 733 233 854 484 854 650 c 0
 854 738 821 752 799 752 c 0
 785 752 763 742 750 742 c 0
EndSplineSet
EndChar

StartChar: z
Encoding: 122 122 155
Width: 1090
VWidth: 0
Flags: HW
LayerCount: 2
Fore
SplineSet
988 907 m 0
 1014 907 1035 902 1035 887 c 0
 1035 864 985 818 948 788 c 1
 398 178 l 1
 441 178 485 184 832 187 c 0
 932 188 957 189 986 209 c 0
 1023 234 1048 243 1061 243 c 0
 1068 243 1071 241 1071 237 c 0
 1071 191 895 24 751 3 c 0
 743 2 643 1 527 1 c 0
 360 1 160 2 157 2 c 0
 113 -5 80 -9 57 -9 c 0
 24 -9 11 -2 11 10 c 0
 11 29 45 61 94 101 c 1
 645 714 l 1
 443 712 232 715 79 706 c 1
 71 702 43 686 28 686 c 0
 22 686 18 688 18 695 c 0
 18 734 160 868 253 891 c 0
 271 896 272 897 360 897 c 0
 440 897 593 896 896 896 c 1
 906 898 952 907 988 907 c 0
EndSplineSet
EndChar

StartChar: z.conl
Encoding: 65571 -1 156
Width: 1090
VWidth: 0
Flags: HW
LayerCount: 2
Fore
SplineSet
988 906 m 0
 1021 906 1035 899 1035 886 c 0
 1035 863 991 822 937 779 c 1
 398 178 l 1
 441 178 485 184 832 187 c 0
 932 188 957 189 986 209 c 0
 1023 234 1048 243 1061 243 c 0
 1068 243 1071 241 1071 237 c 0
 1071 191 895 24 751 3 c 0
 743 2 643 1 527 1 c 0
 360 1 160 2 157 2 c 0
 150 1 99 -9 59 -9 c 0
 32 -9 11 -5 11 10 c 0
 11 27 49 60 84 93 c 5
 648 717 l 5
 541 716 -17 709 -84 709 c 0
 -105 709 -109 708 -109 718 c 0
 -109 756 22 878 88 895 c 0
 91 896 91 896 226 896 c 2
 897 896 l 1
 936 903 967 906 988 906 c 0
EndSplineSet
EndChar

StartChar: interpunctdot
Encoding: 65572 -1 157
Width: 0
VWidth: 0
Flags: HW
LayerCount: 2
Fore
SplineSet
-0 172 m 0
 26 172 51 129 145 41 c 0
 163 24 171 12 171 0 c 0
 171 -29 122 -57 41 -144 c 0
 24 -162 12 -170 0 -170 c 0
 -29 -170 -57 -122 -145 -40 c 0
 -163 -23 -172 -11 -172 1 c 0
 -172 13 -163 24 -145 41 c 0
 -52 128 -26 172 -0 172 c 0
EndSplineSet
EndChar

StartChar: bullet
Encoding: 8226 8226 158
Width: 635
VWidth: 0
Flags: HW
LayerCount: 2
Fore
SplineSet
316 1109 m 0
 342 1109 351 1072 571 865 c 0
 593 844 594 842 594 832 c 0
 594 808 559 801 352 581 c 0
 330 557 327 555 317 555 c 0
 294 555 280 596 64 799 c 0
 42 820 41 822 41 832 c 0
 41 856 77 865 283 1084 c 0
 300 1102 306 1109 316 1109 c 0
EndSplineSet
EndChar

StartChar: interpunctcomma
Encoding: 65573 -1 159
Width: 0
VWidth: 0
Flags: HW
LayerCount: 2
Fore
SplineSet
164 75 m 0
 164 -104 -89 -263 -150 -263 c 0
 -158 -263 -163 -260 -163 -254 c 0
 -163 -235 -125 -200 -102 -181 c 0
 -92 -173 -70 -129 -70 -74 c 0
 -70 -20 -91 45 -163 99 c 1
 -163 151 4 264 59 264 c 0
 79 264 164 186 164 75 c 0
EndSplineSet
EndChar

StartChar: interpunctinvcomma
Encoding: 65574 -1 160
Width: 0
VWidth: 0
Flags: HW
LayerCount: 2
Fore
SplineSet
-164 -77 m 0
 -164 112 92 263 151 263 c 0
 159 263 163 260 163 255 c 0
 163 236 125 200 102 181 c 0
 92 173 70 129 70 74 c 0
 70 21 91 -44 163 -98 c 1
 163 -143 12 -260 -64 -264 c 1
 -125 -222 -164 -154 -164 -77 c 0
EndSplineSet
EndChar

StartChar: parenleft
Encoding: 40 40 161
Width: 635
VWidth: 0
Flags: HW
LayerCount: 2
Fore
SplineSet
675 -308 m 0
 675 -341 526 -468 447 -468 c 1
 238 -318 140 103 140 520 c 0
 140 783 176 1281 442 1529 c 0
 520 1602 628 1666 663 1666 c 0
 670 1666 675 1663 675 1657 c 0
 675 1619.31305603 603.674493055 1599.04346559 543 1497 c 0
 431 1308 374 991 374 672 c 0
 374 261 469 -152 665 -296 c 0
 676 -304 675 -306 675 -308 c 0
EndSplineSet
EndChar

StartChar: parenright
Encoding: 41 41 162
Width: 635
VWidth: 0
Flags: HW
LayerCount: 2
Fore
SplineSet
-40 1505 m 0
 -40 1545 125 1666 181 1666 c 0
 243.8 1666 495 1368.70625 495 675 c 4
 495 362 439 48 327 -157 c 0
 221 -350 24 -468 -27 -468 c 0
 -36 -468 -40 -465 -40 -460 c 0
 -40 -442 4 -397 38 -373 c 0
 79 -343 261 -68 261 519 c 0
 261 854 190 1329 -30 1493 c 0
 -38 1499 -40 1501 -40 1505 c 0
EndSplineSet
EndChar

StartChar: less
Encoding: 60 60 163
Width: 1018
VWidth: 0
Flags: HW
LayerCount: 2
Fore
SplineSet
891 46 m 0
 891 10 715 -57 650 -57 c 0
 642 -57 635 -55 631 -53 c 0
 627 -51 124 398 122 402 c 0
 121 404 120 406 120 410 c 0
 120 450 200 579 254 619 c 1
 254 619 867 1013 881 1013 c 0
 887 1013 890 1008 890 1001 c 0
 890 962 815 837 756 793 c 0
 723 769 367 548 367 544 c 0
 367 540 374 536 388 498 c 1
 887 53 891 50 891 46 c 0
EndSplineSet
EndChar

StartChar: greater
Encoding: 62 62 164
Width: 1018
VWidth: 0
Flags: HW
LayerCount: 2
Fore
SplineSet
128 851 m 0
 128 885 296 953 366 953 c 0
 374 953 381 952 386 950 c 0
 390 948 827 578 833 571 c 0
 836 567 837 561 837 554 c 0
 837 504 773 389 726 344 c 0
 718 336 165 -107 152 -116 c 0
 146 -120 142 -122 138 -122 c 0
 132 -122 129 -116 129 -107 c 0
 129 -65 185 54 242 107 c 0
 246 111 603 396 608 400 c 0
 609 401 588 425 572 466 c 0
 565 484 128 840 128 851 c 0
EndSplineSet
EndChar

StartChar: hyphen
Encoding: 45 45 165
Width: 760
VWidth: 0
Flags: HW
LayerCount: 2
Fore
SplineSet
304 542 m 2
 696 542 l 2
 770 542 767 542 767 533 c 0
 767 496 635 372 569 356 c 0
 563 354 469 354 293 354 c 2
 62 354 l 2
 -2 354 -7 355 -7 364 c 0
 -7 401 125 525 191 541 c 0
 194 542 194 542 304 542 c 2
EndSplineSet
EndChar

StartChar: endash
Encoding: 8211 8211 166
Width: 896
VWidth: 0
Flags: HW
LayerCount: 2
Fore
SplineSet
369 354 m 2
 54 354 l 2
 -110 354 -110 355 -110 365 c 0
 -110 401 25 525 89 541 c 0
 94 542 935 544 935 544 c 2
 1002 544 1006 542 1006 533 c 0
 1006 496 873 372 807 356 c 0
 801 355 588 354 369 354 c 2
EndSplineSet
EndChar

StartChar: emdash
Encoding: 8212 8212 167
Width: 1343
VWidth: 0
Flags: HW
LayerCount: 2
Fore
SplineSet
476 354 m 0
 -110.9 354 -111 349.0625 -111 366 c 0
 -111 405 33 527 89 541 c 0
 95 542 321 542 586 542 c 0
 974 542 1448 542 1449 541 c 0
 1453 539 1454 536 1454 532 c 0
 1454 494 1316 371 1255 356 c 0
 1249 355 843 354 476 354 c 0
EndSplineSet
EndChar

StartChar: quotesingle
Encoding: 39 39 168
Width: 476
VWidth: 0
Flags: HW
LayerCount: 2
Fore
SplineSet
115 1392 m 0
 115 1434 291 1535 345 1535 c 0
 355 1535 361 1532 361 1524 c 0
 361 1504 318 1215 311 1187 c 0
 292 1113 206 978 172 978 c 0
 163 978 163 983 151 1070 c 0
 131 1219 115 1375 115 1392 c 0
EndSplineSet
EndChar

StartChar: quotedbl
Encoding: 34 34 169
Width: 713
VWidth: 0
Flags: HW
LayerCount: 2
Fore
SplineSet
394 1384 m 0
 394 1435 567 1543 615 1543 c 0
 623 1543 627 1540 627 1534 c 0
 627 1517 589 1209 584 1190 c 0
 562 1101 472 978 444 978 c 0
 435 978 434 978 413 1180 c 0
 409 1221 394 1364 394 1384 c 0
137 978 m 0
 117 978 87 1378 87 1383 c 0
 87 1431 261 1544 308 1544 c 0
 315 1544 320 1541 320 1535 c 0
 320 1515 284 1208 273 1175 c 0
 244 1083 164 978 137 978 c 0
EndSplineSet
EndChar

StartChar: exclam
Encoding: 33 33 170
Width: 635
VWidth: 0
Flags: HW
LayerCount: 2
Fore
SplineSet
317 295 m 0
 336 295 334 293 448 179 c 0
 464 164 471 156 471 141 c 0
 471 123 476 132 355 11 c 0
 340 -4 329 -12 318 -12 c 0
 294 -12 266 25 187 104 c 0
 172 119 163 130 163 141 c 0
 163 151 171 163 187 179 c 0
 303 295 298 295 317 295 c 0
435 1664 m 0
 448 1664 449 1661 449 1652 c 0
 449 1605 412 606 408 552 c 0
 403 479 300 326 266 326 c 0
 252 326 254 365 230 1047 c 0
 225 1199 217 1444 216 1509 c 1
 249 1575 393 1664 435 1664 c 0
EndSplineSet
EndChar

StartChar: exclamdown
Encoding: 161 161 171
Width: 635
VWidth: 0
Flags: HW
LayerCount: 2
Fore
SplineSet
198 1 m 0
 188 1 185 3 185 13 c 0
 185 123 227 1113 227 1113 c 1
 232 1186 335 1338 369 1339 c 0
 384 1339 376 1299 388 1084 c 0
 394 976 418 266 419 156 c 1
 387 92 245 1 198 1 c 0
317 1677 m 0
 336 1677 334 1675 448 1561 c 0
 463 1547 471 1536 471 1525 c 0
 471 1501 435 1473 355 1393 c 0
 334 1371 329 1370 317 1370 c 2
 314 1370 l 2
 300 1370 299 1374 187 1486 c 0
 172 1501 163 1512 163 1523 c 0
 163 1533 171 1545 187 1561 c 0
 303 1677 298 1677 317 1677 c 0
EndSplineSet
EndChar

StartChar: question
Encoding: 63 63 172
Width: 1061
VWidth: 0
Flags: HW
LayerCount: 2
Fore
SplineSet
530 295 m 0
 550 295 548 292 661 179 c 0
 679 162 684 156 684 141 c 0
 684 123 681 123 576 18 c 0
 557 -2 545 -13 532 -13 c 0
 508 -13 480 23 400 103 c 0
 384 118 376 130 376 141 c 0
 376 153 384 164 400 179 c 0
 515 294 511 295 530 295 c 0
595 634 m 0
 595 491.939222845 731 494.483621383 731 480 c 0
 731 449 577 319 510 319 c 0
 464 319 361 365 361 481 c 0
 361 792 790 928 790 1207 c 0
 790 1373 642 1494 455 1494 c 0
 408 1494 359 1486 309 1470 c 1
 283 1429 271 1383 271 1340 c 0
 271 1256 318 1179 404 1150 c 0
 417 1146 420 1144 420 1139 c 0
 420 1098 253 978 199 978 c 0
 171 978 37 1037 37 1187 c 0
 37 1434 416 1664 657 1664 c 0
 909 1664 1024 1500 1024 1357 c 0
 1024 1046 595 906 595 634 c 0
EndSplineSet
EndChar

StartChar: questiondown
Encoding: 191 191 173
Width: 1061
VWidth: 0
Flags: HW
LayerCount: 2
Fore
SplineSet
700 1184 m 0
 700 873 271 737 271 458 c 0
 271 292 419 171 606 171 c 0
 653 171 702 179 752 195 c 1
 778 236 790 281 790 324 c 0
 790 408 743 485 656 514 c 0
 643 518 641 520 641 525 c 0
 641 567 808 686 860 686 c 0
 891 686 1024 627 1024 476 c 0
 1024 400 993 337 954 287 c 0
 889 203 666 1 392 1 c 0
 172 1 37 150 37 307 c 0
 37 618 466 758 466 1030 c 0
 466 1172 330 1170 330 1186 c 0
 330 1222 492 1346 550 1346 c 0
 598 1346 700 1299 700 1184 c 0
530 1677 m 0
 550 1677 548 1674 661 1561 c 0
 679 1544 684 1538 684 1523 c 0
 684 1505 681 1506 576 1401 c 0
 556 1380 545 1369 532 1369 c 0
 509 1369 481 1405 400 1486 c 0
 384 1501 376 1513 376 1524 c 0
 376 1536 385 1547 400 1561 c 0
 515 1676 511 1677 530 1677 c 0
EndSplineSet
EndChar

StartChar: uni204A
Encoding: 8266 8266 174
Width: 940
VWidth: 0
Flags: HW
LayerCount: 2
Fore
SplineSet
-23 410 m 0
 -39 410 -39 416 -39 434 c 0
 -39 488 -32 566 72 672 c 0
 119 720 280 865 431 882 c 0
 459 885 496 886 558 886 c 0
 623 886 716 885 854 885 c 0
 863 885 866 885 866 848 c 0
 866 793 860 659 860 329 c 0
 860 183 864 140 877 74 c 1
 865 49 836 29 779 -2 c 1
 710 -71 684 -113 568 -179 c 0
 503 -215 424 -244 389 -244 c 0
 378 -244 371 -241 371 -234 c 0
 371 -222 396 -200 436 -176 c 0
 464 -159 553 -62 553 -62 c 1
 649 78 611 225 632 687 c 1
 353 693 274 696 244 696 c 0
 233 696 229 696 224 695 c 1
 208 655 205 622 205 597 c 0
 205 578 207 562 207 552 c 0
 207 514 39 410 -23 410 c 0
EndSplineSet
EndChar

StartChar: uni200C
Encoding: 8204 8204 296
Width: 0
VWidth: 0
Flags: HW
LayerCount: 2
Fore
SplineSet
-43 0 m 1
 -43 1980 l 1
 43 1980 l 1
 43 0 l 1
 -43 0 l 1
EndSplineSet
EndChar

StartChar: uni200D
Encoding: 8205 8205 297
Width: 0
VWidth: 0
Flags: HW
LayerCount: 2
Fore
SplineSet
-128 2146 m 0
 -127 2146 -125 2144 0 2019 c 1
 128 2147 l 1
 188 2087 l 1
 60 1959 l 1
 188 1831 l 1
 128 1771 l 1
 43 1856 l 1
 43 0 l 1
 -43 0 l 1
 -43 1856 l 1
 -128 1771 l 1
 -188 1831 l 1
 -60 1959 l 1
 -188 2087 l 1
 -129 2146 -129 2146 -128 2146 c 0
EndSplineSet
EndChar

StartChar: uniE02C
Encoding: 57388 57388 298
Width: 615
VWidth: 0
Flags: HW
LayerCount: 2
Fore
SplineSet
68 702 m 0
 68 741 228 883 322 883 c 0
 458 883 451 616 452 354 c 0
 456 -468 447 -460 479 -507 c 0
 480 -508 481 -510 481 -512 c 0
 481 -528 438 -571 368 -610 c 0
 333 -630 277 -700 148 -773 c 0
 109 -795 53 -819 27 -819 c 0
 18 -819 13 -816 13 -810 c 0
 13 -794 48 -761 95 -731 c 0
 140 -703 195 -627 207 -549 c 0
 210 -527 215 393 215 393 c 1
 215 545 198 704 123 704 c 0
 109 704 68 680 68 702 c 0
EndSplineSet
EndChar

StartChar: uniE02C.conl
Encoding: 65593 -1 299
Width: 615
VWidth: 0
Flags: HW
LayerCount: 2
Fore
SplineSet
-13 884 m 1
 248 884 l 2
 352 884 433 868 449 621 c 0
 457 497 451 -422 458 -475 c 0
 464 -526 480 -539 480 -546 c 0
 480 -562 440 -601 374 -639 c 0
 361 -646 161 -819 68 -819 c 0
 57 -819 53 -815 53 -810 c 0
 53 -787 139 -724 140 -723 c 0
 178 -679 202 -626 208 -571 c 0
 209 -560 214 379 214 382 c 0
 214 522 209 701 87 710 c 0
 37 714 27 713 -13 714 c 1
 -13 884 l 1
EndSplineSet
EndChar

StartChar: uniE02D
Encoding: 57389 57389 300
Width: 615
VWidth: 0
Flags: HW
LayerCount: 2
Fore
SplineSet
467 150 m 0
 467 106 175 -26 103 -26 c 0
 93 -26 87 -23 87 -17 c 0
 87 6 149 37 164 55 c 0
 221 124 202 83 214 1042 c 0
 214 1068 217 1124 217 1188 c 0
 217 1333 204 1523 125 1523 c 0
 114 1523 91 1512 78 1512 c 0
 72 1512 68 1514 68 1521 c 0
 68 1558 226 1703 324 1703 c 0
 372 1703 423 1673 443 1495 c 0
 464 1308 448 276 465 165 c 0
 466 157 467 153 467 150 c 0
EndSplineSet
EndChar

StartChar: uniE02E
Encoding: 57390 57390 301
Width: 615
VWidth: 0
Flags: HW
LayerCount: 2
Fore
SplineSet
68 705 m 0
 68 744 225 883 314 883 c 0
 418 883 442 715 445 689 c 0
 462 564 443 301 466 157 c 1
 436 94 285 42 230 17 c 0
 171 -10 129 -21 107 -21 c 0
 94 -21 88 -18 88 -11 c 0
 88 25 195 40 208 151 c 0
 211 174 214 463 214 464 c 0
 214 643 155 704 116 704 c 0
 106 704 68 684 68 705 c 0
EndSplineSet
EndChar

StartChar: uniE02E.conl
Encoding: 65594 -1 302
Width: 615
VWidth: 0
Flags: HW
LayerCount: 2
Fore
SplineSet
466 159 m 0
 466 111 177 -20 104 -20 c 0
 94 -20 88 -17 88 -11 c 0
 88 1 105 18 156 50 c 0
 166 57 206 106 209 164 c 0
 210 178 213 446 213 446 c 1
 213 600 173 703 85 710 c 0
 44 713 32 713 -13 714 c 1
 -13 884 l 1
 142 884 l 2
 332 884 341 881 378 845 c 0
 446 779 455 640 455 499 c 0
 455 446 454 392 454 342 c 0
 454 196 466 177 466 159 c 0
EndSplineSet
EndChar

StartChar: uniE02E.conr
Encoding: 65595 -1 303
Width: 615
VWidth: 0
Flags: HW
LayerCount: 2
Fore
SplineSet
116 704 m 0
 106 704 68 684 68 704 c 0
 68 733 211 883 316 883 c 0
 337 883 356 877 373 862 c 0
 451 794 455 660 455 291 c 0
 455 258 452 206 401 139 c 1
 412 139 496 167 627 170 c 1
 627 0 l 1
 511 0 359 1 313 1 c 0
 203 1 132 -21 103 -21 c 0
 93 -21 88 -18 88 -11 c 0
 88 25 195 40 208 151 c 0
 210 166 214 456 214 457 c 0
 214 644 156 704 116 704 c 0
EndSplineSet
EndChar

StartChar: uniE02E.conb
Encoding: 65596 -1 304
Width: 615
VWidth: 0
Flags: HW
LayerCount: 2
Fore
SplineSet
-13 884 m 1
 84 884 154 885 206 885 c 0
 321 885 346 879 382 841 c 0
 455 765 455 660 455 295 c 0
 455 201 401 139 401 139 c 1
 412 139 519 170 627 170 c 1
 627 0 l 1
 375 1 344 2 312 2 c 0
 208 2 135 -21 104 -21 c 0
 94 -21 88 -18 88 -11 c 0
 88 1 112 24 151 47 c 0
 170 58 206 109 209 165 c 0
 210 194 213 423 213 452 c 0
 213 651 145 704 86 709 c 0
 45 712 33 713 -13 714 c 1
 -13 884 l 1
EndSplineSet
EndChar

StartChar: uniE036
Encoding: 57398 57398 305
Width: 1211
VWidth: 0
Flags: HW
LayerCount: 2
Fore
SplineSet
411 1 m 0
 225 1 111 144 111 301 c 0
 111 377 141 472 141 547 c 0
 141 637 93 704 48 704 c 0
 35 704 12 693 -1 693 c 0
 -7 693 -10 695 -10 701 c 0
 -10 740 147 883 247 883 c 0
 325 883 376 789 376 685 c 0
 376 614 350 514 350 447 c 0
 350 281 473 170 602 170 c 0
 664 170 717 189 740 204 c 0
 780 230 829 307 862 361 c 1
 861 390 858 584 858 616 c 0
 858 674 841 721 841 725 c 0
 841 756 1007 865 1137 865 c 0
 1199 865 1213 860 1213 852 c 0
 1213 819 1135 824 1103 728 c 1
 1102 637 1100 485 1100 424 c 0
 1100 228 1145 179 1175 179 c 0
 1180 179 1222 200 1222 179 c 0
 1222 142 1066 1 976 1 c 0
 896 1 874 112 866 231 c 1
 774 138 593 1 411 1 c 0
EndSplineSet
EndChar

StartChar: uniE036.conl
Encoding: 65664 -1 306
Width: 1211
VWidth: 0
Flags: HW
LayerCount: 2
Fore
SplineSet
603 170 m 0
 750 170 792 247 862 361 c 1
 861 390 858 584 858 616 c 0
 858 674 841 721 841 725 c 0
 841 756 1007 865 1137 865 c 0
 1199 865 1213 860 1213 852 c 0
 1213 819 1135 824 1103 728 c 1
 1102 637 1100 485 1100 424 c 0
 1100 228 1145 179 1175 179 c 0
 1180 179 1222 200 1222 179 c 0
 1222 142 1066 1 976 1 c 0
 896 1 874 112 866 231 c 1
 751 116 580 0 405 0 c 0
 229 0 111 145 111 300 c 0
 111 388 150 461 150 546 c 0
 150 604 122 705 29 710 c 0
 12 711 25 714 -13 714 c 1
 -13 884 l 1
 56 884 110 885 155 885 c 0
 288 885 330 874 367 782 c 0
 380 750 385 719 385 688 c 0
 385 604 350 521 350 443 c 0
 350 295 461 170 603 170 c 0
EndSplineSet
EndChar

StartChar: uniE036.dec
Encoding: 65665 -1 307
Width: 1517
VWidth: 0
Flags: HW
LayerCount: 2
Fore
SplineSet
1222 588 m 0
 1222 887 1240 898 1240 913 c 1
 1118 843 l 1
 1120 773 1120 710 1120 654 c 0
 1120 536 1118 446 1118 378 c 0
 1118 297 1122 246 1138 213 c 1
 1226 301 l 1
 1223 418 1222 512 1222 588 c 0
1449 515 m 0
 1449 262 1458 190 1493 190 c 0
 1501 190 1505 186 1505 180 c 0
 1505 140 1359 -8 1304 -8 c 0
 1233 -8 1234 140 1228 211 c 1
 1105 89 1024 -6 972 -6 c 0
 927 -6 904 65 896 250 c 1
 807 155 619 1 415 1 c 0
 233 1 111 166 111 354 c 0
 111 459 145 556 145 653 c 0
 145 778 88 837 50 837 c 0
 35 837 12 825 -1 825 c 0
 -7 825 -10 827 -10 834 c 0
 -10 873 148 1016 246 1016 c 0
 344 1016 380 888 380 794 c 0
 380 696 350 594 350 501 c 0
 350 325 456 171 616 171 c 0
 641 171 723 176 760 213 c 0
 829 282 872 381 892 427 c 1
 892 472 892 730 901 750 c 0
 917 788 990 860 1052 898 c 0
 1085 918 1292 1019 1393 1075 c 0
 1450 1106 1485 1118 1504 1118 c 0
 1515 1118 1520 1114 1520 1108 c 0
 1520 1094 1495 1072 1481 1058 c 1
 1457 984 1449 873 1449 515 c 0
EndSplineSet
EndChar

StartChar: uniE024.lig_harma
Encoding: 65666 -1 308
Width: 817
VWidth: 0
Flags: HW
LayerCount: 2
Fore
SplineSet
467 -30 m 0
 244 -30 88 134 88 322 c 0
 88 731 670 1183 911 1343 c 0
 1086 1459 1465 1692 1835 1692 c 0
 1854 1692 1858 1692 1858 1683 c 0
 1858 1644 1734 1526 1658 1502 c 1
 1491 1499 1224 1475 911 1265 c 0
 700 1123 322 791 322 475 c 0
 322 284 483 140 669 140 c 0
 739 140 761 170 770 179 c 0
 903 313 903 454 904 457 c 0
 928 517 1067 624 1110 624 c 0
 1120 624 1121 617 1121 608 c 0
 1121 333 700 -30 467 -30 c 0
EndSplineSet
EndChar

StartChar: uniE067
Encoding: 57447 57447 309
Width: 767
VWidth: 0
Flags: HW
LayerCount: 2
Fore
SplineSet
156 569 m 0
 156 1080 139 1268 45 1268 c 0
 25 1268 6 1257 -4 1257 c 0
 -9 1257 -12 1260 -12 1267 c 0
 -12 1305 131 1465 231 1465 c 0
 353 1465 356 1236 362 1228 c 1
 367 1228 477 1298 570 1381 c 0
 574 1385 659 1457 690 1457 c 0
 694 1457 697 1456 699 1453 c 1
 703 40 l 2
 703 18 697 -2 646 -53 c 0
 537 -163 484 -148 378 -227 c 0
 277 -303 185 -443 162 -466 c 0
 97 -531 -7 -576 -45 -576 c 0
 -54 -576 -59 -574 -59 -568 c 0
 -59 -557 -8 -466 94 -373 c 0
 125 -345 156 -250 156 569 c 0
382 451 m 0
 382 283 380 -75 360 -160 c 5
 397 -136 423 -114 486 -75 c 1
 487 81 488 422 488 728 c 0
 488 934 488 1123 487 1228 c 1
 435 1186 396 1160 370 1141 c 1
 370 1072 382 1003 382 451 c 0
EndSplineSet
EndChar

StartChar: uniF8FF
Encoding: 63743 63743 310
Width: 2318
VWidth: 0
Flags: HW
LayerCount: 2
Fore
SplineSet
1644 158 m 0
 1989 158 2114 170 2144 170 c 0
 2154 170 2160 169 2160 161 c 0
 2160 128 2032 23 1955 3 c 0
 1925 -4 1815 -7 1667 -7 c 0
 1312 -7 740 8 548 8 c 0
 308 8 212 0 175 0 c 0
 156 0 153 2 153 8 c 0
 153 42 289 135 371 150 c 0
 424 160 646 163 892 163 c 0
 1216 163 1579 158 1644 158 c 0
135 1511 m 0
 135 1518 141 1522 152 1522 c 0
 203 1522 347 1457 389 1404 c 0
 454 1321 556 1156 556 908 c 0
 556 867 557 860 546 860 c 0
 507 860 356 991 351 1062 c 0
 345 1147 311 1323 160 1474 c 0
 142 1492 135 1503 135 1511 c 0
1794 860 m 0
 1781 860 1785 867 1785 897 c 0
 1785 1295 2122 1539 2206 1539 c 0
 2214 1539 2219 1535 2219 1529 c 0
 2219 1484 2002 1376 1989 1064 c 0
 1986 991 1833 860 1794 860 c 0
647 403 m 0
 647 414 630 463 630 605 c 0
 630 1037 841 1527 1088 1777 c 1
 975 1890 975 1882 975 1903 c 0
 975 1933 995 1929 1139 2082 c 0
 1158 2102 1162 2108 1178 2108 c 0
 1208 2108 1193 2100 1343 1957 c 0
 1379 1923 1384 1922 1384 1903 c 0
 1384 1871 1318 1832 1318 1824 c 1
 1318 1824 1692 1363 1692 746 c 0
 1692 520 1636 399 1639 396 c 0
 1640 395 1753 391 1799 391 c 0
 1811 391 1818 391 1818 392 c 0
 1818 403 1808 442 1808 494 c 0
 1808 572 1830 680 1937 777 c 0
 1983 818 2133 937 2263 937 c 0
 2305 937 2308 933 2308 926 c 0
 2308 885 2144 765 2087 765 c 0
 2083 765 2076 767 2075 766 c 0
 2065 750 2052 694 2052 629 c 0
 2052 425 2165 387 2165 374 c 0
 2165 340 2008 228 1927 228 c 0
 1832 228 1308 241 975 241 c 0
 476 241 182 222 172 222 c 0
 163 222 159 225 159 231 c 0
 159 277 252 273 252 447 c 0
 252 590 171 715 51 715 c 0
 30 715 12 709 12 723 c 0
 12 751 148 885 262 885 c 0
 406 885 483 747 483 604 c 0
 483 528 462 452 417 393 c 1
 647 404 647 397 647 403 c 0
1431 400 m 0
 1442 400 1453 537 1453 606 c 0
 1453 946 1321 1348 1111 1631 c 1
 1001 1436 865 1120 865 749 c 0
 865 576 900 470 922 404 c 1
 1065 404 l 1
 1073 524 1068 611 1081 646 c 0
 1103 708 1197 839 1236 839 c 0
 1248 839 1245 824 1255 587 c 0
 1260 485 1261 450 1261 434 c 0
 1261 421 1260 419 1260 403 c 0
 1260 402 1397 400 1431 400 c 0
EndSplineSet
EndChar

StartChar: uniE030
Encoding: 57392 57392 311
Width: 1086
VWidth: 0
Flags: HW
LayerCount: 2
Fore
SplineSet
445 696 m 0
 206 696 136 512 62 512 c 0
 55 512 52 516 52 522 c 0
 52 580 336 883 605 883 c 0
 869 883 1024 733 1024 556 c 0
 1024 290 669 2 381 2 c 0
 273 2 175 42 108 140 c 1
 119 194 283 291 336 291 c 0
 356 291 348 273 396 235 c 0
 458 186 541 170 606 170 c 0
 659 170 701 180 711 192 c 0
 753 242 790 319 790 414 c 0
 790 580 624 696 445 696 c 0
EndSplineSet
EndChar

StartChar: uniE037
Encoding: 57399 57399 312
Width: 1248
VWidth: 0
Flags: HW
LayerCount: 2
Fore
SplineSet
98 367 m 0
 98 462 136 574 259 686 c 0
 360 777 565 914 770 914 c 0
 1076 914 1139 573 1152 442 c 0
 1159 371 1163 -175 1163 -217 c 0
 1164 -437 1162 -471 1187 -507 c 0
 1188 -509 1188 -511 1188 -513 c 0
 1188 -547 1068 -613 1062 -618 c 1
 1062 -618 842 -819 737 -819 c 0
 727 -819 723 -816 723 -810 c 0
 723 -794 760 -758 806 -729 c 0
 835 -711 897 -644 913 -563 c 0
 924 -509 919 -227 927 0 c 1
 3 0 l 2
 -76 0 -77 1 -77 10 c 0
 -77 38 61 127 172 134 c 1
 144 177 98 262 98 367 c 0
554 745 m 0
 500 745 453 733 421 723 c 1
 382 709 339 619 339 510 c 0
 339 392 389 251 552 160 c 1
 594 162 907 178 930 178 c 1
 929 271 923 402 855 538 c 0
 772 705 653 745 554 745 c 0
EndSplineSet
EndChar

StartChar: uniE037.var
Encoding: 65667 -1 313
Width: 1222
VWidth: 0
Flags: HW
LayerCount: 2
Fore
SplineSet
434 1 m 0
 240 1 121 0 46 0 c 0
 -76 0 -77 2 -77 11 c 0
 -77 42 69 128 172 134 c 1
 133 192 98 275 98 369 c 0
 98 507 174 670 428 819 c 0
 502 862 612 914 734 914 c 0
 1029 914 1158 603 1158 341 c 0
 1158 106 1097 -486 489 -842 c 0
 422 -881 380 -895 359 -895 c 0
 348 -895 343 -891 343 -885 c 0
 343 -850 467 -784 510 -752 c 0
 850 -504 909 -57 917 -0 c 5
 861 1 651 1 434 1 c 0
930 215 m 0
 930 406 811 745 523 745 c 0
 493 745 452 741 409 727 c 1
 361 663 337 587 337 510 c 0
 337 376 410 239 552 160 c 1
 575 161 910 179 928 179 c 1
 929 190 930 202 930 215 c 0
EndSplineSet
EndChar

StartChar: uniE039.var1
Encoding: 65668 -1 314
Width: 1165
VWidth: 0
Flags: HW
LayerCount: 2
Fore
SplineSet
328 1354 m 0
 322 1354 319 1356 319 1363 c 0
 319 1415 545 1665 762 1665 c 0
 862 1665 965 1576 965 1486 c 0
 965 1385 882 1210 694 980 c 1
 835 559 992 274 992 274 c 1
 1029 213 1086 197 1112 197 c 0
 1125 197 1157 210 1157 194 c 0
 1157 150 969 0 890 -0 c 0
 876 0 845 7 820 46 c 0
 803 73 726 243 725 243 c 0
 719 243 526 -15 272 -15 c 0
 146 -15 63 93 63 233 c 0
 63 469 364 730 501 898 c 0
 618 1041 731 1221 731 1334 c 0
 731 1416 629 1495 563 1495 c 0
 483 1495 466 1445 392 1388 c 0
 370 1371 342 1354 328 1354 c 0
296 385 m 3
 296 273 366 155 470 155 c 0
 565 155 605 201 694 312 c 1
 571 590 540 687 508 772 c 5
 478 735 296 550 296 385 c 3
EndSplineSet
EndChar

StartChar: uniE039.var2
Encoding: 65669 -1 315
Width: 1228
VWidth: 0
Flags: HW
LayerCount: 2
Fore
SplineSet
304 1366 m 0
 297 1366 294 1370 294 1376 c 0
 294 1427 511 1665 710 1665 c 0
 811 1665 897 1556 897 1436 c 0
 897 1193 832 986 769 828 c 1
 842 656 923 486 1052 273 c 1
 1080 217 1121 205 1155 205 c 0
 1178 205 1198 210 1210 210 c 0
 1217 210 1221 209 1221 203 c 0
 1221 159 1016 0 944 -0 c 0
 919 0 902 10 888 33 c 0
 802 179 721 328 624 531 c 1
 504 318 467 228 309 105 c 0
 205 23 129 -2 75 -2 c 0
 -12 -2 -43 63 -43 68 c 0
 -43 110 122 229 176 229 c 0
 195 229 205 180 261 180 c 0
 288 180 293 182 296 186 c 2
 296 186 457 459 558 738 c 0
 600 854 663 1066 663 1285 c 0
 663 1418 558 1495 516 1495 c 0
 448 1495 458 1474 376 1407 c 0
 344 1381 317 1366 304 1366 c 0
EndSplineSet
EndChar

StartChar: uniE039
Encoding: 57401 57401 316
Width: 1152
VWidth: 0
Flags: HW
LayerCount: 2
Fore
SplineSet
147 1223 m 0
 142 1223 138 1227 138 1237 c 0
 138 1325 342 1665 640 1665 c 0
 671 1665 761 1663 845 1578 c 0
 920 1503 919 1462 919 1404 c 0
 919 941 623 608 515 472 c 1
 539 482 574 497 628 497 c 7
 853 497 843 226 1036 226 c 0
 1095 226 1132 238 1148 238 c 0
 1155 238 1158 236 1158 230 c 0
 1157 181 941 30 911 15 c 0
 884 2 871 1 860 1 c 2
 856 1 l 2
 685 1 662 282 448 282 c 0
 296 282 207 151 72 50 c 0
 40 26 -3 0 -22 0 c 0
 -29 0 -33 3 -33 10 c 0
 -33 86 318 266 546 718 c 0
 644 912 686 1093 686 1255 c 0
 686 1388 555 1495 452 1495 c 0
 390 1495 329 1478 237 1322 c 0
 208 1273 165 1223 147 1223 c 0
EndSplineSet
EndChar

StartChar: uniE028
Encoding: 57384 57384 317
Width: 1216
VWidth: 0
Flags: HW
LayerCount: 2
Fore
SplineSet
95 1483 m 0
 61 1483 30 1458 17 1458 c 0
 12 1458 10 1461 10 1469 c 0
 10 1515 168 1704 273 1704 c 0
 383 1704 468 1571 514 1477 c 1
 984 472 1090 188 1188 188 c 0
 1213 188 1239 207 1239 187 c 0
 1239 145 1058 -1 982 -1 c 0
 901 -1 862 130 660 579 c 1
 566 402 496 280 457 232 c 0
 372 127 209 0 86 -0 c 0
 -6 0 -40 67 -40 73 c 0
 -40 111 122 233 181 233 c 0
 202 233 205 180 283 180 c 0
 290 180 297 180 305 181 c 1
 489 481 542 638 592 735 c 5
 571 783 430 1094 359 1240 c 0
 301 1360 200 1483 95 1483 c 0
EndSplineSet
EndChar

StartChar: uniE028.conr
Encoding: 65670 -1 318
Width: 1318
VWidth: 0
Flags: HW
LayerCount: 2
Fore
SplineSet
94 1483 m 0
 61 1483 30 1458 17 1458 c 0
 12 1458 10 1461 10 1469 c 0
 10 1515 168 1704 273 1704 c 0
 388 1704 476 1555 514 1477 c 1
 950 538 999 413 1112 283 c 0
 1210 170 1287 170 1331 170 c 1
 1331 0 l 1
 1174 -0 l 2
 1105 0 1059 1 1038 5 c 0
 851 46 769 353 661 578 c 1
 637 532 516 305 457 232 c 0
 372 127 209 0 86 -0 c 0
 -6 0 -40 67 -40 73 c 0
 -40 111 122 233 181 233 c 0
 202 233 205 180 283 180 c 0
 290 180 297 180 305 181 c 1
 499 497 565 691 591 735 c 1
 565 796 590 739 371 1214 c 0
 360 1238 249 1483 94 1483 c 0
EndSplineSet
EndChar

StartChar: uniE028.dec
Encoding: 65671 -1 319
Width: 1600
VWidth: 0
Flags: HW
LayerCount: 2
Fore
SplineSet
985 -4 m 0
 973 -4 930 104 643 672 c 1
 639 668 522 366 452 265 c 0
 367 143 186 0 65 -0 c 0
 -16 0 -47 60 -47 66 c 0
 -47 106 117 227 173 227 c 0
 198 227 187 178 273 178 c 1
 469 555 515 794 554 852 c 1
 311 1344 324 1321 311 1345 c 0
 244 1468 148 1563 61 1563 c 0
 27 1563 -4 1537 -18 1537 c 0
 -23 1537 -25 1540 -25 1548 c 0
 -25 1594 128 1790 228 1790 c 0
 367 1790 462 1575 466 1575 c 0
 475 1575 657 1789 717 1789 c 0
 725 1789 725 1786 801 1635 c 0
 1470 312 1428 391 1477 313 c 0
 1534 222 1578 194 1603 194 c 0
 1614 194 1654 217 1654 196 c 0
 1654 152 1473 -1 1402 -1 c 0
 1336 -1 1285 112 1237 214 c 1
 1173 150 1031 -4 985 -4 c 0
1145 229 m 0
 1146 229 1154 223 1155 222 c 1
 1207 275 l 1
 577 1546 l 1
 554 1561 550 1566 548 1566 c 0
 547 1566 495 1513 495 1513 c 1
 1079 348 1141 229 1145 229 c 0
EndSplineSet
EndChar

StartChar: uniE02A
Encoding: 57386 57386 320
Width: 1216
VWidth: 0
Flags: HW
LayerCount: 2
Fore
SplineSet
329 695 m 0
 292 695 282 691 282 703 c 0
 282 744 417 917 516 917 c 0
 594 917 633 849 646 831 c 0
 1030 281 1010 308 1031 282 c 0
 1090 208 1138 194 1171 194 c 0
 1192 194 1208 200 1216 200 c 0
 1221 200 1223 198 1223 192 c 0
 1223 147 1032 -1 956 -1 c 0
 943 -1 903 0 859 57 c 0
 847 72 658 354 598 443 c 1
 560 375 489 259 464 224 c 0
 415 154 256 -1 117 -1 c 0
 17 -1 -31 74 -31 84 c 0
 -31 128 138 246 189 246 c 0
 215 246 211 182 314 180 c 1
 450 397 500 517 518 556 c 1
 486 602 435 695 329 695 c 0
EndSplineSet
EndChar

StartChar: uniE02A.conr
Encoding: 65672 -1 321
Width: 1292
VWidth: 0
Flags: HW
LayerCount: 2
Fore
SplineSet
1306 0 m 1
 1073 -0 l 2
 872 0 763 202 598 443 c 1
 560 375 489 259 464 224 c 0
 415 154 256 -1 117 -1 c 0
 17 -1 -31 74 -31 84 c 0
 -31 128 138 246 189 246 c 0
 215 246 211 182 314 180 c 1
 453 404 474 456 518 556 c 1
 484 605 438 695 320 695 c 0
 297 695 283 688 283 703 c 0
 283 738 404 915 523 915 c 0
 558 915 593 900 625 860 c 0
 665 811 860 514 987 369 c 0
 1167 164 1264 171 1306 170 c 1
 1306 0 l 1
EndSplineSet
EndChar

StartChar: uniE02A.dec
Encoding: 65673 -1 322
Width: 1600
VWidth: 0
Flags: HW
LayerCount: 2
Fore
SplineSet
359 823 m 0
 339 823 326 816 326 831 c 0
 326 874 451 1048 544 1048 c 0
 604 1048 639 1007 682 933 c 0
 703 897 728 856 744 829 c 1
 759.6 846 944 1048 1000 1048 c 0
 1011 1048 1006 1046 1325 555 c 0
 1505 278 1536 204 1644 199 c 1
 1654 203 1686 216 1686 199 c 0
 1686 155 1502 -2 1427 -2 c 0
 1359 -2 1327 68 1236 213 c 1
 1177 154 1029 -4 984 -4 c 0
 978 -4 912 87 635 527 c 1
 605 469 508 296 470 243 c 0
 425 180 253 0 95 -0 c 0
 5 0 -37 68 -37 77 c 0
 -37 116 125 238 185 238 c 0
 204 238 211 179 292 179 c 0
 297 179 302 180 307 180 c 1
 437 393 480 493 556 657 c 1
 524 713 469 823 359 823 c 0
1145 228 m 0
 1147 228 1147 228 1155 222 c 1
 1201 269 l 1
 861 805 l 1
 843 817 843 816 832 825 c 1
 779 772 l 1
 958 486 1140 228 1145 228 c 0
EndSplineSet
EndChar

StartChar: uniE020
Encoding: 57376 57376 323
Width: 1165
VWidth: 0
Flags: HW
LayerCount: 2
Fore
SplineSet
885 899 m 4
 1047 899 1102 755 1102 653 c 0
 1102 416 804 157 664 -14 c 0
 570 -129 433 -323 433 -451 c 0
 433 -533 535 -611 601 -611 c 0
 674 -611 693 -571 752 -520 c 0
 776 -499 817 -470 836 -470 c 0
 842 -470 846 -473 846 -480 c 0
 846 -532 620 -781 402 -781 c 0
 304 -781 200 -691 200 -602 c 0
 200 -431 425 -146 471 -96 c 1
 371 223 255 446 205 533 c 0
 144 639 95 675 50 675 c 0
 32 675 14 664 3 664 c 0
 -2 664 -6 667 -6 675 c 0
 -6 711 123 883 233 883 c 0
 342 883 427 683 443 653 c 1
 473 685 667 899 885 899 c 4
869 499 m 0
 869 606 803 729 694 729 c 0
 605 729 560 692 474 588 c 1
 559 403 614 258 658 111 c 1
 771 240 869 367 869 499 c 0
EndSplineSet
EndChar

StartChar: uniE020.conl
Encoding: 65674 -1 324
Width: 1165
VWidth: 0
Flags: HW
LayerCount: 2
Fore
SplineSet
-13 884 m 1
 52 884 104 886 148 886 c 0
 299 886 344 864 449 665 c 1
 638 863 794 899 880 899 c 0
 1058 899 1102 741 1102 653 c 0
 1102 416 792 142 664 -14 c 0
 570 -129 433 -323 433 -451 c 0
 433 -533 535 -611 601 -611 c 0
 674 -611 693 -571 752 -520 c 0
 776 -499 817 -470 836 -470 c 0
 842 -470 846 -473 846 -480 c 0
 846 -532 620 -781 402 -781 c 0
 304 -781 200 -691 200 -602 c 0
 200 -433 425 -145 471 -96 c 1
 418 88 350 276 226 499 c 0
 93 739 19 708 -13 714 c 1
 -13 884 l 1
869 498 m 3
 869 606 804 729 689 729 c 0
 573 729 529 652 481 602 c 1
 552 452 624 266 658 112 c 1
 723 185 869 341 869 498 c 3
EndSplineSet
EndChar

StartChar: uniE021
Encoding: 57377 57377 325
Width: 1165
VWidth: 0
Flags: HW
LayerCount: 2
Fore
SplineSet
7 -222 m 0
 7 -127 228 135 341 255 c 1
 294 361 237 484 188 562 c 4
 152 619 105 675 50 675 c 0
 32 675 14 664 3 664 c 0
 -2 664 -6 667 -6 675 c 0
 -6 711 123 883 233 883 c 0
 338 883 418 701 443 653 c 1
 469 680 663 899 885 899 c 0
 1047 899 1102 755 1102 653 c 0
 1102 416 804 157 664 -14 c 0
 570 -129 433 -323 433 -451 c 0
 433 -533 535 -611 601 -611 c 0
 674 -611 693 -571 752 -520 c 0
 776 -499 817 -470 836 -470 c 0
 842 -470 846 -473 846 -480 c 0
 846 -532 620 -781 402 -781 c 0
 304 -781 200 -691 200 -602 c 0
 200 -431 425 -146 471 -96 c 1
 435 18 415 74 371 185 c 1
 260 80 208 0 208 -14 c 0
 208 -77 279 -116 279 -116 c 2
 280 -117 280 -119 280 -121 c 0
 280 -161 114 -281 60 -281 c 0
 42 -281 7 -269 7 -222 c 0
869 499 m 0
 869 606 803 729 694 729 c 0
 605 729 560 692 474 588 c 1
 559 403 614 258 658 111 c 1
 771 240 869 367 869 499 c 0
EndSplineSet
EndChar

StartChar: uniE021.conl
Encoding: 65675 -1 326
Width: 1165
VWidth: 0
Flags: HW
LayerCount: 2
Fore
SplineSet
-13 884 m 1
 52 884 104 886 148 886 c 0
 299 886 344 864 449 665 c 1
 638 863 794 899 880 899 c 0
 1058 899 1102 741 1102 653 c 0
 1102 416 792 142 664 -14 c 0
 570 -129 433 -323 433 -451 c 0
 433 -533 535 -611 601 -611 c 0
 674 -611 693 -571 752 -520 c 0
 776 -499 817 -470 836 -470 c 0
 842 -470 846 -473 846 -480 c 0
 846 -532 620 -781 402 -781 c 0
 304 -781 200 -691 200 -602 c 0
 200 -433 425 -145 471 -96 c 1
 440 11 401 117 380 175 c 1
 380 175 295 104 222 -13 c 1
 227 -103 294 -111 294 -126 c 0
 294 -167 128 -286 74 -286 c 0
 56 -286 21 -274 21 -227 c 0
 21 -132 247 135 351 245 c 1
 131 753 31 706 -13 714 c 1
 -13 884 l 1
869 498 m 3
 869 612 804 729 689 729 c 0
 576 729 514 638 481 602 c 5
 555 438 603 337 658 112 c 1
 830 302 869 411 869 498 c 3
EndSplineSet
EndChar

StartChar: uniE020.open
Encoding: 65676 -1 327
Width: 1165
VWidth: 0
Flags: HW
LayerCount: 2
Fore
SplineSet
885 899 m 0
 1013 899 1102 758 1102 652 c 0
 1102 426 859 152 680 2 c 0
 594 -69 296 -273 296 -450 c 0
 296 -523 358 -611 411 -611 c 0
 449 -611 452 -604 458 -599 c 0
 492 -572 516 -559 529 -559 c 0
 535 -559 539 -562 539 -569 c 0
 539 -606 421 -751 318 -776 c 0
 300 -780 271 -783 241 -783 c 0
 210 -783 179 -780 160 -770 c 0
 102 -741 63 -664 63 -604 c 4
 63 -413 349 -185 466 -81 c 1
 402 107 322 334 205 533 c 0
 143 638 95 675 50 675 c 0
 32 675 14 664 3 664 c 0
 -2 664 -6 667 -6 675 c 0
 -6 711 123 883 233 883 c 0
 335 883 400 732 443 653 c 1
 546 757 699 899 885 899 c 0
869 497 m 0
 869 618 796 729 694 729 c 0
 605 729 560 692 474 588 c 1
 548 427 601 299 659 107 c 1
 666 101 669 97 670 97 c 0
 728 164 869 334 869 497 c 0
EndSplineSet
EndChar

StartChar: uniE020.conl_open
Encoding: 65677 -1 328
Width: 1165
VWidth: 0
Flags: HW
LayerCount: 2
Fore
SplineSet
-13 884 m 1
 52 884 104 886 148 886 c 0
 299 886 344 864 449 665 c 1
 638 863 794 899 880 899 c 0
 1058 899 1102 741 1102 652 c 0
 1102 443 889 176 680 2 c 0
 594 -69 296 -273 296 -450 c 0
 296 -523 358 -611 411 -611 c 0
 449 -611 452 -604 458 -599 c 0
 492 -572 516 -559 529 -559 c 0
 535 -559 539 -562 539 -569 c 0
 539 -606 421 -751 318 -776 c 0
 300 -780 271 -783 241 -783 c 0
 210 -783 179 -780 160 -770 c 0
 102 -741 63 -664 63 -604 c 0
 63 -415 362 -170 467 -82 c 1
 419 72 385 202 226 499 c 0
 96 741 19 708 -13 714 c 1
 -13 884 l 1
869 497 m 0
 869 600 809 729 689 729 c 0
 582 729 529 653 481 602 c 1
 536 472 568 444 664 89 c 1
 726 156 869 337 869 497 c 0
EndSplineSet
EndChar

StartChar: uniE021.open
Encoding: 65678 -1 329
Width: 1165
VWidth: 0
Flags: HW
LayerCount: 2
Fore
SplineSet
127 51 m 0
 127 -14.9290681147 193 -13.7248463098 193 -26 c 0
 193 -61 34 -187 -26 -187 c 0
 -67 -187 -101 -158 -101 -114 c 0
 -101 -89 -90 -59 -63 -27 c 0
 -28 15 104 155 321 302 c 1
 220 521 143 675 50 675 c 0
 32 675 14 664 3 664 c 0
 -2 664 -6 667 -6 675 c 0
 -6 711 123 883 233 883 c 0
 340 883 409 710 443 653 c 1
 496 710 674 899 885 899 c 0
 1045 899 1102 758 1102 652 c 0
 1102 426 859 152 680 2 c 0
 594 -69 296 -273 296 -450 c 0
 296 -523 358 -611 411 -611 c 0
 449 -611 452 -604 458 -599 c 0
 492 -572 516 -559 529 -559 c 0
 535 -559 539 -562 539 -569 c 0
 539 -606 421 -751 318 -776 c 0
 300 -780 271 -783 241 -783 c 0
 210 -783 179 -780 160 -770 c 0
 102 -741 63 -664 63 -604 c 4
 63 -405 402 -136 466 -81 c 1
 434 16 432 33 364 203 c 1
 339 228 337 230 336 230 c 0
 295 201 230 163 153 88 c 0
 129 64 127 66 127 51 c 0
869 497 m 0
 869 618 796 729 694 729 c 0
 605 729 560 692 474 588 c 1
 555 423 628 207 662 89 c 1
 713 146 869 327 869 497 c 0
EndSplineSet
EndChar

StartChar: uniE021.conl_open
Encoding: 65679 -1 330
Width: 1165
VWidth: 0
Flags: HW
LayerCount: 2
Fore
SplineSet
-13 884 m 1
 52 884 104 886 148 886 c 0
 299 886 344 864 449 665 c 1
 638 863 794 899 880 899 c 0
 1058 899 1102 741 1102 652 c 0
 1102 443 889 176 680 2 c 0
 594 -69 296 -273 296 -450 c 0
 296 -523 358 -611 411 -611 c 0
 449 -611 452 -604 458 -599 c 0
 492 -572 516 -559 529 -559 c 0
 535 -559 539 -562 539 -569 c 0
 539 -606 421 -751 318 -776 c 0
 300 -780 271 -783 241 -783 c 0
 210 -783 179 -780 160 -770 c 0
 102 -741 63 -664 63 -604 c 0
 63 -413 354 -180 467 -82 c 5
 435 22 430 49 366 210 c 1
 351 225 l 1
 272 177 141 78 141 48 c 0
 141 -21 206 -19 206 -31 c 0
 206 -71 43 -192 -13 -192 c 0
 -46 -192 -87 -166 -87 -119 c 0
 -87 -89 -71 -52 -25 -6 c 0
 165 185 263 249 329 295 c 1
 240 480 134 713 4 713 c 0
 -8 713 -10 713 -13 714 c 1
 -13 884 l 1
869 497 m 0
 869 600 809 729 689 729 c 0
 582 729 512 636 481 602 c 1
 562 427 632 227 666 92 c 1
 727 160 869 337 869 497 c 0
EndSplineSet
EndChar

StartChar: uniE022
Encoding: 57378 57378 331
Width: 1618
VWidth: 0
Flags: HW
LayerCount: 2
Fore
SplineSet
1530 113 m 0
 1530 -135.607732323 1042.0475858 -453 668 -453 c 0
 403 -453 88 -311 88 -9 c 0
 88 327 373 573 562 714 c 1
 482 721 412 724 350 724 c 0
 167 724 61 701 26 701 c 0
 17 701 13 702 13 706 c 0
 13 738 138 857 242 874 c 0
 343 890 442 896 542 896 c 0
 794 896 1043 859 1287 859 c 0
 1477 859 1563 883 1593 883 c 0
 1602 883 1606 880 1606 875 c 0
 1606 844 1503 754 1426 721 c 0
 1380 701 1234 686 1079 686 c 0
 903 686 801 698 664 707 c 1
 366 506 322 271 322 142 c 0
 322 -132 604 -282 875 -282 c 0
 1039 -282 1209 -214 1238 -183 c 0
 1278 -141 1297 -89 1297 -40 c 0
 1297 38 1250 110 1164 130 c 0
 1152 133 1149 134 1149 140 c 0
 1149 182 1317 301 1369 301 c 0
 1429 301 1530 230 1530 113 c 0
EndSplineSet
EndChar

StartChar: uniE022.conr
Encoding: 65680 -1 332
Width: 1618
VWidth: 0
Flags: HW
LayerCount: 2
Fore
SplineSet
672 -452 m 0
 352 -452 88 -275 88 -9 c 0
 88 281 291 513 558 715 c 5
 355 715 40 700 22 700 c 0
 16 700 13 702 13 707 c 0
 13 736 131 847 215 871 c 0
 261 884 590 887 919 887 c 0
 1275 887 1632 883 1632 883 c 1
 1632 714 l 1
 670 716 l 1
 454 572 322 373 322 144 c 0
 322 -112 576 -282 877 -282 c 0
 1027 -282 1203 -219 1237 -182 c 0
 1278 -138 1297 -86 1297 -37 c 0
 1297 43 1247 115 1160 133 c 0
 1153 135 1150 139 1150 144 c 0
 1150 183 1316 303 1369 303 c 0
 1400 303 1530 258 1530 117 c 0
 1529 -137 1036 -452 672 -452 c 0
EndSplineSet
EndChar

StartChar: uniE022.conl
Encoding: 65681 -1 333
Width: 1618
VWidth: 0
Flags: HW
LayerCount: 2
Fore
SplineSet
1530 110 m 0
 1530 -137 1044 -453 671 -453 c 0
 389 -453 88 -306 88 -15 c 0
 88 323 380 569 559 701 c 1
 502 706 158 713 -13 714 c 1
 -13 884 l 1
 792 884 703 866 1151 866 c 0
 1479 866 1570 884 1596 884 c 0
 1606 884 1606 881 1606 874 c 0
 1606 842 1481 736 1405 713 c 0
 1368 702 1174 695 941 695 c 0
 853 695 760 696 668 698 c 1
 602 654 322 473 322 136 c 0
 322 -141 613 -283 879 -283 c 0
 1027 -283 1169 -228 1225 -195 c 0
 1249 -180 1297 -118 1297 -38 c 0
 1297 40 1239 109 1163 126 c 0
 1150 129 1149 130 1149 137 c 0
 1149 174 1312 296 1369 296 c 0
 1406 296 1530 248 1530 110 c 0
EndSplineSet
EndChar

StartChar: uniE022.conb
Encoding: 65682 -1 334
Width: 1618
VWidth: 0
Flags: HW
LayerCount: 2
Fore
SplineSet
1531 115 m 0
 1531 -129 1049 -453 666 -453 c 0
 413 -453 88 -316 88 -10 c 0
 88 321 362 565 562 714 c 1
 -13 714 l 1
 -13 884 l 1
 1632 884 l 1
 1632 714 l 1
 673 714 l 1
 369 510 322 278 322 142 c 0
 322 -121 591 -282 870 -282 c 0
 1063 -282 1215 -207 1238 -182 c 0
 1279 -138 1297 -87 1297 -39 c 0
 1297 41 1246 113 1163 131 c 0
 1151 134 1149 135 1149 142 c 0
 1149 179 1311 301 1369 301 c 0
 1410 301 1531 248 1531 115 c 0
EndSplineSet
EndChar

StartChar: uniE022.dec
Encoding: 65683 -1 335
Width: 1933
VWidth: 0
Flags: HW
LayerCount: 2
Fore
SplineSet
24 828 m 0
 17 828 13 832 13 838 c 0
 13 866 115 965 228 1003 c 0
 353 1045 477 1060 599 1060 c 0
 917 1060 1227 958 1536 958 c 0
 1798 958 1873 1016 1909 1016 c 0
 1918 1016 1921 1013 1921 1007 c 0
 1921 977 1826 894 1749 857 c 0
 1706 836 1555 784 1341 784 c 0
 1190 784 1058 804 794 846 c 1
 738 816 682 784 615 733 c 5
 615 -236 l 5
 754 -298 893 -320 1019 -320 c 0
 1295 -320 1512 -214 1545 -179 c 0
 1591 -130 1612 -72 1612 -17 c 0
 1612 64 1565 136 1478 155 c 0
 1469 156 1465 161 1465 167 c 0
 1465 206 1630 325 1684 325 c 0
 1724 325 1846 272 1846 139 c 0
 1846 -118 1452 -328 1293 -392 c 0
 1181 -437 1006 -490 814 -490 c 0
 501 -490 88 -349 88 21 c 0
 88 458 519 745 688 862 c 1
 674 862 542 886 388 886 c 0
 152 886 51 828 24 828 c 0
322 172 m 3
 322 54 359 -31 446 -122 c 1
 446 554 l 1
 386 461 322 339 322 172 c 3
EndSplineSet
EndChar

StartChar: uniE022.conrbot
Encoding: 65684 -1 336
Width: 1618
VWidth: 0
Flags: HW
LayerCount: 2
Fore
SplineSet
1287 859 m 0
 1477 859 1563 883 1593 883 c 0
 1602 883 1606 880 1606 875 c 0
 1606 844 1503 754 1426 721 c 0
 1359 692 1141 686 1072 686 c 0
 983 686 896 690 675 707 c 1
 361 464 322 215 322 80 c 0
 322 -188 588 -373 876 -373 c 0
 1017 -373 1185 -313 1228 -270 c 0
 1265 -233 1297 -170 1297 -112 c 0
 1297 -64 1274 -20 1213 0 c 1
 1171 0 1160 -1 1160 10 c 0
 1160 42 1309 171 1397 171 c 0
 1404 171 1574 170 1632 170 c 1
 1632 0 l 1
 1526 -0 l 1
 1514 -56 1480 -163 1282 -311 c 0
 1093 -452 865 -543 666 -543 c 0
 393 -543 88 -377 88 -66 c 0
 88 329 434 596 575 714 c 5
 511 717 454 723 334 723 c 0
 145 723 55 700 25 700 c 0
 17 700 13 701 13 706 c 0
 13 738 138 857 242 874 c 0
 343 890 442 896 542 896 c 0
 794 896 1043 859 1287 859 c 0
EndSplineSet
EndChar

StartChar: uniE022.conbbot
Encoding: 65685 -1 337
Width: 1618
VWidth: 0
Flags: HW
LayerCount: 2
Fore
SplineSet
-13 884 m 1
 792 884 703 866 1151 866 c 0
 1479 866 1570 884 1596 884 c 0
 1606 884 1606 881 1606 874 c 0
 1606 842 1481 736 1405 713 c 0
 1379 705 1178 694 933 694 c 0
 851 694 765 695 678 698 c 1
 364 459 322 214 322 79 c 0
 322 -188 583 -373 875 -373 c 0
 1022 -373 1188 -311 1228 -270 c 0
 1265 -233 1297 -170 1297 -112 c 0
 1297 -64 1274 -20 1213 0 c 1
 1171 0 1160 -1 1160 10 c 0
 1160 42 1309 171 1397 171 c 0
 1404 171 1574 170 1632 170 c 1
 1632 0 l 1
 1526 -0 l 1
 1475 -247 1012 -543 669 -543 c 0
 363 -543 88 -355 88 -72 c 0
 88 298 405 568 574 701 c 1
 222 713 163 713 -13 714 c 1
 -13 884 l 1
EndSplineSet
EndChar

StartChar: uniE023
Encoding: 57379 57379 338
Width: 1618
VWidth: 0
Flags: HW
LayerCount: 2
Fore
SplineSet
88 252 m 0
 88 346 122 521 457 720 c 1
 415 722 376 723 340 723 c 0
 154 723 57 701 25 701 c 0
 17 701 13 703 13 706 c 0
 13 738 138 857 242 874 c 0
 343 890 442 896 542 896 c 0
 794 896 1043 859 1287 859 c 0
 1477 859 1563 883 1593 883 c 0
 1602 883 1606 880 1606 875 c 0
 1606 844 1503 754 1426 721 c 0
 1364 694 1161 686 1070 686 c 0
 984 686 897 690 640 709 c 1
 561 685 431 636 399 604 c 0
 351 556 322 482 322 400 c 0
 322 226 520 134 795 134 c 0
 948 134 1132 174 1278 174 c 0
 1423 174 1530 134 1530 -23 c 0
 1530 -120 1493 -199 1438 -266 c 0
 1351 -372 1138 -535 937 -535 c 0
 779 -535 721 -416 721 -411 c 0
 721 -365 892 -252 942 -252 c 0
 948 -252 952 -254 954 -257 c 0
 989 -319 1059 -366 1150 -366 c 0
 1178 -366 1207 -362 1239 -352 c 0
 1250 -349 1297 -272 1297 -180 c 0
 1297 -33 1207 4 1074 4 c 0
 937 4 755 -36 582 -36 c 0
 378 -36 88 21 88 252 c 0
EndSplineSet
EndChar

StartChar: uniE023.conr
Encoding: 65686 -1 339
Width: 1618
VWidth: 0
Flags: HW
LayerCount: 2
Fore
SplineSet
22 700 m 4
 16 700 13 702 13 707 c 0
 13 736 131 847 215 871 c 0
 261 884 590 887 919 887 c 0
 1275 887 1632 883 1632 883 c 1
 1632 714 l 1
 644 716 l 1
 412 640 396 611 370 572 c 0
 334 517 322 461 322 407 c 0
 322 190 599 136 791 136 c 0
 947 136 1131 175 1277 175 c 0
 1424 175 1531 136 1531 -24 c 0
 1531 -149 1467 -241 1398 -310 c 0
 1305 -403 1121 -535 937 -535 c 0
 779 -535 721 -415 721 -411 c 0
 721 -365 892 -252 942 -252 c 0
 948 -252 952 -254 954 -257 c 0
 982 -308 1043 -365 1147 -365 c 0
 1175 -365 1207 -361 1242 -351 c 1
 1281 -292 1297 -245 1297 -175 c 0
 1297 -31 1204 6 1071 6 c 0
 933 6 751 -34 586 -34 c 0
 379 -34 88 23 88 256 c 0
 88 391 161 500 275 594 c 0
 355 660 374 674 438 714 c 1
 313 714 64 700 22 700 c 4
EndSplineSet
EndChar

StartChar: uniE023.conl
Encoding: 65687 -1 340
Width: 1618
VWidth: 0
Flags: HW
LayerCount: 2
Fore
SplineSet
-13 884 m 1
 792 884 703 866 1151 866 c 0
 1479 866 1570 884 1596 884 c 0
 1606 884 1606 881 1606 874 c 0
 1606 842 1481 736 1405 713 c 0
 1380 705 1231 694 968 694 c 0
 875 694 767 696 645 699 c 1
 587 681 429 631 391 588 c 0
 340 531 322 461 322 395 c 0
 322 183 591 129 794 129 c 0
 950 129 1135 169 1280 169 c 0
 1425 169 1530 129 1530 -29 c 0
 1530 -164 1457 -271 1337 -367 c 0
 1140 -525 993 -535 933 -535 c 0
 788 -535 721 -421 721 -411 c 0
 721 -365 892 -252 942 -252 c 0
 948 -252 952 -254 954 -257 c 0
 1003 -345 1087 -365 1152 -365 c 0
 1203 -365 1242 -353 1245 -350 c 0
 1251 -344 1297 -278 1297 -180 c 0
 1297 -37 1205 0 1073 -0 c 0
 934 0 750 -41 584 -41 c 0
 383 -41 88 12 88 246 c 0
 88 392 181 540 446 704 c 1
 427 707 133 713 -13 714 c 1
 -13 884 l 1
EndSplineSet
EndChar

StartChar: uniE023.conb
Encoding: 65688 -1 341
Width: 1618
VWidth: 0
Flags: HW
LayerCount: 2
Fore
SplineSet
-13 884 m 1
 1632 884 l 1
 1632 714 l 1
 652 714 l 1
 595 696 434 643 397 604 c 0
 384 590 322 523 322 403 c 0
 322 188 600 134 789 134 c 0
 947 134 1132 174 1278 174 c 0
 1424 174 1530 134 1530 -25 c 0
 1530 -104 1508 -256 1263 -419 c 0
 1147 -496 1039 -535 933 -535 c 0
 789 -535 721 -421 721 -411 c 0
 721 -365 892 -252 942 -252 c 0
 948 -252 952 -254 954 -257 c 0
 1003 -343 1088 -366 1154 -366 c 0
 1201 -366 1239 -354 1246 -345 c 0
 1274 -306 1297 -249 1297 -174 c 0
 1297 -32 1203 4 1069 4 c 0
 930 4 749 -35 584 -35 c 0
 358 -35 88 31 88 254 c 0
 88 438 235 584 443 713 c 1
 -13 714 l 1
 -13 884 l 1
EndSplineSet
EndChar

StartChar: uniE023.dec
Encoding: 65689 -1 342
Width: 1933
VWidth: 0
Flags: HW
LayerCount: 2
Fore
SplineSet
1158 -295 m 0
 1180 -295 1209 -410 1375 -410 c 0
 1434 -410 1529 -389 1546 -367 c 0
 1594 -307 1612 -236 1612 -173 c 0
 1612 6 1505 53 1348 53 c 0
 1171 53 929 -7 704 -7 c 0
 407 -7 88 58 88 321 c 0
 88 435 130 520 177 578 c 0
 308 740 459 820 562 878 c 1
 525 880 467 886 387 886 c 3
 146 886 55 828 24 828 c 0
 17 828 13 832 13 838 c 0
 13 866 115 965 228 1003 c 0
 353 1045 477 1060 599 1060 c 0
 917 1060 1227 958 1536 958 c 0
 1798 958 1873 1016 1909 1016 c 0
 1918 1016 1921 1013 1921 1007 c 0
 1921 977 1826 894 1749 857 c 0
 1706 836 1555 784 1341 784 c 0
 1189 784 1075 802 779 849 c 1
 713 833 680 824 615 804 c 1
 617 192 l 5
 699 170 787 163 876 163 c 0
 1118 163 1370 221 1557 221 c 0
 1729 221 1846 171 1846 -19 c 0
 1846 -124 1803 -209 1743 -281 c 0
 1668 -371 1433 -580 1150 -580 c 0
 999 -580 937 -460 937 -456 c 0
 937 -414 1104 -295 1158 -295 c 0
322 473 m 0
 322 344 400 289 446 258 c 1
 446 733 l 1
 371 689 322 584 322 473 c 0
EndSplineSet
EndChar

StartChar: uniE024
Encoding: 57380 57380 343
Width: 1165
VWidth: 0
Flags: HW
LayerCount: 2
Fore
SplineSet
602 1446 m 0
 602 1542 512 1526 512 1542 c 0
 512 1580 674 1703 734 1703 c 0
 779 1703 836 1672 836 1600 c 0
 836 1238 297 854 297 505 c 0
 297 292 465 140 644 140 c 0
 706 140 777 157 794 176 c 0
 845 233 868 298 868 358 c 0
 868 442 822 515 742 540 c 0
 735 542 732 547 732 552 c 0
 732 593 900 711 950 711 c 0
 977 711 1102 656 1102 516 c 0
 1102 254 694 -30 438 -30 c 0
 225 -30 62 145 62 353 c 0
 62 720 602 1109 602 1446 c 0
EndSplineSet
EndChar

StartChar: uniE024.flat
Encoding: 65690 -1 344
Width: 1165
VWidth: 0
Flags: HW
LayerCount: 2
Fore
SplineSet
861 1466 m 0
 861 1553 776 1533 776 1549 c 0
 776 1588 941 1702 1000 1702 c 0
 1053 1702 1109 1660 1109 1593 c 0
 1109 1235 588 947 393 715 c 0
 343 656 296 579 296 488 c 0
 296 310 444 140 646 140 c 0
 704 140 777 157 794 176 c 0
 845 233 868 298 868 358 c 0
 868 442 822 515 742 540 c 0
 735 542 732 547 732 552 c 0
 732 593 900 711 950 711 c 0
 977 711 1102 656 1102 516 c 0
 1102 249 689 -30 438 -30 c 0
 220 -30 62 143 62 338 c 0
 62 422 87 546 310 757 c 0
 565 998 861 1178 861 1466 c 0
EndSplineSet
EndChar

StartChar: uniE024.open
Encoding: 65691 -1 345
Width: 1165
VWidth: 0
Flags: HW
LayerCount: 2
Fore
SplineSet
1102 516 m 0
 1102 252 691 -30 439 -30 c 0
 209 -30 63 173 63 382 c 0
 63 700 431 1134 431 1432 c 0
 431 1494 380 1515 356 1515 c 0
 346 1515 342 1518 342 1525 c 0
 342 1564 495 1702 553 1702 c 0
 594 1702 653 1672 653 1596 c 0
 653 1276 296 848 296 540 c 0
 296 300 464 140 647 140 c 0
 705 140 777 157 794 176 c 0
 845 233 868 298 868 358 c 0
 868 442 822 515 742 540 c 0
 735 542 732 547 732 552 c 0
 732 593 900 711 950 711 c 0
 977 711 1102 656 1102 516 c 0
EndSplineSet
EndChar

StartChar: uniE024.lig
Encoding: 65692 -1 346
Width: 725
VWidth: 0
Flags: HW
LayerCount: 2
Fore
SplineSet
630 1446 m 0
 630 1544 539 1523 539 1542 c 0
 539 1583 706 1703 760 1703 c 0
 813 1703 863 1666 863 1600 c 0
 863 1233 296 855 296 506 c 0
 296 311 457 139 658 139 c 0
 744 139 784 185 801 203 c 0
 888 296 916 392 916 439 c 0
 916 497 1080 623 1125 623 c 0
 1132 623 1136 620 1136 613 c 0
 1136 345 710 -30 458 -30 c 0
 240 -30 62 140 62 352 c 0
 62 727 630 1104 630 1446 c 0
EndSplineSet
EndChar

StartChar: uniE024.lig_flat
Encoding: 65693 -1 347
Width: 725
VWidth: 0
Flags: HW
LayerCount: 2
Fore
SplineSet
901 1466 m 0
 901 1553 816 1533 816 1549 c 0
 816 1590 985 1702 1039 1702 c 0
 1087 1702 1149 1667 1149 1590 c 0
 1149 1307 814 1070 533 844 c 1
 407 739 296 630 296 488 c 0
 296 306 455 139 658 139 c 0
 744 139 784 185 801 203 c 0
 888 296 916 392 916 439 c 0
 916 497 1080 623 1125 623 c 0
 1132 623 1136 620 1136 613 c 0
 1136 341 704 -30 462 -30 c 0
 252 -30 63 118 63 341 c 0
 63 689 651 946 829 1233 c 0
 879 1313 901 1384 901 1466 c 0
EndSplineSet
EndChar

StartChar: uniE024.lig_open
Encoding: 65694 -1 348
Width: 725
VWidth: 0
Flags: HW
LayerCount: 2
Fore
SplineSet
375 1515 m 0
 365 1515 360 1519 360 1526 c 0
 360 1566 514 1702 571 1702 c 0
 611 1702 671 1674 671 1595 c 0
 671 1274 296 850 296 539 c 0
 296 305 471 140 659 140 c 0
 745 140 784 185 801 203 c 0
 888 296 916 392 916 439 c 0
 916 497 1080 623 1125 623 c 0
 1132 623 1136 620 1136 613 c 0
 1136 344 709 -30 458 -30 c 0
 237 -30 63 155 63 379 c 0
 63 709 449 1127 449 1434 c 0
 449 1492 399 1515 375 1515 c 0
EndSplineSet
EndChar

StartChar: uniE025
Encoding: 57381 57381 349
Width: 1165
VWidth: 0
Flags: HW
LayerCount: 2
Fore
SplineSet
554 221 m 0
 623 221 642 262 687 262 c 0
 695 262 699 259 699 253 c 0
 699 213 503 51 349 51 c 0
 204 51 62 182 62 358 c 0
 62 492 144 652 369 799 c 0
 442 847 560 914 692 914 c 0
 906 914 1102 721 1102 424 c 0
 1102 347 1091 -159 646 -571 c 0
 529 -679 323 -819 249 -819 c 0
 243 -819 234 -817 234 -810 c 0
 234 -774 355 -710 402 -675 c 0
 652 -490 868 -109 868 282 c 0
 868 569 673 744 482 744 c 0
 447 744 412 738 379 726 c 1
 321 657 296 583 296 513 c 0
 296 355 420 221 554 221 c 0
EndSplineSet
EndChar

StartChar: uniE026
Encoding: 57382 57382 350
Width: 1177
VWidth: 0
Flags: HW
LayerCount: 2
Fore
SplineSet
665 1444 m 0
 665 1544 575 1526 575 1542 c 0
 575 1582 738 1703 796 1703 c 0
 837 1703 898 1675 898 1599 c 0
 898 1295 433 976 433 690 c 0
 433 544 542 446 659 446 c 0
 764 446 826 514 849 534 c 0
 887 567 935 600 955 600 c 0
 961 600 965 597 965 590 c 0
 965 534 691 265 463 265 c 0
 435 265 408 269 382 278 c 1
 304 171 296 64 296 14 c 0
 296 -182 471 -312 647 -312 c 0
 720 -312 828 -288 840 -270 c 0
 860 -241 869 -208 869 -174 c 0
 869 -100 825 -26 745 1 c 0
 732 5 730 7 730 13 c 0
 730 53 896 173 950 173 c 0
 992 173 1103 99 1103 -20 c 0
 1103 -106 1046 -214 865 -336 c 0
 713 -438 570 -481 449 -481 c 0
 217 -481 62 -325 62 -138 c 0
 62 85 207 228 311 315 c 1
 281 339 200 405 200 541 c 0
 200 844 665 1169 665 1444 c 0
EndSplineSet
EndChar

StartChar: uniE026.flat
Encoding: 65695 -1 351
Width: 1177
VWidth: 0
Flags: HW
LayerCount: 2
Fore
SplineSet
867 1464 m 0
 867 1556 781 1531 781 1550 c 0
 781 1586 943 1703 1007 1703 c 0
 1042 1703 1115 1674 1115 1589 c 0
 1115 1324 744 1088 565 916 c 0
 443 799 434 722 434 674 c 0
 434 553 530 446 658 446 c 0
 754 446 801 491 849 534 c 0
 888 569 935 600 955 600 c 0
 961 600 965 597 965 590 c 0
 965 538 699 266 466 266 c 3
 425 266 403 271 383 278 c 1
 371 262 296 169 296 9 c 0
 296 -166 452 -312 647 -312 c 0
 720 -312 828 -288 840 -270 c 0
 860 -241 869 -208 869 -174 c 0
 869 -100 825 -26 745 1 c 0
 732 5 730 7 730 13 c 0
 730 53 896 173 950 173 c 0
 979 173 1102 115 1102 -20 c 0
 1102 -226 728 -481 446 -481 c 0
 214 -481 61 -326 61 -127 c 0
 61 11 135 171 309 314 c 1
 257 350 200 425 200 529 c 7
 200 879 867 1095 867 1464 c 0
EndSplineSet
EndChar

StartChar: uniE026.open
Encoding: 65696 -1 352
Width: 1177
VWidth: 0
Flags: HW
LayerCount: 2
Fore
SplineSet
435 1515 m 0
 425 1515 421 1519 421 1526 c 0
 421 1566 570 1702 629 1702 c 0
 679 1702 732 1665 732 1597 c 0
 732 1324 433 975 433 713 c 0
 433 550 543 446 659 446 c 0
 752 446 803 493 849 534 c 0
 887 567 935 600 955 600 c 0
 961 600 965 597 965 590 c 0
 965 545 706 266 468 266 c 0
 439 266 410 270 382 279 c 1
 332 216 297 124 297 15 c 3
 297 -184 470 -312 648 -312 c 0
 720 -312 828 -288 840 -270 c 0
 860 -241 869 -208 869 -174 c 0
 869 -100 825 -26 745 1 c 0
 732 5 730 7 730 13 c 0
 730 53 896 173 950 173 c 0
 992 173 1103 99 1103 -20 c 0
 1103 -106 1046 -214 865 -336 c 0
 714 -438 571 -481 448 -481 c 0
 219 -481 62 -331 62 -135 c 3
 62 95 219 246 310 318 c 5
 231 388 201 469 201 556 c 0
 201 835 509 1179 509 1433 c 0
 509 1500 453 1515 435 1515 c 0
EndSplineSet
EndChar

StartChar: uniE027
Encoding: 57383 57383 353
Width: 1177
VWidth: 0
Flags: HW
LayerCount: 2
Fore
SplineSet
296 -158 m 0
 296 -91 596 166 772 166 c 0
 782 166 869 274 869 429 c 0
 869 608 709 744 517 744 c 0
 448 744 338 721 325 702 c 0
 305 674 296 641 296 607 c 0
 296 533 340 458 421 431 c 0
 433 427 434 425 434 419 c 0
 434 382 274 260 212 260 c 0
 174 260 61 333 61 452 c 0
 61 515 93 592 184 677 c 0
 302 788 510 914 727 914 c 0
 924 914 1102 779 1102 578 c 0
 1102 331 904 182 873 157 c 1
 914 147 1062 77 1062 -119 c 0
 1062 -348 935 -673 528 -863 c 0
 457 -896 398 -913 369 -913 c 0
 355 -913 348 -910 348 -902 c 0
 348 -885 393 -852 468 -820 c 0
 642 -745 828 -533 828 -257 c 0
 828 -101 706 -14 605 -14 c 0
 511 -14 462 -57 415 -100 c 0
 374 -137 326 -167 306 -167 c 0
 300 -167 296 -164 296 -158 c 0
EndSplineSet
EndChar

StartChar: uniE02B
Encoding: 57387 57387 354
Width: 1125
VWidth: 0
Flags: HW
LayerCount: 2
Fore
SplineSet
1063 537 m 0
 1063 228 685 -30 451 -30 c 0
 232 -30 62 137 62 341 c 0
 62 670 452 914 672 914 c 0
 896 914 1063 744 1063 537 c 0
829 384 m 0
 829 575 679 743 473 743 c 0
 441 743 409 739 375 731 c 1
 320 656 295 575 295 499 c 0
 295 306 452 140 655 140 c 0
 686 140 717 144 750 152 c 1
 805 227 829 307 829 384 c 0
EndSplineSet
EndChar

StartChar: uniE02B.conr
Encoding: 65697 -1 355
Width: 1176
VWidth: 0
Flags: HW
LayerCount: 2
Fore
SplineSet
1063 536 m 0
 1063 234.7734375 689.965625 -30 451 -30 c 0
 232 -30 62 137 62 341 c 0
 62 670 452 914 673 914 c 0
 757 914 768 887 1189 883 c 1
 1189 714 l 1
 1020 714 l 1
 1050 655 1063 595 1063 536 c 0
829 384 m 0
 829 572 686 744 453 744 c 0
 433 744 411 741 375 731 c 1
 320 656 295 575 295 499 c 0
 295 306 452 140 655 140 c 0
 686 140 717 144 750 152 c 1
 804 225 829 305 829 384 c 0
EndSplineSet
EndChar

StartChar: uniE032
Encoding: 57394 57394 356
Width: 1026
VWidth: 0
Flags: HW
LayerCount: 2
Fore
SplineSet
1102 341 m 0
 1102 300 723 -30 401 -30 c 0
 199 -30 62 143 62 305 c 0
 62 612 481 883 682 883 c 0
 815 883 876 782 876 773 c 0
 876 735 714 614 656 614 c 0
 636 614 637 656 559 694 c 0
 531 708 504 714 477 714 c 0
 450 714 422 708 392 698 c 1
 325 619 297 537 297 460 c 0
 297 285 444 140 610 140 c 0
 811 140 913 256 978 299 c 0
 1034 336 1071 350 1089 350 c 0
 1098 350 1102 347 1102 341 c 0
EndSplineSet
EndChar

StartChar: uniE032.desc
Encoding: 65698 -1 357
Width: 1087
VWidth: 0
Flags: HW
LayerCount: 2
Fore
SplineSet
62 305 m 0
 62 612 481 883 682 883 c 0
 815 883 876 782 876 773 c 0
 876 735 714 614 656 614 c 0
 636 614 637 656 559 694 c 0
 531 708 504 714 477 714 c 0
 450 714 422 708 392 698 c 1
 325 619 297 537 297 460 c 0
 297 285 444 140 610 140 c 0
 811 140 913 256 978 299 c 1
 1033 337 1070 350 1088 350 c 0
 1097 350 1102 346 1102 341 c 0
 1102 313 986 202 744 -165 c 0
 699 -234 659 -271 642 -271 c 0
 636 -271 633 -267 633 -259 c 0
 633 -204 711 -111 823 110 c 1
 767 77 610 -30 401 -30 c 0
 200 -30 62 143 62 305 c 0
EndSplineSet
EndChar

StartChar: uniE032.dec
Encoding: 65699 -1 358
Width: 1171
VWidth: 0
Flags: HW
LayerCount: 2
Fore
SplineSet
644 140 m 0
 937 140 1077 350 1173 350 c 0
 1180 350 1185 348 1185 341 c 0
 1185 288 939 135 827 78 c 0
 719 23 584 -30 435 -30 c 0
 211 -30 63 175 63 361 c 0
 63 709 526 1016 778 1016 c 0
 917 1016 1007 901 1007 883 c 0
 1007 845 848 725 790 725 c 0
 782 725 775 727 772 732 c 0
 721 814 618 846 568 846 c 0
 562 846 557 846 553 845 c 1
 553 153 l 1
 587 143 604 140 644 140 c 0
296 514 m 0
 296 438 321 356 384 272 c 1
 384 765 l 1
 334 694 296 608 296 514 c 0
EndSplineSet
EndChar

StartChar: uniE031
Encoding: 57393 57393 359
Width: 1077
VWidth: 0
Flags: HW
LayerCount: 2
Fore
SplineSet
207 7 m 0
 63 7 63 0 47 0 c 0
 37 0 32 4 32 10 c 0
 32 44 166 153 244 166 c 0
 289 174 356 172 397 183 c 0
 645 246 695 303 730 392 c 0
 747 436 755 477 755 513 c 0
 755 663 620 744 462 744 c 0
 404 744 295 731 287 713 c 0
 275 685 270 660 270 639 c 0
 270 584 301 553 301 549 c 0
 301 508 135 388 80 388 c 0
 57 388 37 443 37 484 c 0
 37 683 370 915 659 915 c 0
 845 915 989 824 989 672 c 0
 989 465 835 314 616 183 c 1
 713 183 781 182 830 182 c 0
 924 182 949 186 982 207 c 1
 1042 248 1084 264 1104 264 c 0
 1113 264 1118 261 1118 255 c 0
 1118 205 813 -3 694 -3 c 0
 648 -3 384 7 207 7 c 0
EndSplineSet
EndChar

StartChar: uniE031.desc
Encoding: 65700 -1 360
Width: 1063
VWidth: 0
Flags: HW
LayerCount: 2
Fore
SplineSet
660 913 m 0
 858.416963106 913 989 782.984040602 989 609 c 0
 989 414 867 61 278 -364 c 1
 375 -364 278 -355 761 -355 c 0
 997 -355 930 -353 1037 -298 c 0
 1069 -281 1091 -275 1104 -275 c 0
 1114 -275 1118 -279 1118 -284 c 0
 1118 -326 951 -429 934 -440 c 0
 802 -523 759 -541 647 -541 c 0
 562 -541 438 -531 205 -531 c 0
 71 -531 12 -537 -14 -537 c 0
 -30 -537 -33 -535 -33 -528 c 0
 -33 -503 39 -413 161 -351 c 0
 510 -175 755 181 755 461 c 0
 755 613 643 744 457 744 c 0
 412 744 362 736 308 719 c 1
 285 681 271 643 271 592 c 0
 271 499 340 481 340 466 c 0
 340 427 179 306 119 306 c 0
 107 306 37 349 37 441 c 0
 37 662 379 913 660 913 c 0
EndSplineSet
EndChar

StartChar: uniE029
Encoding: 57385 57385 361
Width: 1440
VWidth: 0
Flags: HW
LayerCount: 2
Fore
SplineSet
827 879 m 0
 829 879 830 1104 830 1160 c 0
 830 1273 829 1513 736 1513 c 0
 723 1513 699 1501 686 1501 c 0
 680 1501 677 1503 677 1509 c 0
 677 1548 825 1702 926 1702 c 0
 1049 1702 1058 1503 1061 1219 c 0
 1064 934 1065 793 1065 508 c 0
 1065 157 1097 213 1131 169 c 1
 1213 166 1284 155 1335 155 c 0
 1413 155 1439 208 1492 208 c 0
 1500 208 1503 205 1503 200 c 0
 1503 159 1301 -15 1134 -15 c 0
 1057 -15 979 -1 913 -1 c 0
 747 -1 604 -30 438 -30 c 0
 213 -30 63 145 63 342 c 0
 63 676 427 914 653 914 c 0
 754 914 820 879 827 879 c 0
296 497 m 0
 296 304 438 139 652 139 c 0
 688 139 800 143 838 151 c 1
 835 210 829 151 826 387 c 0
 825 435 827 494 781 567 c 0
 716 671 580 744 444 744 c 0
 420 744 395 742 371 737 c 1
 320 659 296 575 296 497 c 0
EndSplineSet
EndChar

StartChar: uniE03D
Encoding: 57405 57405 362
Width: 1358
VWidth: 0
Flags: HW
LayerCount: 2
Fore
SplineSet
1285 155 m 0
 1324 155 1388 201 1414 201 c 0
 1421 201 1425 197 1425 189 c 0
 1425 154 1232 -15 1083 -15 c 0
 1025 -15 964 -2 904 -2 c 0
 741 -2 590 -30 439 -30 c 0
 213 -30 63 145 63 342 c 0
 63 689 449 914 636 914 c 0
 867 914 1059 772 1059 559 c 0
 1059 380 967 258 849 152 c 1
 872 152 999 168 1104 168 c 0
 1179 168 1242 155 1285 155 c 0
826 409 m 0
 826 603 641 744 444 744 c 0
 420 744 395 741 371 737 c 1
 318 657 295 576 295 500 c 0
 295 303 450 140 642 140 c 0
 674 140 707 144 741 154 c 1
 791 218 826 305 826 409 c 0
EndSplineSet
EndChar

StartChar: uniE03C
Encoding: 57404 57404 363
Width: 1106
VWidth: 0
Flags: HW
LayerCount: 2
Fore
SplineSet
205 658 m 0
 205 722 206 794 206 868 c 0
 206 1172 195 1513 90 1513 c 0
 74 1513 52 1501 40 1501 c 0
 34 1501 31 1504 31 1511 c 0
 31 1556 189 1702 276 1702 c 0
 406 1702 439 1503 439 735 c 1
 537 814 666 899 828 899 c 0
 969 899 1044 775 1044 644 c 0
 1044 270 561 82 345 -83 c 0
 145 -236 117 -382 117 -457 c 0
 117 -541 225 -611 282 -611 c 0
 321 -611 346 -602 360 -596 c 1
 416 -530 487 -468 519 -468 c 0
 524 -468 529 -470 529 -478 c 0
 529 -522 337 -781 76 -781 c 0
 -11 -781 -116 -701 -116 -605 c 0
 -116 -513 -98 -309 191 -92 c 1
 191 -5 205 276 205 658 c 0
810 501 m 0
 810 630 729 730 618 730 c 0
 564 730 502 706 439 649 c 1
 439 504 430 104 424 54 c 1
 649 187 810 286 810 501 c 0
EndSplineSet
EndChar

StartChar: uniE058
Encoding: 57432 57432 364
Width: 1092
VWidth: 0
Flags: HW
LayerCount: 2
Fore
SplineSet
770 -267 m 0
 770 -158 688 4 288 4 c 0
 208 4 97 1 -13 0 c 1
 -13 170 l 1
 211 171 357 174 462 174 c 0
 591 174 659 169 735 151 c 1
 862 119 1004 40 1004 -118 c 0
 1004 -410 612 -657 364 -657 c 0
 210 -657 149 -539 149 -534 c 0
 149 -496 310 -373 371 -373 c 0
 377 -373 378 -374 386 -386 c 0
 436 -466 514 -487 581 -487 c 0
 648 -487 703 -466 708 -460 c 0
 732 -432 770 -361 770 -267 c 0
EndSplineSet
EndChar

StartChar: uniE058.high
Encoding: 65701 -1 365
Width: 1011
VWidth: 0
Flags: HW
LayerCount: 2
Fore
SplineSet
690 431 m 0
 690 579 562 716 235 716 c 0
 172 716 95 714 -13 714 c 1
 -13 884 l 1
 176 884 303 886 396 886 c 0
 565 886 617 880 706 848 c 0
 794 817 923 746 923 592 c 0
 923 431 819 299 664 189 c 0
 534 97 406 48 286 48 c 0
 123 48 68 170 68 173 c 0
 68 208 226 332 285 332 c 0
 294 332 301 329 304 323 c 0
 352 246 426 219 500 219 c 0
 542 219 583 227 621 240 c 1
 665 299 690 366 690 431 c 0
EndSplineSet
EndChar

StartChar: uniE034
Encoding: 57396 57396 366
Width: 846
VWidth: 0
Flags: HW
LayerCount: 2
Fore
SplineSet
-6 694 m 0
 -6 731 141 883 236 883 c 0
 277 883 734 879 1117 875 c 0
 1211 874 1218 876 1218 866 c 0
 1218 834 1095 730 1016 707 c 0
 990 699 650 703 388 697 c 1
 396 647 398 587 398 528 c 0
 398 480 397 433 397 392 c 0
 397 356 398 324 401 302 c 0
 416 219 480 166 532 166 c 0
 546 166 575 180 590 180 c 0
 596 180 601 178 601 171 c 0
 601 138 446 1 331 1 c 0
 258 1 156 61 156 208 c 0
 156 286 166 418 166 461 c 0
 166 588 112 694 46 694 c 0
 28 694 -6 673 -6 694 c 0
EndSplineSet
EndChar

StartChar: uniE034.long
Encoding: 65702 -1 367
Width: 846
VWidth: 0
Flags: HW
LayerCount: 2
Fore
SplineSet
-6 694 m 0
 -6 731 141 883 236 883 c 0
 281 883 834 879 1289 875 c 0
 1401 874 1410 876 1410 866 c 0
 1410 827 1274 726 1208 707 c 0
 1194 703 653 698 388 698 c 1
 396 648 398 588 398 529 c 0
 398 481 397 433 397 392 c 0
 397 356 398 324 401 302 c 0
 416 219 480 166 532 166 c 0
 546 166 575 180 590 180 c 0
 596 180 601 178 601 171 c 0
 601 138 446 1 331 1 c 0
 258 1 156 61 156 208 c 0
 156 286 166 418 166 461 c 0
 166 588 112 694 46 694 c 0
 28 694 -6 673 -6 694 c 0
EndSplineSet
EndChar

StartChar: uniE034.conr
Encoding: 65703 -1 368
Width: 846
VWidth: 0
Flags: HW
LayerCount: 2
Fore
SplineSet
398 535 m 0
 398 483 397 431 397 387 c 0
 397 353 398 323 401 302 c 0
 416 219 480 166 532 166 c 0
 546 166 575 180 590 180 c 0
 596 180 601 178 601 171 c 0
 601 138 446 1 331 1 c 0
 258 1 156 61 156 208 c 0
 156 286 166 418 166 461 c 0
 166 588 112 694 46 694 c 0
 28 694 -6 673 -6 694 c 0
 -6 730 140 883 235 883 c 0
 301 883 393 886 555 886 c 0
 636 886 735 885 858 883 c 1
 858 714 l 5
 818 715 778 715 739 715 c 0
 594 715 460 710 386 707 c 5
 396 659 398 597 398 535 c 0
EndSplineSet
EndChar

StartChar: uniE057.norm
Encoding: 65704 -1 369
Width: 0
VWidth: 0
Flags: HW
LayerCount: 2
Fore
SplineSet
-163 -332 m 0
 -163 -293 0 -171 60 -171 c 0
 111 -171 186 -215 186 -329 c 0
 186 -481 81 -614 6 -708 c 0
 -64 -795 -134 -877 -169 -877 c 0
 -177 -877 -178 -871 -178 -866 c 0
 -178 -816 -48 -707 -48 -496 c 0
 -48 -410 -87 -340 -146 -340 c 0
 -159 -340 -163 -339 -163 -332 c 0
EndSplineSet
EndChar

StartChar: utehtadot_norm
Encoding: 65705 -1 370
Width: 0
VWidth: 0
Flags: HW
LayerCount: 2
Fore
SplineSet
-69 1368 m 0
 -45 1368 -21 1328 66 1247 c 0
 83 1231 91 1219 91 1207 c 0
 91 1179 46 1152 -29 1072 c 0
 -45 1055 -57 1047 -69 1047 c 0
 -97 1047 -124 1092 -204 1167 c 0
 -221 1183 -230 1196 -230 1208 c 0
 -230 1220 -222 1231 -204 1247 c 0
 -117 1328 -93 1368 -69 1368 c 0
-173 1360 m 0
 -183 1360 -187 1364 -187 1369 c 0
 -187 1435 43 1632 219 1632 c 0
 362 1632 396 1548 396 1493 c 0
 396 1357 213 1124 49 899 c 0
 17 854 -38 780 -68 780 c 0
 -73 780 -77 783 -77 792 c 0
 -77 854 60 1001 148 1269 c 0
 157 1297 161 1318 161 1339 c 0
 161 1444 61 1470 22 1470 c 0
 11 1470 -23 1424 -111 1381 c 0
 -142 1366 -161 1360 -173 1360 c 0
EndSplineSet
EndChar

StartChar: uniE04C.norm
Encoding: 65706 -1 371
Width: 0
VWidth: 0
Flags: HW
LayerCount: 2
Fore
SplineSet
-224 1255 m 0
 -231 1255 -246 1256 -246 1321 c 0
 -246 1479 34 1632 171 1632 c 0
 239 1632 345 1604 345 1492 c 0
 345 1355 147 1104 -2 899 c 0
 -33 855 -89 780 -119 780 c 0
 -124 780 -128 783 -128 792 c 0
 -128 846 -54 915 43 1131 c 0
 85 1224 110 1297 110 1339 c 0
 110 1368 100 1449 -11 1468 c 1
 -9 1425 -4 1426 -4 1415 c 0
 -4 1376 -167 1255 -224 1255 c 0
EndSplineSet
EndChar

StartChar: uniE04C.double_norm
Encoding: 65707 -1 372
Width: 0
VWidth: 0
Flags: HW
LayerCount: 2
Fore
SplineSet
-440 1302 m 0
 -440 1465 -164 1616 -19 1616 c 0
 88 1616 130 1550 130 1550 c 1
 135 1550 241 1625 354 1625 c 0
 447 1625 529 1582 529 1485 c 0
 529 1342 343 1126 144 864 c 0
 117 828 69 782 50 782 c 0
 45 782 41 786 41 794 c 0
 41 858 196 1010 279 1259 c 0
 290 1292 293 1308 293 1333 c 0
 293 1439 191 1463 152 1463 c 0
 143 1463 167 1454 102 1323 c 0
 43 1204 -52 1075 -178 892 c 1
 -226 820 -269 778 -287 778 c 0
 -293 778 -296 782 -296 791 c 0
 -296 846 -194 966 -103 1237 c 0
 -87 1284 -85 1294 -85 1323 c 0
 -85 1438 -202 1452 -204 1452 c 0
 -210 1452 -198 1402 -198 1399 c 0
 -198 1362 -358 1240 -419 1240 c 2
 -420 1240 l 2
 -426 1240 -440 1241 -440 1302 c 0
EndSplineSet
EndChar

StartChar: uniE04B.norm
Encoding: 65708 -1 373
Width: 0
VWidth: 0
Flags: HW
LayerCount: 2
Fore
SplineSet
164 -320 m 0
 177 -320 185 -335 185 -386 c 0
 185 -529 -78 -698 -230 -698 c 0
 -359 -698 -405 -626 -405 -557 c 0
 -405 -381 -152 -165 -69 -86 c 0
 26 3 109 90 147 90 c 0
 154 90 158 86 158 80 c 0
 158 22 -12 -112 -70 -182 c 0
 -118 -239 -171 -332 -171 -405 c 0
 -171 -516 -57 -529 -49 -531 c 1
 -51 -489 -57 -489 -57 -479 c 0
 -57 -441 108 -320 164 -320 c 0
EndSplineSet
EndChar

StartChar: otehtadot_norm
Encoding: 65709 -1 374
Width: 0
VWidth: 0
Flags: HW
LayerCount: 2
Fore
SplineSet
175 1326 m 0
 199 1326 222 1286 310 1204 c 0
 327 1188 335 1176 335 1164 c 0
 335 1136 290 1109 215 1029 c 0
 199 1012 187 1004 175 1004 c 0
 147 1004 120 1049 40 1124 c 0
 23 1140 14 1153 14 1165 c 0
 14 1177 22 1188 40 1204 c 0
 127 1285 151 1326 175 1326 c 0
552 1432 m 0
 552 1362.70735375 367.778148805 1264 327 1264 c 0
 319 1264 315 1267 315 1273 c 0
 315 1281 320 1289 320 1312 c 0
 320 1357 284 1419 216 1419 c 0
 -6 1419 -179 768 -261 768 c 0
 -267 768 -271 774 -271 787 c 0
 -271 864 -105 1189 -33 1305 c 0
 64 1462 199 1641 353 1641 c 0
 504 1641 552 1493 552 1432 c 0
EndSplineSet
EndChar

StartChar: uniE04A.norm
Encoding: 65710 -1 375
Width: 0
VWidth: 0
Flags: HW
LayerCount: 2
Fore
SplineSet
265 1420 m 0
 47 1420 -129 768 -210 768 c 0
 -218 768 -221 774 -221 785 c 0
 -221 829 -163 955 -99 1088 c 0
 15 1324 204 1641 406 1641 c 0
 522 1641 603 1540 603 1435 c 0
 603 1261 352 1167 280 1167 c 0
 268 1167 261 1169 261 1175 c 0
 261 1202 350 1244 357 1256 c 0
 367 1272 371 1289 371 1306 c 0
 371 1363 323 1420 265 1420 c 0
EndSplineSet
EndChar

StartChar: uniE04A.wide
Encoding: 65711 -1 376
Width: 0
VWidth: 0
Flags: HW
LayerCount: 2
Fore
SplineSet
660 1370 m 0
 660 1173 387 1123 308 1123 c 0
 296 1123 275 1126 275 1136 c 0
 275 1147 303 1170 370 1192 c 0
 394 1200 407 1231 407 1266 c 0
 407 1319 377 1380 304 1380 c 0
 86 1380 -208 780 -290 780 c 0
 -296 780 -299 784 -299 792 c 0
 -299 840 -230 928 -117 1090 c 1
 26 1287 269 1575 456 1575 c 0
 585 1575 660 1480 660 1370 c 0
EndSplineSet
EndChar

StartChar: uniE04A.narrow
Encoding: 65712 -1 377
Width: 0
VWidth: 0
Flags: HW
LayerCount: 2
Fore
SplineSet
35 760 m 0
 -16 760 -130 1211 -130 1443 c 0
 -130 1721 15 1770 81 1770 c 0
 201 1770 295 1689 295 1568 c 0
 295 1448 196 1272 162 1272 c 0
 155 1272 152 1278 152 1289 c 0
 152 1321 178 1389 178 1393 c 0
 178 1444 122 1489 65 1489 c 0
 17 1489 -32 1456 -46 1367 c 0
 -48 1355 -48 1351 -48 1309 c 0
 -48 1104 47 915 47 800 c 0
 47 781 46 760 35 760 c 0
EndSplineSet
EndChar

StartChar: uniE04A.double_norm
Encoding: 65713 -1 378
Width: 0
VWidth: 0
Flags: HW
LayerCount: 2
Fore
SplineSet
75 1389 m 0
 -142 1389 -279 766 -359 766 c 0
 -366 766 -370 772 -370 784 c 0
 -370 822 -334 923 -256 1095 c 0
 -136 1359 27 1616 210 1616 c 0
 247 1616 319 1605 376 1519 c 1
 410 1549 492 1621 585 1621 c 0
 723 1621 786 1506 786 1416 c 0
 786 1243 531 1151 456 1151 c 0
 443 1151 435 1153 435 1159 c 0
 435 1175 481 1206 516 1224 c 0
 539 1236 550 1262 550 1291 c 0
 550 1343 513 1404 446 1404 c 0
 227 1404 33 770 -49 770 c 0
 -55 770 -59 776 -59 788 c 0
 -59 863 125 1184 175 1263 c 0
 187 1282 181 1272 179 1287 c 0
 170 1359 117 1389 75 1389 c 0
EndSplineSet
EndChar

StartChar: uniE04A.double_wide
Encoding: 65714 -1 379
Width: 0
VWidth: 0
Flags: HW
LayerCount: 2
Fore
SplineSet
-118 782 m 0
 -125 782 -129 786 -129 793 c 0
 -129 864 205 1255 205 1255 c 1
 205 1273 182 1357 103 1357 c 0
 -118 1357 -361 777 -446 777 c 0
 -452 777 -454 781 -454 790 c 0
 -454 854 -192 1272 37 1464 c 0
 128 1540 208 1558 251 1558 c 0
 380 1558 425 1458 425 1458 c 1
 431 1458 535 1551 655 1551 c 0
 791 1551 852 1431 852 1354 c 0
 852 1209 737 1142 575 1112 c 0
 562 1110 529 1105 501 1105 c 0
 478 1105 459 1108 459 1119 c 0
 459 1141 538 1166 559 1172 c 0
 570 1175 597 1207 597 1252 c 0
 597 1314 552 1361 492 1361 c 0
 434 1361 388 1329 326 1277 c 0
 117 1102 -47 782 -118 782 c 0
EndSplineSet
EndChar

StartChar: uniE04A.double_narrow
Encoding: 65715 -1 380
Width: 0
VWidth: 0
Flags: HW
LayerCount: 2
Fore
SplineSet
-94 762 m 0
 -147 762 -271 1205 -271 1411 c 0
 -271 1644 -165 1722 -54 1722 c 0
 3 1722 44 1700 80 1673 c 1
 123 1739 186 1767 247 1767 c 0
 351 1767 452 1686 452 1566 c 0
 452 1447 345 1267 309 1267 c 0
 303 1267 299 1272 299 1284 c 0
 299 1301 308 1333 329 1384 c 1
 322 1448 271 1487 219 1487 c 0
 170 1487 98 1459 98 1290 c 0
 98 1108 177 917 177 805 c 0
 177 784 175 759 163 759 c 0
 107 759 22 1234 22 1392 c 1
 -3 1423 -39 1441 -74 1441 c 0
 -131 1441 -186 1395 -186 1284 c 0
 -186 1089 -82 907 -82 794 c 0
 -82 774 -86 762 -94 762 c 0
EndSplineSet
EndChar

StartChar: uniE04D.norm
Encoding: 65716 -1 381
Width: 0
VWidth: 0
Flags: HW
LayerCount: 2
Fore
SplineSet
-387 -634 m 0
 -387 -685 -348 -748 -282 -748 c 0
 -212 -748 -168 -698 -107 -596 c 0
 62 -314 130 122 196 122 c 0
 205 122 208 105 208 91 c 0
 208 48 198 12 122 -217 c 0
 -106 -900 -298 -987 -403 -987 c 0
 -530 -987 -602 -865 -602 -789 c 0
 -602 -719 -578 -650 -451 -563 c 0
 -399 -527 -334 -496 -306 -496 c 0
 -297 -496 -292 -499 -292 -506 c 0
 -292 -521 -325 -553 -361 -579 c 1
 -378 -589 -387 -610 -387 -634 c 0
EndSplineSet
EndChar

StartChar: uniE04D.narrow
Encoding: 65717 -1 382
Width: 0
VWidth: 0
Flags: HW
LayerCount: 2
Fore
SplineSet
-48 86 m 0
 -48 103 -45 124 -35 124 c 0
 -3 124 33 -12 42 -46 c 0
 92 -230 143 -422 143 -630 c 0
 143 -905 12 -962 -76 -962 c 0
 -171 -962 -282 -891 -282 -760 c 0
 -282 -638 -182 -464 -149 -464 c 0
 -142 -464 -139 -470 -139 -482 c 0
 -139 -501 -147 -534 -166 -582 c 1
 -157 -644 -106 -681 -55 -681 c 0
 -7 -681 41 -649 57 -574 c 0
 61 -557 62 -548 62 -488 c 0
 62 -273 -48 -29 -48 86 c 0
EndSplineSet
EndChar

StartChar: uniE04D.wide
Encoding: 65718 -1 383
Width: 0
VWidth: 0
Flags: HW
LayerCount: 2
Fore
SplineSet
-672 -696 m 0
 -672 -502 -391 -430 -339 -430 c 0
 -324 -430 -317 -434 -317 -440 c 0
 -317 -454 -356 -483 -413 -510 c 1
 -427 -531 -433 -554 -433 -576 c 0
 -433 -633 -392 -684 -329 -684 c 0
 -268 -684 -223 -646 -147 -558 c 0
 68 -309 216 113 285 113 c 0
 293 113 297 108 297 98 c 0
 297 33.9044800433 51.5843283055 -432.069099878 -142 -668 c 0
 -236 -783 -344 -899 -479 -899 c 0
 -587 -899 -672 -802 -672 -696 c 0
EndSplineSet
EndChar

StartChar: uniE04D.long
Encoding: 65719 -1 384
Width: 0
VWidth: 0
Flags: HW
LayerCount: 2
Fore
SplineSet
-742 -834 m 0
 -742 -640 -448 -577 -402 -577 c 0
 -387 -577 -378 -580 -378 -588 c 0
 -378 -614 -475 -655 -477 -656 c 0
 -492 -670 -500 -693 -500 -718 c 0
 -500 -771 -466 -833 -395 -833 c 0
 -327 -833 -272 -776 -218 -720 c 0
 88 -405 281 110 359 110 c 0
 367 110 371 105 371 96 c 0
 371 56 301 -67 203 -234 c 0
 51 -494 -68 -666 -203 -816 c 0
 -299 -922 -413 -1042 -547 -1042 c 0
 -665 -1042 -742 -942 -742 -834 c 0
EndSplineSet
EndChar

StartChar: uniE040.norm
Encoding: 65720 -1 385
Width: 0
VWidth: 0
Flags: HW
LayerCount: 2
Fore
SplineSet
166 1324 m 0
 185 1324 182 1322 301 1203 c 0
 317 1187 325 1176 325 1165 c 0
 325 1140 287 1113 205 1031 c 0
 186 1012 182 1007 166 1007 c 0
 149 1007 151 1008 32 1127 c 0
 16 1143 7 1154 7 1165 c 0
 7 1176 15 1187 32 1203 c 0
 152 1323 147 1324 166 1324 c 0
-166 1324 m 0
 -147 1324 -151 1322 -32 1203 c 0
 -16 1187 -8 1176 -8 1165 c 0
 -8 1140 -46 1113 -128 1031 c 0
 -144 1015 -155 1007 -167 1007 c 0
 -192 1007 -219 1045 -301 1127 c 0
 -317 1143 -326 1154 -326 1165 c 0
 -326 1176 -318 1187 -301 1203 c 0
 -181 1323 -185 1324 -166 1324 c 0
-0 1605 m 0
 19 1605 15 1604 134 1485 c 0
 150 1469 159 1462 159 1447 c 0
 159 1429 159 1433 38 1312 c 0
 22 1296 11 1288 -0 1288 c 0
 -25 1288 -52 1326 -134 1408 c 0
 -150 1424 -159 1435 -159 1447 c 0
 -159 1458 -151 1469 -134 1485 c 0
 -14 1605 -19 1605 -0 1605 c 0
EndSplineSet
EndChar

StartChar: uniE041.norm
Encoding: 65721 -1 386
Width: 0
VWidth: 0
Flags: HW
LayerCount: 2
Fore
SplineSet
-0 -404 m 0
 19 -404 15 -406 134 -525 c 0
 150 -541 159 -552 159 -563 c 0
 159 -586 122 -613 38 -697 c 0
 22 -713 11 -721 -0 -721 c 0
 -25 -721 -52 -683 -134 -601 c 0
 -150 -585 -159 -574 -159 -563 c 0
 -159 -552 -151 -541 -134 -525 c 0
 -14 -405 -19 -404 -0 -404 c 0
166 -123 m 0
 185 -123 182 -124 301 -243 c 0
 317 -259 325 -266 325 -281 c 0
 325 -299 326 -295 205 -416 c 0
 186 -435 182 -440 166 -440 c 0
 149 -440 151 -439 32 -320 c 0
 16 -304 7 -293 7 -281 c 0
 7 -270 15 -259 32 -243 c 0
 152 -123 147 -123 166 -123 c 0
-166 -123 m 0
 -147 -123 -151 -124 -32 -243 c 0
 -16 -259 -8 -266 -8 -281 c 0
 -8 -299 -7 -295 -128 -416 c 0
 -144 -432 -155 -440 -167 -440 c 0
 -192 -440 -219 -402 -301 -320 c 0
 -317 -304 -326 -293 -326 -281 c 0
 -326 -270 -318 -259 -301 -243 c 0
 -181 -123 -185 -123 -166 -123 c 0
EndSplineSet
EndChar

StartChar: uniE056.norm
Encoding: 65722 -1 387
Width: 0
VWidth: 0
Flags: HW
LayerCount: 2
Fore
SplineSet
-0 1324 m 0
 19 1324 15 1322 134 1203 c 0
 150 1187 159 1176 159 1165 c 0
 159 1142 122 1115 38 1031 c 0
 22 1015 11 1007 -0 1007 c 0
 -25 1007 -52 1045 -134 1127 c 0
 -150 1143 -159 1154 -159 1165 c 0
 -159 1176 -151 1187 -134 1203 c 0
 -14 1323 -19 1324 -0 1324 c 0
166 1605 m 0
 185 1605 182 1604 301 1485 c 0
 317 1469 325 1462 325 1447 c 0
 325 1429 326 1433 205 1312 c 0
 186 1293 182 1288 166 1288 c 0
 149 1288 151 1289 32 1408 c 0
 16 1424 7 1435 7 1447 c 0
 7 1458 15 1469 32 1485 c 0
 152 1605 147 1605 166 1605 c 0
-166 1605 m 0
 -147 1605 -151 1604 -32 1485 c 0
 -16 1469 -8 1462 -8 1447 c 0
 -8 1429 -7 1433 -128 1312 c 0
 -144 1296 -155 1288 -167 1288 c 0
 -192 1288 -219 1326 -301 1408 c 0
 -317 1424 -326 1435 -326 1447 c 0
 -326 1458 -318 1469 -301 1485 c 0
 -181 1605 -185 1605 -166 1605 c 0
EndSplineSet
EndChar

StartChar: uniE042.norm
Encoding: 65723 -1 388
Width: 0
VWidth: 0
Flags: HW
LayerCount: 2
Fore
SplineSet
192 1327 m 0
 216 1327 239 1287 327 1205 c 0
 344 1189 352 1177 352 1165 c 0
 352 1137 307 1110 232 1030 c 0
 216 1013 204 1005 192 1005 c 0
 164 1005 137 1050 57 1125 c 0
 40 1141 31 1154 31 1166 c 0
 31 1178 39 1189 57 1205 c 0
 144 1286 168 1327 192 1327 c 0
-192 1327 m 0
 -168 1327 -145 1287 -57 1205 c 0
 -40 1189 -32 1177 -32 1165 c 0
 -32 1137 -77 1110 -152 1030 c 0
 -168 1013 -180 1005 -192 1005 c 0
 -220 1005 -247 1050 -327 1125 c 0
 -344 1141 -353 1154 -353 1166 c 0
 -353 1178 -345 1189 -327 1205 c 0
 -240 1286 -216 1327 -192 1327 c 0
EndSplineSet
EndChar

StartChar: uniE043.norm
Encoding: 65724 -1 389
Width: 0
VWidth: 0
Flags: HW
LayerCount: 2
Fore
SplineSet
192 -120 m 0
 216 -120 240 -160 327 -241 c 0
 344 -257 352 -269 352 -281 c 0
 352 -309 307 -336 232 -416 c 0
 215 -434 204 -442 192 -442 c 0
 164 -442 138 -397 57 -321 c 0
 40 -305 31 -292 31 -280 c 0
 31 -268 39 -257 57 -241 c 0
 144 -160 168 -120 192 -120 c 0
-192 -120 m 0
 -168 -120 -144 -160 -57 -241 c 0
 -40 -257 -32 -269 -32 -281 c 0
 -32 -309 -77 -336 -152 -416 c 0
 -169 -434 -180 -442 -192 -442 c 0
 -220 -442 -246 -397 -327 -321 c 0
 -344 -305 -353 -292 -353 -280 c 0
 -353 -268 -345 -257 -327 -241 c 0
 -240 -160 -216 -120 -192 -120 c 0
EndSplineSet
EndChar

StartChar: uniE044.norm
Encoding: 65725 -1 390
Width: 0
VWidth: 0
Flags: HW
LayerCount: 2
Fore
SplineSet
0 1335 m 0
 26 1335 51 1292 143 1206 c 0
 161 1189 169 1177 169 1165 c 0
 169 1135 120 1107 40 1022 c 0
 23 1004 11 996 -1 996 c 0
 -30 996 -56 1044 -143 1125 c 0
 -161 1142 -170 1153 -170 1165 c 0
 -170 1177 -161 1189 -143 1206 c 0
 -51 1292 -26 1335 0 1335 c 0
EndSplineSet
EndChar

StartChar: uniE045.norm
Encoding: 65726 -1 391
Width: 0
VWidth: 0
Flags: HW
LayerCount: 2
Fore
SplineSet
0 -112 m 0
 26 -112 51 -155 143 -241 c 0
 161 -258 169 -270 169 -282 c 0
 169 -311 121 -338 40 -425 c 0
 24 -442 12 -450 0 -450 c 0
 -29 -450 -57 -402 -143 -322 c 0
 -161 -305 -170 -293 -170 -281 c 0
 -170 -269 -161 -258 -143 -241 c 0
 -51 -155 -26 -112 0 -112 c 0
EndSplineSet
EndChar

StartChar: uniE05A.norm
Encoding: 65727 -1 392
Width: 0
VWidth: 0
Flags: HW
LayerCount: 2
Fore
SplineSet
-0 603 m 0
 24 603 48 563 135 482 c 0
 152 466 160 454 160 442 c 0
 160 414 115 387 39 306 c 0
 25 290 14 282 2 282 c 0
 -26 282 -56 328 -135 402 c 0
 -152 418 -161 430 -161 442 c 0
 -161 454 -152 465 -135 482 c 1
 -48 562 -24 603 -0 603 c 0
EndSplineSet
EndChar

StartChar: uniE05A.conu
Encoding: 65728 -1 393
Width: 0
VWidth: 0
Flags: HW
LayerCount: 2
Fore
SplineSet
132 866 m 0
 150 866 148 857 148 853 c 0
 148 851 138 532 135 516 c 0
 124 466 -26 343 -73 343 c 0
 -89 343 -85 343 -93 581 c 0
 -96 669 -97 704 -97 719 c 0
 -97 771 80 866 132 866 c 0
EndSplineSet
EndChar

StartChar: uniE05A.cond
Encoding: 65729 -1 394
Width: 0
VWidth: 0
Flags: HW
LayerCount: 2
Fore
SplineSet
-136 18 m 0
 -151 18 -148 30 -148 31 c 0
 -148 33 -138 351 -135 367 c 0
 -125 416 26 540 73 540 c 0
 90 540 85 541 93 303 c 0
 95 233 97 195 97 174 c 0
 97 144 93 146 80 132 c 0
 37 88 -80 18 -136 18 c 0
EndSplineSet
EndChar

StartChar: uniE046.norm
Encoding: 65730 -1 395
Width: 0
VWidth: 0
Flags: HW
LayerCount: 2
Fore
SplineSet
-130 1081 m 0
 -139 1081 -143 1085 -143 1090 c 0
 -143 1099 116 1494 122 1501 c 0
 169 1557 302 1612 348 1612 c 0
 358 1612 364 1609 364 1603 c 0
 364 1591 66 1202 66 1202 c 1
 19 1150 -89 1081 -130 1081 c 0
EndSplineSet
EndChar

StartChar: uniE046.double_norm
Encoding: 65731 -1 396
Width: 0
VWidth: 0
Flags: HW
LayerCount: 2
Fore
SplineSet
23 1081 m 0
 14 1081 11 1084 11 1089 c 0
 11 1099 9 1093 232 1436 c 0
 270 1494 275 1518 374 1570 c 0
 431 1599 476 1613 499 1613 c 0
 511 1613 517 1610 517 1603 c 0
 517 1591 220 1202 220 1202 c 1
 173 1150 64 1081 23 1081 c 0
-284 1081 m 0
 -291 1081 -297 1083 -297 1090 c 0
 -297 1099 -38 1494 -32 1501 c 0
 15 1557 148 1612 194 1612 c 0
 204 1612 210 1609 210 1603 c 0
 210 1591 -87 1202 -87 1202 c 1
 -134 1150 -243 1081 -284 1081 c 0
EndSplineSet
EndChar

StartChar: uniE047.norm
Encoding: 65732 -1 397
Width: 0
VWidth: 0
Flags: HW
LayerCount: 2
Fore
SplineSet
-347 -728 m 0
 -358 -728 -364 -725 -364 -719 c 0
 -364 -707 -66 -318 -66 -318 c 1
 -31 -279 79 -197 130 -197 c 0
 138 -197 143 -198 143 -205 c 0
 143 -216 -110 -607 -134 -629 c 0
 -178 -668 -291 -728 -347 -728 c 0
EndSplineSet
EndChar

StartChar: uniE047.double_norm
Encoding: 65733 -1 398
Width: 0
VWidth: 0
Flags: HW
LayerCount: 2
Fore
SplineSet
-194 -728 m 0
 -208 -728 -214 -723 -209 -712 c 0
 -207 -707 78 -328 87 -318 c 0
 122 -279 233 -197 284 -197 c 0
 292 -197 297 -198 297 -205 c 0
 297 -216 38 -612 20 -629 c 0
 -24 -668 -138 -728 -194 -728 c 0
-501 -728 m 0
 -512 -728 -517 -725 -517 -719 c 0
 -517 -707 -220 -318 -220 -318 c 1
 -185 -279 -74 -197 -23 -197 c 0
 -15 -197 -11 -198 -11 -205 c 0
 -11 -218 -12 -214 -232 -552 c 0
 -274 -617 -275 -618 -287 -629 c 0
 -331 -668 -445 -728 -501 -728 c 0
EndSplineSet
EndChar

StartChar: uniE054.norm
Encoding: 65734 -1 399
Width: 0
VWidth: 0
Flags: HW
LayerCount: 2
Fore
SplineSet
-381 1587 m 0
 -381 1593 -376 1598 -365 1598 c 0
 -306 1598 -183 1530 -146 1493 c 0
 -135 1483 139 1106 140 1104 c 0
 144 1098 145 1094 145 1090 c 0
 145 1084 140 1081 132 1081 c 0
 98 1081 6 1129 -59 1197 c 0
 -68 1206 -370 1567 -377 1577 c 0
 -380 1581 -381 1584 -381 1587 c 0
EndSplineSet
EndChar

StartChar: uniE050.norm
Encoding: 65735 -1 400
Width: 0
VWidth: 0
Flags: HW
LayerCount: 2
Fore
SplineSet
-538 1036 m 0
 -538 1079 -372 1201 -321 1201 c 0
 -309 1201 -254 1178 -156 1170 c 0
 -123 1167 43 1164 175 1164 c 0
 393 1164 415 1168 511 1193 c 0
 529 1198 537 1195 537 1187 c 0
 537 1154 419 1050 343 1024 c 0
 278 1002 159 995 35 995 c 0
 -133 995 -309 1007 -372 1007 c 0
 -407 1007 -538 1019 -538 1036 c 0
EndSplineSet
EndChar

StartChar: uniE050.lambe
Encoding: 65736 -1 401
Width: 0
VWidth: 0
Flags: HW
LayerCount: 2
Fore
SplineSet
87 994 m 0
 -18 994 -720 1002 -720 1035 c 0
 -720 1079 -555 1199 -503 1201 c 1
 -447 1201 -463 1162 184 1162 c 0
 664 1162 653 1196 708 1196 c 0
 715 1196 719 1193 719 1186 c 0
 719 1147 586 1044 523 1023 c 0
 468 1005 277 994 87 994 c 0
EndSplineSet
EndChar

StartChar: uniE050.wide
Encoding: 65737 -1 402
Width: 0
VWidth: 0
Flags: HW
LayerCount: 2
Fore
SplineSet
-881 1036 m 0
 -881 1078 -717 1199 -664 1201 c 1
 -621 1201 -548 1160 181 1160 c 0
 694 1160 832 1194 868 1194 c 0
 877 1194 880 1192 880 1186 c 0
 880 1145 735 1035 676 1021 c 0
 596 1002 336 994 46 994 c 0
 -294 994 -675 1005 -848 1025 c 0
 -874 1028 -881 1027 -881 1036 c 0
EndSplineSet
EndChar

StartChar: uniE050.silme
Encoding: 65738 -1 403
Width: 0
VWidth: 0
Flags: HW
LayerCount: 2
Fore
SplineSet
-438 1036 m 0
 -438 1078 -272 1201 -221 1201 c 0
 -199 1201 -172 1172 -53 1169 c 0
 54 1166 134 1164 195 1164 c 0
 293 1164 346 1170 395 1188 c 0
 424 1199 437 1198 437 1187 c 0
 437 1155 328 1060 253 1028 c 0
 193 1003 117 996 25 996 c 1
 25 996 -438 999 -438 1036 c 0
EndSplineSet
EndChar

StartChar: uniE051.roomen
Encoding: 65739 -1 404
Width: 0
VWidth: 0
Flags: HW
LayerCount: 2
Fore
SplineSet
411 -141 m 0
 436 -141 437 -144 437 -151 c 0
 437 -190 278 -318 218 -318 c 0
 168 -318 -203 -312 -277 -312 c 0
 -368 -312 -408 -317 -425 -317 c 0
 -437 -317 -438 -315 -438 -307 c 0
 -438 -264 -270 -143 -222 -143 c 0
 -207 -143 -133 -146 -73 -149 c 1
 248 -148 367 -141 411 -141 c 0
EndSplineSet
EndChar

StartChar: uniE051.lambe
Encoding: 65740 -1 405
Width: 0
VWidth: 0
Flags: HW
LayerCount: 2
Fore
SplineSet
440 -142 m 2
 454 -142 l 2
 472 -142 477 -143 477 -150 c 0
 477 -192 317 -318 260 -318 c 0
 175 -318 -305 -312 -305 -312 c 1
 -401 -312 -444 -317 -463 -317 c 0
 -476 -317 -478 -315 -478 -307 c 0
 -478 -267 -317 -143 -259 -143 c 0
 -242 -143 -193 -145 -93 -149 c 1
 442 -148 324 -142 440 -142 c 2
EndSplineSet
EndChar

StartChar: uniE051.norm
Encoding: 65741 -1 406
Width: 0
VWidth: 0
Flags: HW
LayerCount: 2
Fore
SplineSet
509 -142 m 0
 531 -142 537 -143 537 -151 c 0
 537 -189 382 -318 318 -318 c 0
 162 -318 -271 -312 -337 -312 c 0
 -452 -312 -502 -316 -523 -316 c 0
 -538 -316 -539 -314 -539 -307 c 0
 -539 -271 -387 -144 -314 -144 c 0
 -296 -144 -277 -144 -131 -149 c 1
 513 -149 304 -142 509 -142 c 0
EndSplineSet
EndChar

StartChar: uniE051.wide
Encoding: 65742 -1 407
Width: 0
VWidth: 0
Flags: HW
LayerCount: 2
Fore
SplineSet
190 -151 m 0
 484 -151 693 -139 800 -139 c 0
 853 -139 881 -142 881 -151 c 0
 881 -188 723 -318 662 -318 c 0
 623 -318 584 -314 468 -314 c 0
 358 -314 269 -319 108 -319 c 0
 -85 -319 -407 -312 -535 -312 c 0
 -742 -312 -824 -317 -858 -317 c 0
 -881 -317 -881 -315 -881 -307 c 0
 -881 -266 -717 -143 -666 -143 c 0
 -661 -143 -218 -151 190 -151 c 0
EndSplineSet
EndChar

StartChar: uniE051.silme
Encoding: 65743 -1 408
Width: 0
VWidth: 0
Flags: HW
LayerCount: 2
Fore
SplineSet
411 -141 m 0
 436 -141 437 -144 437 -151 c 0
 437 -190 278 -318 218 -318 c 0
 168 -318 -203 -312 -277 -312 c 0
 -368 -312 -408 -317 -425 -317 c 0
 -437 -317 -438 -315 -438 -307 c 0
 -438 -264 -270 -143 -222 -143 c 0
 -207 -143 -133 -146 -73 -149 c 1
 248 -148 367 -141 411 -141 c 0
EndSplineSet
EndChar

StartChar: uniE049.norm
Encoding: 65744 -1 409
Width: 0
VWidth: 0
Flags: HW
LayerCount: 2
Fore
SplineSet
-214 -658 m 0
 -222 -658 -225 -655 -225 -651 c 0
 -225 -623 -165 -557 -96 -509 c 0
 -88 -503 318 -239 333 -230 c 0
 361 -212 379 -206 390 -206 c 0
 398 -206 402 -210 402 -215 c 0
 402 -244 330 -318 268 -359 c 0
 -194 -658 -189 -658 -214 -658 c 0
-390 -510 m 0
 -398 -510 -402 -506 -402 -501 c 0
 -402 -472 -324 -396 -266 -357 c 0
 -251 -347 153 -84 160 -80 c 0
 188 -64 205 -58 215 -58 c 0
 222 -58 225 -61 225 -65 c 0
 225 -93 165 -159 96 -207 c 0
 88 -213 -317 -476 -333 -486 c 0
 -361 -504 -379 -510 -390 -510 c 0
EndSplineSet
EndChar

StartChar: uniE053.norm
Encoding: 65745 -1 410
Width: 0
VWidth: 0
Flags: HW
LayerCount: 2
Fore
SplineSet
326 1395 m 0
 332 1395 334 1392 334 1386 c 0
 334 1333 101 1055 -71 1055 c 0
 -226 1055 -293 1188 -293 1217 c 0
 -293 1259 -126 1378 -73 1378 c 0
 -63 1378 -62 1377 -57 1363 c 0
 -40 1317 11 1229 123 1224 c 1
 149 1251 275 1395 326 1395 c 0
EndSplineSet
EndChar

StartChar: uniE053.wide
Encoding: 65746 -1 411
Width: 0
VWidth: 0
Flags: HW
LayerCount: 2
Fore
SplineSet
-359 1218 m 0
 -359 1256 -198 1378 -136 1378 c 0
 -130 1378 -130 1378 -121 1365 c 0
 -31 1237 92 1224 133 1224 c 0
 248 1224 262 1303 369 1375 c 0
 388 1388 404 1395 413 1395 c 0
 420 1395 423 1391 423 1385 c 0
 423 1332 169 1055 -58 1055 c 0
 -252 1055 -359 1202 -359 1218 c 0
EndSplineSet
EndChar

StartChar: uniE055.norm
Encoding: 65747 -1 412
Width: 0
VWidth: 0
Flags: HW
LayerCount: 2
Fore
SplineSet
-358 1032 m 0
 -369 1032 -375 1035 -375 1040 c 0
 -375 1078 -240 1204 -169 1218 c 0
 -119 1228 -120 1226 -44 1339 c 1
 -132 1454 -190 1404 -190 1431 c 0
 -190 1474 -49 1625 9 1625 c 0
 220 1625 213 1251 409 1241 c 0
 423 1240 426 1239 426 1231 c 0
 426 1184 279 1037 231 1037 c 0
 108 1037 57 1154 3 1260 c 1
 -175 1085 -312 1032 -358 1032 c 0
EndSplineSet
EndChar

StartChar: uniE052.narrow
Encoding: 65748 -1 413
Width: 0
VWidth: 0
Flags: HW
LayerCount: 2
Fore
SplineSet
-377 1216 m 0
 -377 1358 -140 1512 -90 1512 c 0
 -84 1512 -81 1510 -81 1505 c 0
 -81 1482 -112 1451 -144 1419 c 1
 -147 1405 -149 1392 -149 1379 c 0
 -149 1288 -72 1227 6 1227 c 0
 58 1227 190 1242 258 1242 c 0
 331 1242 350 1181 350 1142 c 0
 350 1010 145 834 99 834 c 0
 93 834 90 837 90 843 c 0
 90 878 135 894 135 956 c 0
 135 1006 108 1052 65 1063 c 0
 61 1064 48 1065 30 1065 c 0
 -19 1065 -110 1061 -195 1061 c 0
 -358 1061 -377 1176 -377 1216 c 0
EndSplineSet
EndChar

StartChar: uniE052.norm
Encoding: 65749 -1 414
Width: 0
VWidth: 0
Flags: HW
LayerCount: 2
Fore
SplineSet
382 1242 m 0
 493 1242 507 1160 507 1126 c 0
 507 1005 311 833 267 833 c 0
 258 833 255 836 255 841 c 0
 255 859 294 902 294 939 c 0
 294 1000 253 1050 199 1063 c 0
 194 1064 168 1065 131 1065 c 0
 28 1065 -166 1061 -277 1061 c 0
 -346 1061 -410 1066 -469 1119 c 0
 -521 1165 -527 1225 -527 1240 c 0
 -527 1365 -308 1512 -257 1512 c 0
 -250 1512 -247 1509 -247 1504 c 0
 -247 1493 -261 1470 -297 1432 c 1
 -299 1423 -300 1414 -300 1405 c 0
 -300 1317 -217 1227 -75 1227 c 0
 17 1227 290 1242 382 1242 c 0
EndSplineSet
EndChar

StartChar: uniE052.wide
Encoding: 65750 -1 415
Width: 0
VWidth: 0
Flags: HW
LayerCount: 2
Fore
SplineSet
485 1242 m 0
 607 1242 629 1160 629 1113 c 0
 629 1001 439 833 395 833 c 0
 386 833 383 836 383 841 c 0
 383 858 417 898 417 928 c 0
 417 968 395 1043 297 1065 c 1
 15 1065 -163 1060 -283 1060 c 0
 -461 1060 -510 1071 -577 1124 c 0
 -623 1160 -648 1208 -648 1255 c 0
 -648 1365 -433 1513 -385 1513 c 0
 -378 1513 -375 1511 -375 1505 c 0
 -375 1494 -388 1471 -421 1436 c 1
 -421 1297 -288 1227 -144 1227 c 0
 5 1227 324 1242 485 1242 c 0
EndSplineSet
EndChar

StartChar: uniE02C.lig
Encoding: 65751 -1 416
Width: 0
VWidth: 0
Flags: HW
LayerCount: 2
Fore
SplineSet
-112 -250 m 0
 -112 -201 52 -77 100 -77 c 0
 115 -77 112 -84 114 -129 c 0
 121 -311 122 -448 122 -585 c 0
 122 -629 119 -677 59 -723 c 0
 -13 -779 -117 -817 -158 -817 c 0
 -169 -817 -176 -814 -176 -808 c 0
 -176 -799 -162 -783 -127 -758 c 1
 -114 -717 -111 -599 -111 -477 c 0
 -111 -397 -112 -314 -112 -250 c 0
EndSplineSet
EndChar

StartChar: uniE02C.lig_lambe
Encoding: 65752 -1 417
Width: 0
VWidth: 0
Flags: HW
LayerCount: 2
Fore
SplineSet
-112 192 m 0
 -112 255 60 371 101 371 c 0
 113 371 112 366 113 353 c 0
 120 200 125 -30 125 -413 c 0
 125 -640 113 -683 25 -742 c 0
 -41 -787 -128 -817 -165 -817 c 0
 -176 -817 -183 -814 -183 -808 c 0
 -183 -800 -171 -785 -143 -764 c 1
 -113 -688 -108 -528 -108 -160 c 0
 -108 120 -112 121 -112 192 c 0
EndSplineSet
EndChar

StartChar: uniE059.norm
Encoding: 65753 -1 418
Width: 0
VWidth: 0
Flags: HW
LayerCount: 2
Fore
SplineSet
-153 -509 m 0
 -277 -509 -353 -415 -353 -319 c 0
 -353 -128 -41 86 27 86 c 0
 35 86 40 83 40 76 c 0
 40 57 2 18 -46 -17 c 0
 -61 -28 -119 -78 -119 -169 c 0
 -119 -263 -38 -340 56 -340 c 0
 110 -340 138 -299 181 -299 c 0
 189 -299 192 -302 192 -307 c 0
 192 -346 0 -509 -153 -509 c 0
EndSplineSet
EndChar

StartChar: uniE060
Encoding: 57440 57440 419
Width: 530
VWidth: 0
Flags: HW
LayerCount: 2
Fore
SplineSet
265 613 m 0
 290 613 316 569 409 482 c 0
 425 467 435 460 435 442 c 0
 435 413 416 417 305 298 c 0
 288 280 277 272 265 272 c 0
 237 272 209 320 121 402 c 0
 102 419 94 431 94 442 c 0
 94 455 104 466 121 482 c 0
 214 569 240 613 265 613 c 0
EndSplineSet
EndChar

StartChar: uniE061
Encoding: 57441 57441 420
Width: 530
VWidth: 0
Flags: HW
LayerCount: 2
Fore
SplineSet
265 348 m 0
 290 348 316 304 410 217 c 0
 427 201 435 189 435 177 c 0
 435 148 387 119 306 33 c 0
 289 15 276 6 264 6 c 0
 235 6 208 55 120 137 c 0
 103 153 94 165 94 177 c 0
 94 189 103 200 120 217 c 1
 215 304 240 348 265 348 c 0
265 878 m 0
 290 878 316 834 410 747 c 0
 427 731 435 719 435 707 c 0
 435 677 386 649 306 563 c 0
 289 545 276 536 264 536 c 0
 235 536 208 585 120 667 c 0
 103 683 94 695 94 707 c 0
 94 719 103 730 120 747 c 1
 215 834 240 878 265 878 c 0
EndSplineSet
EndChar

StartChar: uniE062
Encoding: 57442 57442 421
Width: 530
VWidth: 0
Flags: HW
LayerCount: 2
Fore
SplineSet
265 172 m 0
 290 172 316 128 410 41 c 0
 427 25 435 13 435 1 c 0
 435 -29 386 -58 306 -143 c 0
 289 -161 276 -170 264 -170 c 0
 235 -170 208 -122 120 -40 c 0
 103 -24 94 -12 94 0 c 0
 94 12 102 24 120 41 c 0
 215 128 240 172 265 172 c 0
265 613 m 0
 290 613 316 569 409 482 c 0
 425 467 435 460 435 442 c 0
 435 413 416 417 305 298 c 0
 289 281 281 272 265 272 c 0
 237 272 237 293 121 402 c 0
 102 419 94 431 94 442 c 0
 94 455 104 466 121 482 c 0
 214 569 240 613 265 613 c 0
265 1055 m 0
 290 1055 316 1011 410 924 c 0
 427 908 435 896 435 884 c 0
 435 854 386 825 306 740 c 0
 289 722 281 713 265 713 c 0
 237 713 235 736 120 843 c 0
 103 859 94 871 94 883 c 0
 94 895 102 907 120 924 c 0
 215 1011 240 1055 265 1055 c 0
EndSplineSet
EndChar

StartChar: uni10FB
Encoding: 4347 4347 422
Width: 883
VWidth: 0
Flags: HW
LayerCount: 2
Fore
SplineSet
265 348 m 0
 290 348 316 304 410 217 c 0
 427 201 435 189 435 177 c 0
 435 148 387 119 306 33 c 0
 289 15 276 6 264 6 c 0
 235 6 208 55 120 137 c 0
 103 153 94 165 94 177 c 0
 94 189 103 200 120 217 c 1
 215 304 240 348 265 348 c 0
618 613 m 0
 643 613 669 569 762 482 c 0
 779 466 788 458 788 442 c 0
 788 414 768 414 659 298 c 0
 642 280 631 272 619 272 c 0
 591 272 563 320 474 402 c 0
 455 419 447 431 447 442 c 0
 447 455 457 466 474 482 c 0
 567 569 593 613 618 613 c 0
265 878 m 0
 290 878 316 834 410 747 c 0
 427 731 435 719 435 707 c 0
 435 677 386 649 306 563 c 0
 289 545 276 536 264 536 c 0
 235 536 208 585 120 667 c 0
 103 683 94 695 94 707 c 0
 94 719 103 730 120 747 c 1
 215 834 240 878 265 878 c 0
EndSplineSet
EndChar

StartChar: uni2E2C
Encoding: 11820 11820 423
Width: 1060
VWidth: 0
Flags: HW
LayerCount: 2
Fore
SplineSet
795 348 m 0
 820 348 846 304 940 217 c 0
 957 201 965 189 965 177 c 0
 965 148 917 119 836 33 c 0
 819 15 806 6 794 6 c 0
 765 6 738 55 650 137 c 0
 634 152 624 164 624 177 c 0
 624 189 632 201 650 217 c 0
 745 304 770 348 795 348 c 0
265 348 m 0
 290 348 316 304 410 217 c 0
 427 201 435 189 435 177 c 0
 435 148 387 119 306 33 c 0
 289 15 276 6 264 6 c 0
 235 6 208 55 120 137 c 0
 103 153 94 165 94 177 c 0
 94 189 103 200 120 217 c 1
 215 304 240 348 265 348 c 0
795 878 m 0
 820 878 846 834 940 747 c 0
 957 731 965 719 965 707 c 0
 965 678 917 649 836 563 c 0
 819 545 806 536 794 536 c 0
 765 536 738 585 650 667 c 0
 634 682 624 694 624 707 c 0
 624 719 632 731 650 747 c 0
 745 834 770 878 795 878 c 0
265 878 m 0
 290 878 316 834 410 747 c 0
 427 731 435 719 435 707 c 0
 435 677 386 649 306 563 c 0
 289 545 276 536 264 536 c 0
 235 536 208 585 120 667 c 0
 103 683 94 695 94 707 c 0
 94 719 103 730 120 747 c 1
 215 834 240 878 265 878 c 0
EndSplineSet
EndChar

